<?xml version="1.0" encoding="utf-8"?>
<!-- Generator: Adobe Illustrator 26.0.3, SVG Export Plug-In . SVG Version: 6.00 Build 0)  -->
<svg version="1.1"
	 id="svg3317" inkscape:version="0.92.3 (2405546, 2018-03-11)" sodipodi:docname="macrochoreado.svg" xmlns:cc="http://creativecommons.org/ns#" xmlns:dc="http://purl.org/dc/elements/1.1/" xmlns:inkscape="http://www.inkscape.org/namespaces/inkscape" xmlns:rdf="http://www.w3.org/1999/02/22-rdf-syntax-ns#" xmlns:sodipodi="http://sodipodi.sourceforge.net/DTD/sodipodi-0.dtd" xmlns:svg="http://www.w3.org/2000/svg"
	 xmlns="http://www.w3.org/2000/svg" xmlns:xlink="http://www.w3.org/1999/xlink" x="0px" y="0px" viewBox="0 0 400 95"
	 style="enable-background:new 0 0 400 95;" xml:space="preserve">
<style type="text/css">
	.st0{fill-rule:evenodd;clip-rule:evenodd;fill:#232B54;}
</style>
<sodipodi:namedview  bordercolor="#666666" borderopacity="1" gridtolerance="10" guidetolerance="10" id="namedview3362" inkscape:current-layer="svg3317" inkscape:cx="105.99926" inkscape:cy="108.13205" inkscape:pageopacity="0" inkscape:pageshadow="2" inkscape:window-height="706" inkscape:window-maximized="1" inkscape:window-width="1366" inkscape:window-x="-8" inkscape:window-y="-8" inkscape:zoom="1" objecttolerance="10" pagecolor="#ffffff" showgrid="false">
	</sodipodi:namedview>
<g id="g86" transform="matrix(0.72679544,0,0,0.72679544,-14.013674,-0.07099302)">
	<path id="path12" inkscape:connector-curvature="0" class="st0" d="M121.6,39.8C90,39.8,63.8,64.3,62,95.5c0,0.8,0.2,1.5,0.8,2.1
		c0.5,0.6,1.3,0.9,2.1,0.9H86c1.5,0,2.7-1.1,2.9-2.7c1.6-16.8,15.7-29.5,32.8-29.5s31.2,12.7,32.8,29.5c0.1,1.5,1.4,2.7,2.9,2.7h21
		c0.8,0,1.6-0.3,2.1-0.9s0.8-1.3,0.8-2.1C179.4,64.2,153.2,39.8,121.6,39.8"/>
	<path id="path14" inkscape:connector-curvature="0" class="st0" d="M121.6,72.1c-14.9,0-27.1,12-27.1,26.8s12.2,26.8,27.1,26.8
		c14.9,0,27.1-12,27.1-26.8S136.5,72.1,121.6,72.1"/>
	<path id="path16" inkscape:connector-curvature="0" class="st0" d="M121.6,7.5c-24,0-46.8,9.1-64.1,25.6
		C40.3,49.6,30.3,71.7,29.4,95.4c0,0.8,0.3,1.5,0.8,2.1c0.6,0.6,1.3,0.9,2.1,0.9h20.9c1.5,0,2.8-1.2,2.9-2.7
		c1.7-34.7,30.4-61.8,65.5-61.8c35,0,63.8,27.1,65.5,61.8c0.1,1.5,1.3,2.7,2.9,2.7h20.9c0.8,0,1.5-0.3,2.1-0.9s0.8-1.3,0.8-2.1
		c-0.9-23.7-10.9-45.8-28.1-62.3C168.4,16.7,145.6,7.5,121.6,7.5"/>
	<path id="path18" inkscape:connector-curvature="0" class="st0" d="M322.4,19.1h-24c-0.4,0-0.7,0.2-0.7,0.6l-15,58.4h-0.2L268,19.7
		c-0.1-0.3-0.4-0.6-0.7-0.6h-25c-0.4,0-0.7,0.3-0.8,0.7l-5.2,77.1c0,0.2,0.1,0.4,0.2,0.6c0.1,0.2,0.4,0.2,0.6,0.2h13
		c0.4,0,0.7-0.3,0.8-0.7l3.8-64.2h0.1l17.1,64.4c0.1,0.3,0.4,0.6,0.7,0.6h17.9c0.3,0,0.6-0.2,0.7-0.6l17.7-64.4h0.1l2.8,64.2
		c0,0.4,0.4,0.7,0.8,0.7h15.1c0.2,0,0.4-0.1,0.6-0.2c0.1-0.2,0.2-0.4,0.2-0.6l-5.2-77.1C323.2,19.4,322.8,19.1,322.4,19.1"/>
	<path id="path20" inkscape:connector-curvature="0" class="st0" d="M361.1,37.2c-6.2,0-15.7,1-20.7,2.1c-0.3,0.1-0.6,0.4-0.6,0.7
		v10.9c0,0.2,0.1,0.4,0.3,0.6c0.2,0.1,0.4,0.2,0.6,0.1c3.5-0.8,11.5-2.1,19.5-2.1c13.3,0,13.7,3.2,13.7,11.6h-1.2
		c-12,0-25.6,0-32.5,6.8c-2.9,2.8-4.3,6.7-4.3,11.5c0,16.8,13.3,19.3,27.7,19.5c1.3,0,2.6,0.1,3.9,0.1c6.7,0,13.7-0.5,23.1-1.5
		c0.4,0,0.7-0.4,0.7-0.8V57.2c0-5.9-1.7-10.5-5-13.7C380.5,37.8,370.8,37.1,361.1,37.2 M373.9,72.7v14.1c-3,0.4-5.5,0.6-8.4,0.6
		c-6.8,0-11.6-0.5-11.6-7.4c0-6.9,4.8-7.4,11.6-7.4C369.6,72.6,372.4,72.6,373.9,72.7"/>
	<path id="path22" inkscape:connector-curvature="0" class="st0" d="M449.5,85.1l-1,0.1c-2.8,0.4-5.5,0.7-10.1,0.7
		c-15.2,0-21.4-5.3-21.4-18.2c0-12.8,6-17.9,21.4-17.9c3.5,0,6.5,0.3,10.7,0.8c0.2,0,0.4,0,0.6-0.2c0.2-0.1,0.3-0.3,0.3-0.6V39.5
		c0-0.4-0.2-0.7-0.6-0.7c-5-1.1-10.7-1.7-17.1-1.7c-23,0-33.3,15-33.3,29.8c0,20,12.7,31.9,34,31.9c6.4,0,11.7-0.6,16.9-1.9
		c0.3-0.1,0.6-0.4,0.6-0.7V85.7c0-0.2-0.1-0.4-0.3-0.6C449.9,85.1,449.7,85.1,449.5,85.1"/>
	<path id="path24" inkscape:connector-curvature="0" class="st0" d="M497.4,38.7c0-0.4-0.3-0.8-0.8-0.8h-1c-5.2,0-11.6-0.1-21,5.2
		v-4c0-0.4-0.3-0.8-0.8-0.8h-14c-0.4,0-0.8,0.3-0.8,0.8V97c0,0.4,0.3,0.8,0.8,0.8h15.8c0.4,0,0.8-0.3,0.8-0.8V55.7
		c5.2-3.4,13.7-3.4,19.4-3.4h0.9c0.4,0,0.8-0.3,0.8-0.8L497.4,38.7z"/>
	<path id="path26" inkscape:connector-curvature="0" class="st0" d="M529.2,37.1c-19.7,0-31.9,11.9-31.9,30.9
		c0,19.1,12.2,30.9,31.9,30.9c18.6,0,31.7-12.7,31.7-30.9C560.9,48.9,548.7,37.1,529.2,37.1 M542.9,68.2c0,13.2-4,18.6-13.8,18.6
		c-9.9,0-13.9-5.4-13.9-18.6c0-13.3,4-18.7,13.9-18.7C538.9,49.5,542.9,54.9,542.9,68.2"/>
</g>
</svg>
