<?xml version="1.0" encoding="utf-8"?>
<!-- Generator: Adobe Illustrator 26.0.3, SVG Export Plug-In . SVG Version: 6.00 Build 0)  -->
<svg version="1.1" id="Capa_1" xmlns="http://www.w3.org/2000/svg" xmlns:xlink="http://www.w3.org/1999/xlink" x="0px" y="0px"
	 viewBox="0 0 2500 598" style="enable-background:new 0 0 2500 598;" xml:space="preserve">
<style type="text/css">
	.st0{fill:#FF5000;}
	.st1{fill:#FF5001;}
	.st2{fill:#510180;}
</style>
<g>
	<path class="st0" d="M347.6,43.7h-72.2c-2.8,0-5,2.2-5,5v268.8L66.9,45.7c-0.9-1.3-2.4-2-4-2H0.2c-2.8,0-5,2.2-5,5v408.2
		c0,2.8,2.2,5,5,5l72.5,0c1.3,0,2.6-0.5,3.5-1.5c0.9-0.9,1.5-2.2,1.5-3.5V188.1l203.5,271.7c0.9,1.3,2.4,2,4,2h62.5c2.8,0,5-2.2,5-5
		V48.7C352.6,45.9,350.4,43.7,347.6,43.7z M275.5,48.7v283.8l0,0L275.5,48.7L275.5,48.7z M72.7,456.9L72.7,456.9L72.7,456.9
		L72.7,456.9z"/>
	<path class="st0" d="M1989.2,181.8c-0.9-0.9-2.2-1.5-3.5-1.5H1916c-2.8,0-5,2.2-5,5v7.4c-19.9-13.6-43.7-21.1-67.9-21.4
		c0,0,0,0-0.1,0c-0.4,0-0.9,0-1.3,0c-39.5,0.4-76.5,16.2-104.1,44.4c-27.6,28.2-42.6,65.5-42.2,105c-0.7,37.4,12.9,73.2,38,100.8
		c26.9,31.3,66,49.2,107.2,49.2c0.8,0,1.6,0,2.4,0c24.2-0.3,47.9-7.8,67.9-21.4v7.4c0,2.8,2.2,5,5,5h69.7c2.8,0,5-2.2,5-5l0.1-271.5
		C1990.7,184,1990.2,182.7,1989.2,181.8z M1901,374.6c-0.1,0.1-0.1,0.2-0.2,0.3C1900.8,374.8,1900.9,374.7,1901,374.6
		c11.1-15.8,16.6-34.8,15.9-54c0-13.4-2.1-25.3-6.3-35.9c4.2,10.5,6.3,22.5,6.3,35.9C1917.6,339.8,1912,358.8,1901,374.6z
		 M1842.9,397.4c-17.5,0-34.4-7.2-46.6-19.7c0,0,0,0-0.1-0.1c-13.5-13.5-20.4-32.6-20.4-56.9c0-20.7,5.1-37.6,15.1-50.4
		c0,0,0.1-0.1,0.1-0.1c11.8-15.9,30.7-25.4,50.5-25.4c0.5,0,0.9,0,1.4,0c0,0,0.1,0,0.1,0c0.1,0,0.1,0,0.2,0c0.9,0,1.8-0.1,2.7-0.1
		c17.2,0,33.9,7.1,45.8,19.5c13.3,13.9,20.1,32.8,20.1,56.3c0,0.1,0,0.1,0,0.2c0.7,18-4.6,36.1-14.9,50.9
		c-11.7,16.1-30.6,25.7-50.5,25.7c-0.7,0-1.4,0-2.1,0c-0.1,0-0.1,0-0.2,0c0,0-0.1,0-0.1,0C1843.7,397.4,1843.3,397.4,1842.9,397.4z
		 M1891.9,257.5c0.3,0.3,0.6,0.5,0.9,0.8C1892.5,258,1892.2,257.7,1891.9,257.5z M1846.3,239.8c0.5,0,1.1,0,1.6,0
		C1847.4,239.8,1846.8,239.8,1846.3,239.8z M1849.9,239.9c0.5,0,1.1,0.1,1.6,0.1C1850.9,240,1850.4,240,1849.9,239.9z M1853.4,240.2
		c0.5,0.1,1.1,0.1,1.6,0.2C1854.5,240.4,1854,240.3,1853.4,240.2z M1856.9,240.7c0.5,0.1,1.1,0.2,1.6,0.3
		C1858,240.9,1857.5,240.8,1856.9,240.7z M1860.4,241.4c0.5,0.1,1.1,0.2,1.6,0.4C1861.5,241.6,1860.9,241.5,1860.4,241.4z
		 M1863.8,242.2c0.5,0.1,1.1,0.3,1.6,0.5C1864.9,242.5,1864.3,242.3,1863.8,242.2z M1867.2,243.2c0.5,0.2,1.1,0.4,1.6,0.5
		C1868.2,243.5,1867.7,243.4,1867.2,243.2z M1870.5,244.4c0.5,0.2,1,0.4,1.6,0.6C1871.5,244.8,1871,244.6,1870.5,244.4z
		 M1873.8,245.7c0.5,0.2,1,0.5,1.5,0.7C1874.8,246.2,1874.3,245.9,1873.8,245.7z M1876.9,247.2c0.5,0.2,1,0.5,1.5,0.8
		C1877.9,247.7,1877.4,247.5,1876.9,247.2z M1880.1,248.9c0.5,0.3,0.9,0.5,1.4,0.8C1881,249.5,1880.5,249.2,1880.1,248.9z
		 M1883.1,250.8c0.4,0.3,0.9,0.6,1.3,0.9C1884,251.3,1883.6,251.1,1883.1,250.8z M1886.1,252.8c0.4,0.3,0.8,0.6,1.2,0.9
		C1886.9,253.4,1886.5,253.1,1886.1,252.8z M1889,255c0.4,0.3,0.7,0.6,1.1,0.9C1889.7,255.6,1889.4,255.3,1889,255z M1796.6,256.9
		c0.2-0.2,0.5-0.4,0.7-0.6C1797,256.5,1796.8,256.7,1796.6,256.9z M1798.1,255.6c0.2-0.2,0.5-0.4,0.7-0.6
		C1798.6,255.2,1798.3,255.4,1798.1,255.6z M1799.6,254.3c0.2-0.2,0.5-0.4,0.7-0.6C1800.1,253.9,1799.9,254.1,1799.6,254.3z
		 M1801.2,253.1c0.2-0.2,0.5-0.4,0.7-0.5C1801.7,252.8,1801.5,252.9,1801.2,253.1z M1802.8,252c0.3-0.2,0.5-0.3,0.8-0.5
		C1803.3,251.6,1803.1,251.8,1802.8,252z M1804.5,250.8c0.3-0.2,0.5-0.3,0.8-0.5C1805,250.5,1804.7,250.7,1804.5,250.8z
		 M1806.2,249.8c0.3-0.2,0.5-0.3,0.8-0.5C1806.7,249.5,1806.4,249.6,1806.2,249.8z M1807.9,248.8c0.3-0.2,0.5-0.3,0.8-0.4
		C1808.4,248.5,1808.1,248.6,1807.9,248.8z M1809.6,247.8c0.3-0.1,0.5-0.3,0.8-0.4C1810.2,247.5,1809.9,247.7,1809.6,247.8z
		 M1811.4,246.9c0.3-0.1,0.6-0.3,0.8-0.4C1811.9,246.6,1811.7,246.8,1811.4,246.9z M1813.2,246.1c0.3-0.1,0.6-0.3,0.8-0.4
		C1813.7,245.8,1813.5,245.9,1813.2,246.1z M1815,245.3c0.3-0.1,0.6-0.2,0.9-0.4C1815.6,245,1815.3,245.1,1815,245.3z M1816.8,244.5
		c0.3-0.1,0.6-0.2,0.9-0.3C1817.4,244.3,1817.1,244.4,1816.8,244.5z M1818.7,243.8c0.3-0.1,0.6-0.2,0.9-0.3
		C1819.3,243.6,1819,243.7,1818.7,243.8z M1820.6,243.2c0.3-0.1,0.6-0.2,0.9-0.3C1821.2,243,1820.9,243.1,1820.6,243.2z
		 M1822.5,242.6c0.3-0.1,0.6-0.2,0.9-0.3C1823.1,242.4,1822.8,242.5,1822.5,242.6z M1824.4,242.1c0.3-0.1,0.6-0.2,0.9-0.2
		C1825,241.9,1824.7,242,1824.4,242.1z M1826.3,241.6c0.3-0.1,0.6-0.1,0.9-0.2C1826.9,241.4,1826.6,241.5,1826.3,241.6z
		 M1828.3,241.2c0.3-0.1,0.6-0.1,0.9-0.2C1828.9,241,1828.6,241.1,1828.3,241.2z M1830.2,240.8c0.3-0.1,0.6-0.1,0.9-0.2
		C1830.9,240.7,1830.6,240.7,1830.2,240.8z M1832.2,240.5c0.3,0,0.6-0.1,0.9-0.1C1832.8,240.4,1832.5,240.4,1832.2,240.5z
		 M1834.2,240.2c0.3,0,0.6-0.1,0.9-0.1C1834.8,240.2,1834.5,240.2,1834.2,240.2z M1836.2,240.1c0.3,0,0.6-0.1,1-0.1
		C1836.9,240,1836.5,240,1836.2,240.1z M1838.2,239.9c0.3,0,0.6,0,1,0C1838.9,239.9,1838.6,239.9,1838.2,239.9z M1840.3,239.9
		c0.3,0,0.6,0,1,0C1840.9,239.9,1840.6,239.9,1840.3,239.9z M1790.9,262.5c0.2-0.2,0.4-0.4,0.6-0.7
		C1791.3,262.1,1791.1,262.3,1790.9,262.5z M1792.2,261.1c0.2-0.2,0.4-0.4,0.6-0.6C1792.6,260.6,1792.4,260.8,1792.2,261.1z
		 M1793.6,259.6c0.2-0.2,0.4-0.4,0.6-0.6C1794.1,259.2,1793.9,259.4,1793.6,259.6z M1795.1,258.2c0.2-0.2,0.4-0.4,0.7-0.6
		C1795.5,257.8,1795.3,258,1795.1,258.2z M1787,267.3L1787,267.3c0,0,0.1-0.1,0.1-0.1C1787.1,267.2,1787.1,267.2,1787,267.3z
		 M1788.3,265.6c0.1-0.2,0.3-0.4,0.5-0.6C1788.6,265.3,1788.4,265.5,1788.3,265.6z M1789.5,264.1c0.2-0.2,0.4-0.4,0.5-0.6
		C1789.9,263.7,1789.7,263.9,1789.5,264.1z M1781.5,275.4c-7.1,12.4-10.7,27.6-10.7,45.3c0,9.5,1,18.4,3,26.4c1,4,2.3,7.9,3.8,11.5
		c-1.5-3.7-2.8-7.5-3.8-11.5c-2-8.1-3-16.9-3-26.4C1770.9,303.1,1774.4,287.9,1781.5,275.4c1.1-1.9,2.3-3.8,3.5-5.5
		C1783.8,271.7,1782.6,273.5,1781.5,275.4z M1774.4,448.7c-0.6-0.3-1.2-0.7-1.8-1C1773.3,448,1773.8,448.3,1774.4,448.7z
		 M1771.2,446.8c-0.6-0.3-1.2-0.7-1.7-1.1C1770.1,446.1,1770.7,446.5,1771.2,446.8z M1777.7,450.4c-0.6-0.3-1.2-0.6-1.8-0.9
		C1776.5,449.8,1777.1,450.1,1777.7,450.4z M1781.1,365.8c3.1,5.7,7,10.8,11.6,15.4c0.1,0.1,0.1,0.1,0.2,0.2
		c-0.1-0.1-0.1-0.1-0.2-0.2C1788.1,376.6,1784.3,371.5,1781.1,365.8z M1794.5,457.8c-0.6-0.2-1.2-0.5-1.9-0.7
		C1793.3,457.3,1793.9,457.6,1794.5,457.8z M1791.1,456.5c-0.6-0.2-1.2-0.5-1.8-0.7C1789.8,456,1790.5,456.3,1791.1,456.5z
		 M1787.7,455.1c-0.6-0.3-1.2-0.5-1.8-0.8C1786.4,454.6,1787.1,454.9,1787.7,455.1z M1784.3,453.6c-0.6-0.3-1.2-0.6-1.8-0.8
		C1783.1,453.1,1783.7,453.4,1784.3,453.6z M1781,452.1c-0.6-0.3-1.2-0.6-1.8-0.9C1779.8,451.5,1780.4,451.8,1781,452.1z
		 M1796.2,384.5c-0.3-0.3-0.6-0.6-1-0.9C1795.6,384,1795.9,384.2,1796.2,384.5z M1841.7,402.4c-0.6,0-1.1,0-1.7,0
		C1840.5,402.3,1841.1,402.4,1841.7,402.4z M1838.1,402.2c-0.6,0-1.1-0.1-1.7-0.1C1837,402.1,1837.6,402.2,1838.1,402.2z
		 M1834.6,401.9c-0.6-0.1-1.1-0.1-1.7-0.2C1833.5,401.7,1834,401.8,1834.6,401.9z M1831.1,401.4c-0.6-0.1-1.1-0.2-1.7-0.3
		C1830,401.2,1830.5,401.3,1831.1,401.4z M1827.6,400.7c-0.6-0.1-1.1-0.2-1.7-0.4C1826.5,400.4,1827.1,400.6,1827.6,400.7z
		 M1824.2,399.8c-0.5-0.2-1.1-0.3-1.6-0.5C1823.1,399.5,1823.7,399.7,1824.2,399.8z M1820.8,398.8c-0.5-0.2-1.1-0.3-1.6-0.5
		C1819.8,398.5,1820.3,398.6,1820.8,398.8z M1817.5,397.6c-0.5-0.2-1-0.4-1.6-0.6C1816.5,397.2,1817,397.4,1817.5,397.6z
		 M1814.3,396.2c-0.5-0.2-1-0.4-1.5-0.7C1813.3,395.8,1813.8,396,1814.3,396.2z M1811.1,394.7c-0.5-0.3-1-0.5-1.5-0.8
		C1810.1,394.2,1810.6,394.5,1811.1,394.7z M1808,393c-0.5-0.3-1-0.5-1.4-0.8C1807,392.5,1807.5,392.8,1808,393z M1805,391.2
		c-0.5-0.3-0.9-0.6-1.4-0.9C1804,390.6,1804.5,390.9,1805,391.2z M1802,389.2c-0.4-0.3-0.9-0.6-1.3-0.9
		C1801.1,388.6,1801.6,388.9,1802,389.2z M1799.1,387c-0.4-0.3-0.8-0.6-1.2-0.9C1798.3,386.3,1798.7,386.6,1799.1,387z
		 M1844.2,402.4c0.7,0,1.5,0,2.2,0C1845.6,402.4,1844.9,402.4,1844.2,402.4C1844.2,402.4,1844.2,402.4,1844.2,402.4
		C1844.2,402.4,1844.2,402.4,1844.2,402.4z M1889.9,386.5c-0.2,0.2-0.5,0.4-0.7,0.6C1889.4,386.9,1889.7,386.7,1889.9,386.5z
		 M1888.4,387.8c-0.2,0.2-0.5,0.4-0.7,0.6C1887.9,388.2,1888.1,388,1888.4,387.8z M1886.8,389c-0.3,0.2-0.5,0.4-0.8,0.6
		C1886.3,389.4,1886.5,389.2,1886.8,389z M1885.1,390.2c-0.3,0.2-0.5,0.4-0.8,0.5C1884.6,390.6,1884.9,390.4,1885.1,390.2z
		 M1883.5,391.3c-0.3,0.2-0.5,0.3-0.8,0.5C1882.9,391.7,1883.2,391.5,1883.5,391.3z M1881.8,392.4c-0.3,0.2-0.5,0.3-0.8,0.5
		C1881.2,392.7,1881.5,392.6,1881.8,392.4z M1880,393.4c-0.3,0.2-0.5,0.3-0.8,0.5C1879.5,393.7,1879.8,393.6,1880,393.4z
		 M1878.3,394.4c-0.3,0.1-0.5,0.3-0.8,0.4C1877.7,394.7,1878,394.6,1878.3,394.4z M1876.5,395.3c-0.3,0.1-0.6,0.3-0.8,0.4
		C1875.9,395.6,1876.2,395.5,1876.5,395.3z M1874.7,396.2c-0.3,0.1-0.6,0.3-0.8,0.4C1874.1,396.5,1874.4,396.3,1874.7,396.2z
		 M1872.9,397c-0.3,0.1-0.6,0.2-0.9,0.4C1872.3,397.3,1872.6,397.1,1872.9,397z M1871,397.8c-0.3,0.1-0.6,0.2-0.9,0.3
		C1870.4,398,1870.7,397.9,1871,397.8z M1869.1,398.5c-0.3,0.1-0.6,0.2-0.9,0.3C1868.5,398.7,1868.8,398.6,1869.1,398.5z
		 M1867.2,399.1c-0.3,0.1-0.6,0.2-0.9,0.3C1866.6,399.3,1866.9,399.2,1867.2,399.1z M1865.3,399.7c-0.3,0.1-0.6,0.2-0.9,0.3
		C1864.7,399.9,1865,399.8,1865.3,399.7z M1863.3,400.3c-0.3,0.1-0.6,0.2-0.9,0.2C1862.7,400.4,1863,400.3,1863.3,400.3z
		 M1861.4,400.7c-0.3,0.1-0.6,0.1-0.9,0.2C1860.8,400.9,1861.1,400.8,1861.4,400.7z M1859.4,401.2c-0.3,0.1-0.6,0.1-0.9,0.2
		C1858.8,401.3,1859.1,401.2,1859.4,401.2z M1857.4,401.5c-0.3,0-0.6,0.1-0.8,0.1C1856.8,401.6,1857.1,401.6,1857.4,401.5z
		 M1855.3,401.8c-0.3,0-0.5,0.1-0.8,0.1C1854.8,401.9,1855,401.9,1855.3,401.8z M1853.1,402.1c-0.2,0-0.4,0-0.6,0.1
		C1852.7,402.1,1852.9,402.1,1853.1,402.1z M1850.4,402.3c-0.1,0-0.3,0-0.4,0C1850.2,402.3,1850.3,402.3,1850.4,402.3z
		 M1848.4,402.4c-0.3,0-0.5,0-0.8,0C1847.9,402.4,1848.1,402.4,1848.4,402.4z M1897.1,379.4c-0.2,0.2-0.4,0.4-0.6,0.7
		C1896.7,379.9,1896.9,379.6,1897.1,379.4z M1895.8,380.9c-0.2,0.2-0.4,0.4-0.6,0.7C1895.4,381.4,1895.6,381.1,1895.8,380.9z
		 M1894.4,382.4c-0.2,0.2-0.4,0.4-0.7,0.7C1893.9,382.8,1894.2,382.6,1894.4,382.4z M1892.9,383.8c-0.2,0.2-0.5,0.4-0.7,0.6
		C1892.5,384.2,1892.7,384,1892.9,383.8z M1891.4,385.2c-0.2,0.2-0.5,0.4-0.7,0.6C1891,385.6,1891.2,385.4,1891.4,385.2z
		 M1899.8,376.2c-0.2,0.2-0.3,0.4-0.5,0.6C1899.4,376.7,1899.6,376.4,1899.8,376.2z M1898.5,377.8c-0.2,0.2-0.4,0.4-0.6,0.7
		C1898.1,378.3,1898.3,378.1,1898.5,377.8z M1841.8,176.4c0.4,0,0.8,0,1.2,0c14.5,0.2,28.7,3,42,8.3c-13.3-5.3-27.5-8.1-42-8.3
		C1842.6,176.4,1842.2,176.4,1841.8,176.4c-68.3,0.7-124.8,49.2-138.3,113.3C1717,225.6,1773.6,177.1,1841.8,176.4z M1893.1,188.2
		c-1.6-0.8-3.2-1.5-4.9-2.2C1889.9,186.7,1891.5,187.4,1893.1,188.2z M1702,297.9c-0.1,0.7-0.2,1.3-0.3,2
		C1701.8,299.3,1701.9,298.6,1702,297.9z M1726.6,405.2c-2.6-3.6-5-7.4-7.2-11.2c-1.7-2.9-3.2-5.8-4.7-8.8c1.5,3,3,5.9,4.7,8.8
		C1721.6,397.9,1724,401.6,1726.6,405.2c3.2,4.5,6.8,8.9,10.5,13c0.8,1,1.6,1.9,2.5,2.8c-0.8-0.9-1.7-1.9-2.5-2.8
		C1733.4,414.1,1729.9,409.8,1726.6,405.2z M1740.5,422c0.6,0.6,1.2,1.3,1.8,1.9C1741.6,423.2,1741.1,422.6,1740.5,422z
		 M1743.2,424.9c0.5,0.6,1.1,1.1,1.6,1.7C1744.3,426,1743.8,425.4,1743.2,424.9z M1768.1,444.9c-0.6-0.4-1.1-0.7-1.7-1.1
		C1766.9,444.2,1767.5,444.6,1768.1,444.9z M1765,442.9c-0.6-0.4-1.1-0.8-1.7-1.2C1763.9,442.1,1764.4,442.5,1765,442.9z
		 M1761.9,440.8c-0.6-0.4-1.1-0.8-1.7-1.2C1760.8,440,1761.4,440.4,1761.9,440.8z M1759,438.6c-0.6-0.4-1.1-0.8-1.6-1.3
		C1757.9,437.8,1758.4,438.2,1759,438.6z M1756,436.4c-0.5-0.4-1.1-0.9-1.6-1.3C1754.9,435.5,1755.5,435.9,1756,436.4z M1753.1,434
		c-0.5-0.5-1.1-0.9-1.6-1.4C1752.1,433.1,1752.6,433.6,1753.1,434z M1750.3,431.6c-0.5-0.5-1.1-1-1.6-1.4
		C1749.3,430.7,1749.8,431.1,1750.3,431.6z M1747.6,429.1c-0.5-0.5-1.1-1-1.6-1.5C1746.5,428.1,1747,428.6,1747.6,429.1z
		 M1796.1,458.4c0.6,0.2,1.2,0.4,1.9,0.6C1797.4,458.8,1796.8,458.6,1796.1,458.4z M1799.6,459.5c0.6,0.2,1.2,0.4,1.9,0.6
		C1800.9,459.9,1800.3,459.7,1799.6,459.5z M1803.2,460.6c0.6,0.2,1.3,0.4,1.9,0.5C1804.4,460.9,1803.8,460.8,1803.2,460.6z
		 M1806.7,461.5c0.6,0.2,1.3,0.3,1.9,0.5C1808,461.9,1807.4,461.7,1806.7,461.5z M1810.3,462.4c0.6,0.1,1.3,0.3,1.9,0.4
		C1811.6,462.7,1811,462.6,1810.3,462.4z M1814,463.2c0.6,0.1,1.3,0.2,1.9,0.4C1815.2,463.4,1814.6,463.3,1814,463.2z M1817.6,463.9
		c0.6,0.1,1.3,0.2,1.9,0.3C1818.9,464.1,1818.2,464,1817.6,463.9z M1821.3,464.4c0.6,0.1,1.3,0.2,1.9,0.3
		C1822.6,464.6,1821.9,464.5,1821.3,464.4z M1825,464.9c0.6,0.1,1.3,0.1,1.9,0.2C1826.2,465.1,1825.6,465,1825,464.9z M1828.7,465.3
		c0.6,0.1,1.3,0.1,1.9,0.2C1830,465.4,1829.3,465.4,1828.7,465.3z M1832.4,465.6c0.6,0,1.3,0.1,1.9,0.1
		C1833.7,465.7,1833,465.6,1832.4,465.6z M1836.1,465.8c0.6,0,1.3,0,1.9,0C1837.4,465.8,1836.8,465.8,1836.1,465.8z M1842.9,465.8
		c-0.8,0-1.5,0-2.3,0c-0.3,0-0.5,0-0.8,0C1840.9,465.8,1841.9,465.8,1842.9,465.8c8.3-0.1,16.5-1.1,24.5-2.9
		C1859.5,464.7,1851.3,465.7,1842.9,465.8z M1872.3,461.8c3.2-0.9,6.3-1.8,9.4-2.9C1878.6,459.9,1875.4,460.9,1872.3,461.8z
		 M1897.5,451.7c-2.2,1.2-4.5,2.3-6.8,3.4C1893,454,1895.3,452.9,1897.5,451.7z M1910.3,443.7c1.9-1.4,3.8-2.8,5.6-4.2v0
		C1914.1,441,1912.2,442.4,1910.3,443.7z M1985.7,185.3H1916v0L1985.7,185.3L1985.7,185.3z"/>
	<path class="st0" d="M1516.8,456.8V310.8c0-48.1-9.4-78.4-31.3-101.6c-22.6-24-54.6-37.8-87.5-37.8l-0.3,0
		c-20.8,0.1-41.1,6.6-58.1,18.2v-4.3c0-2.8-2.2-5-5-5h-69.7c-2.8,0-5,2.2-5,5v271.5c0,2.8,2.2,5,5,5h69.7c2.8,0,5-2.2,5-5V321.3
		c0-30,3.9-50.1,11.5-59.6c9.1-11.3,23-17,41.5-17c0.1,0,0.2,0,0.3,0c0.7,0,1.5-0.1,2.2-0.1c11.4,0,22.3,4.8,30,13.1
		c8.1,9.2,12.2,28.6,12.2,57.6v141.4c0,2.8,2.2,5,5,5h69.6C1514.5,461.8,1516.8,459.6,1516.8,456.8z M1481.9,212.6
		c21.2,22.4,29.9,51.8,29.9,98.2v146.1h0V310.8C1511.8,264.3,1503.1,235,1481.9,212.6c-0.7-0.7-1.4-1.4-2.1-2.1
		C1480.5,211.1,1481.2,211.8,1481.9,212.6z M1427,180.1c0.5,0.1,1.1,0.3,1.6,0.4C1428.1,180.4,1427.5,180.2,1427,180.1z M1427,252.7
		c-0.2-0.2-0.4-0.4-0.6-0.6C1426.6,252.3,1426.8,252.5,1427,252.7z M1397.7,176.4c0.1,0,0.2,0,0.3,0c0.5,0,0.9,0,1.4,0
		C1398.8,176.4,1398.2,176.4,1397.7,176.4c-8.7,0.1-17.2,1.3-25.5,3.5C1380.4,177.6,1389,176.4,1397.7,176.4z M1479.3,209.9
		c-0.5-0.5-1.1-1.1-1.6-1.6C1478.2,208.9,1478.8,209.4,1479.3,209.9z M1477.1,207.8c-0.5-0.5-1-1-1.6-1.5
		C1476,206.8,1476.6,207.3,1477.1,207.8z M1474.8,205.7c-0.5-0.5-1-0.9-1.5-1.4C1473.8,204.8,1474.3,205.3,1474.8,205.7z
		 M1472.5,203.7c-0.5-0.4-1-0.8-1.5-1.2C1471.5,202.9,1472,203.3,1472.5,203.7z M1470.2,201.8c-0.5-0.4-1-0.8-1.5-1.2
		C1469.2,201,1469.7,201.4,1470.2,201.8z M1467.9,200c-0.5-0.4-1-0.8-1.5-1.2C1466.9,199.2,1467.4,199.6,1467.9,200z M1465.5,198.2
		c-0.5-0.4-1-0.7-1.5-1.1C1464.5,197.5,1465,197.9,1465.5,198.2z M1463.1,196.5c-0.5-0.3-1-0.7-1.5-1
		C1462.1,195.8,1462.6,196.2,1463.1,196.5z M1460.6,194.9c-0.5-0.3-1-0.7-1.6-1C1459.6,194.2,1460.1,194.6,1460.6,194.9z
		 M1458.2,193.3c-0.5-0.3-1.1-0.6-1.6-1C1457.1,192.7,1457.6,193,1458.2,193.3z M1455.6,191.8c-0.5-0.3-1.1-0.6-1.6-0.9
		C1454.6,191.2,1455.1,191.5,1455.6,191.8z M1453.1,190.4c-0.5-0.3-1.1-0.6-1.6-0.9C1452,189.8,1452.5,190.1,1453.1,190.4z
		 M1450.5,189c-0.5-0.3-1.1-0.6-1.6-0.8C1449.4,188.5,1450,188.8,1450.5,189z M1447.8,187.7c-0.5-0.3-1.1-0.5-1.6-0.8
		C1446.8,187.2,1447.3,187.5,1447.8,187.7z M1445.2,186.5c-0.5-0.2-1.1-0.5-1.6-0.7C1444.1,186,1444.7,186.3,1445.2,186.5z
		 M1442.5,185.3c-0.5-0.2-1.1-0.5-1.6-0.7C1441.4,184.9,1442,185.1,1442.5,185.3z M1439.8,184.2c-0.6-0.2-1.1-0.4-1.7-0.6
		C1438.7,183.8,1439.2,184,1439.8,184.2z M1437,183.2c-0.6-0.2-1.1-0.4-1.7-0.6C1435.9,182.8,1436.5,183,1437,183.2z M1434.2,182.2
		c-0.5-0.2-1.1-0.4-1.6-0.5C1433.2,181.9,1433.7,182.1,1434.2,182.2z M1431.4,181.3c-0.5-0.2-1.1-0.3-1.6-0.5
		C1430.4,181,1430.9,181.2,1431.4,181.3z M1425.8,179.8c-0.5-0.1-1.1-0.3-1.6-0.4C1424.7,179.5,1425.2,179.7,1425.8,179.8z
		 M1422.9,179.1c-0.5-0.1-1.1-0.2-1.6-0.4C1421.8,178.9,1422.4,179,1422.9,179.1z M1420,178.5c-0.5-0.1-1.1-0.2-1.6-0.3
		C1418.9,178.3,1419.5,178.4,1420,178.5z M1417.1,178c-0.5-0.1-1.1-0.2-1.6-0.3C1416,177.8,1416.6,177.9,1417.1,178z M1414.2,177.5
		c-0.5-0.1-1.1-0.2-1.6-0.2C1413.1,177.4,1413.6,177.5,1414.2,177.5z M1411.2,177.1c-0.5-0.1-1-0.1-1.6-0.2
		C1410.2,177,1410.7,177.1,1411.2,177.1z M1408.3,176.8c-0.5,0-1-0.1-1.6-0.1C1407.2,176.7,1407.7,176.8,1408.3,176.8z
		 M1405.3,176.6c-0.5,0-1.1-0.1-1.6-0.1C1404.3,176.5,1404.8,176.6,1405.3,176.6z M1402.3,176.5c-0.5,0-1,0-1.6-0.1
		C1401.3,176.4,1401.8,176.4,1402.3,176.5z M1398.5,239.8c-0.3,0-0.6-0.1-0.9-0.1C1397.8,239.7,1398.1,239.8,1398.5,239.8z
		 M1395.7,239.7c-0.2,0-0.4,0-0.6,0C1395.3,239.6,1395.5,239.7,1395.7,239.7z M1354.4,251.3c-0.7,0.6-1.4,1.2-2.1,1.8
		C1353,252.5,1353.7,251.9,1354.4,251.3z M1334.6,185.3L1334.6,185.3l-69.7,0v0H1334.6z M1334.6,321.3c0-6,0.2-11.6,0.5-16.8
		C1334.7,309.7,1334.6,315.3,1334.6,321.3L1334.6,321.3z M1335.3,300c0-0.3,0-0.5,0.1-0.8C1335.4,299.5,1335.3,299.7,1335.3,300z
		 M1336.3,290.6c0-0.2,0.1-0.4,0.1-0.6C1336.3,290.2,1336.3,290.4,1336.3,290.6z M1344.4,262.5c0.8-1.5,1.7-2.8,2.7-4
		c1-1.2,2-2.3,3-3.4c-1,1.1-2.1,2.2-3,3.4C1346.2,259.8,1345.3,261.1,1344.4,262.5z M1400,239.9c0.3,0,0.7,0.1,1,0.1
		C1400.7,240,1400.3,240,1400,239.9z M1402.4,240.3c0.4,0.1,0.7,0.1,1.1,0.2C1403.1,240.4,1402.8,240.3,1402.4,240.3z M1404.8,240.7
		c0.4,0.1,0.7,0.2,1.1,0.3C1405.5,240.9,1405.2,240.8,1404.8,240.7z M1407.2,241.3c0.4,0.1,0.7,0.2,1.1,0.3
		C1407.9,241.5,1407.5,241.4,1407.2,241.3z M1409.5,242c0.4,0.1,0.7,0.2,1.1,0.4C1410.2,242.2,1409.9,242.1,1409.5,242z
		 M1411.8,242.8c0.3,0.1,0.7,0.3,1,0.4C1412.5,243.1,1412.1,243,1411.8,242.8z M1414,243.8c0.3,0.2,0.7,0.3,1,0.5
		C1414.7,244.1,1414.4,243.9,1414,243.8z M1416.2,244.9c0.3,0.2,0.7,0.3,1,0.5C1416.9,245.2,1416.5,245,1416.2,244.9z M1418.4,246.1
		c0.3,0.2,0.6,0.4,0.9,0.6C1419,246.4,1418.7,246.2,1418.4,246.1z M1420.4,247.4c0.3,0.2,0.6,0.4,0.9,0.6
		C1421,247.8,1420.7,247.6,1420.4,247.4z M1422.5,248.8c0.3,0.2,0.6,0.4,0.8,0.6C1423,249.2,1422.7,249,1422.5,248.8z M1424.4,250.4
		c0.3,0.2,0.5,0.4,0.8,0.6C1424.9,250.8,1424.7,250.6,1424.4,250.4z M1429.6,255.4c0.8,1,1.6,2.1,2.3,3.3
		C1431.2,257.5,1430.4,256.4,1429.6,255.4z M1432.6,259.9c6.4,11.2,9.6,29.7,9.6,55.5v141.4h0V315.4
		C1442.2,289.7,1439,271.2,1432.6,259.9z"/>
	<path class="st0" d="M893.2,180.2c-8.7-1.1-17.5-1.7-26.3-1.8c0,0,0,0-0.1,0l-0.3,0c-17.1,0-33.8,5.1-47.9,14.6v-7.6
		c0-2.8-2.2-5-5-5h-69.7c-2.8,0-5,2.2-5,5v271.5c0,2.8,2.2,5,5,5h69.6c2.8,0,5-2.2,5-5V326c0-28.9,3.6-49,10.8-59.7
		c6.7-9.8,19.5-14.8,38-14.8c4.8,0,13,0.2,24.7,1.2c0.1,0,0.3,0,0.4,0c1.3,0,2.5-0.5,3.4-1.3c1-0.9,1.6-2.3,1.6-3.7v-62.5
		C897.6,182.6,895.7,180.5,893.2,180.2z M866.8,183.3c-0.7,0-1.3,0-2,0c0.6,0,1.2,0,1.7,0C866.6,183.3,866.7,183.3,866.8,183.3z
		 M826.9,193.7c0.5-0.3,1.1-0.6,1.6-0.9C828,193.1,827.5,193.4,826.9,193.7z M830.2,192c0.5-0.3,1.1-0.5,1.6-0.8
		C831.2,191.4,830.7,191.7,830.2,192z M833.4,190.4c0.5-0.2,1.1-0.5,1.6-0.7C834.5,189.9,834,190.2,833.4,190.4z M836.7,189
		c0.5-0.2,1.1-0.4,1.7-0.7C837.8,188.6,837.3,188.8,836.7,189z M840.1,187.8c0.6-0.2,1.1-0.4,1.7-0.6
		C841.2,187.4,840.7,187.6,840.1,187.8z M843.5,186.7c0.6-0.2,1.1-0.3,1.7-0.5C844.7,186.4,844.1,186.5,843.5,186.7z M847,185.8
		c0.6-0.1,1.2-0.3,1.7-0.4C848.1,185.5,847.6,185.6,847,185.8z M850.5,185c0.6-0.1,1.2-0.3,1.8-0.4
		C851.7,184.7,851.1,184.9,850.5,185z M854,184.3c0.6-0.1,1.2-0.2,1.8-0.3C855.2,184.1,854.6,184.2,854,184.3z M857.6,183.9
		c0.6-0.1,1.2-0.1,1.8-0.2C858.8,183.7,858.2,183.8,857.6,183.9z M861.2,183.5c0.6,0,1.2-0.1,1.9-0.1
		C862.4,183.5,861.8,183.5,861.2,183.5z M819.3,198.5c-0.6,0.4-1.1,0.9-1.7,1.3C818.2,199.4,818.7,198.9,819.3,198.5z M825.4,194.6
		c-0.5,0.3-1.1,0.7-1.6,1C824.3,195.2,824.9,194.9,825.4,194.6z M822.3,196.5c-0.6,0.4-1.1,0.7-1.6,1.1
		C821.2,197.2,821.8,196.8,822.3,196.5z M816.4,200.7c-0.7,0.6-1.5,1.2-2.2,1.8C815,201.9,815.7,201.3,816.4,200.7z M813.6,185.3
		L813.6,185.3l-69.7,0v0H813.6z M743.9,456.8L743.9,456.8l69.6,0v0H743.9z M816.5,287.8c1.7-9.1,4.2-16.4,7.4-22
		C820.6,271.4,818.2,278.7,816.5,287.8z M828.4,259.5c-0.6,0.6-1.1,1.3-1.7,1.9C827.3,260.8,827.9,260.1,828.4,259.5z M872.3,246.5
		c0,0,0.1,0,0.1,0C872.4,246.5,872.4,246.5,872.3,246.5z"/>
	<path class="st0" d="M1200.1,180.3h-69.7c-2.8,0-5,2.2-5,5v7.5c-19.9-13.6-43.7-21.1-67.9-21.4c0,0,0,0-0.1,0c-0.4,0-0.9,0-1.3,0
		c-39.5,0.4-76.5,16.2-104.1,44.4c-27.6,28.2-42.6,65.5-42.2,105c-0.7,37.4,12.8,73.2,38,100.8c26.9,31.3,66,49.2,107.2,49.2
		c0.8,0,1.6,0,2.4,0c24.2-0.3,47.9-7.8,67.9-21.4v7.4c0,2.8,2.2,5,5,5h69.7c2.8,0,5-2.2,5-5l0.1-271.5c0-1.3-0.5-2.6-1.5-3.5
		C1202.7,180.8,1201.4,180.3,1200.1,180.3z M1126.2,320.8c0.7,18-4.6,36.1-14.9,50.9c-11.7,16.1-30.6,25.7-50.5,25.7
		c-0.7,0-1.4,0-2,0c-0.1,0-0.1,0-0.2,0c0,0-0.1,0-0.1,0c-0.4,0-0.8,0-1.2,0c-17.5,0-34.4-7.2-46.6-19.7c0,0,0,0-0.1-0.1
		c-13.5-13.5-20.3-32.6-20.3-56.9c0-20.7,5.1-37.6,15.1-50.4c0,0,0.1-0.1,0.1-0.1c11.8-15.9,30.7-25.4,50.5-25.4c0.4,0,0.8,0,1.3,0
		c0,0,0.1,0,0.1,0c0.1,0,0.1,0,0.2,0c0.9,0,1.8-0.1,2.7-0.1c17.2,0,33.9,7.1,45.8,19.5c13.4,13.9,20.2,32.8,20.2,56.3
		C1126.2,320.6,1126.2,320.7,1126.2,320.8z M1060.6,239.8c0.5,0,1.1,0,1.6,0C1061.7,239.8,1061.1,239.8,1060.6,239.8z M1064.2,239.9
		c0.5,0,1.1,0.1,1.6,0.1C1065.2,240,1064.7,240,1064.2,239.9z M1067.7,240.2c0.5,0.1,1.1,0.1,1.6,0.2
		C1068.8,240.4,1068.2,240.3,1067.7,240.2z M1071.2,240.7c0.5,0.1,1.1,0.2,1.6,0.3C1072.3,240.9,1071.8,240.8,1071.2,240.7z
		 M1074.7,241.4c0.5,0.1,1.1,0.2,1.6,0.4C1075.8,241.6,1075.2,241.5,1074.7,241.4z M1078.1,242.2c0.5,0.1,1.1,0.3,1.6,0.5
		C1079.2,242.5,1078.6,242.3,1078.1,242.2z M1081.5,243.2c0.5,0.2,1.1,0.4,1.6,0.5C1082.5,243.5,1082,243.4,1081.5,243.2z
		 M1084.8,244.4c0.5,0.2,1,0.4,1.6,0.6C1085.8,244.8,1085.3,244.6,1084.8,244.4z M1088.1,245.7c0.5,0.2,1,0.5,1.5,0.7
		C1089.1,246.2,1088.6,245.9,1088.1,245.7z M1091.2,247.2c0.5,0.2,1,0.5,1.5,0.8C1092.2,247.7,1091.7,247.5,1091.2,247.2z
		 M1094.4,248.9c0.5,0.3,0.9,0.5,1.4,0.8C1095.3,249.5,1094.8,249.2,1094.4,248.9z M1097.4,250.8c0.4,0.3,0.9,0.6,1.3,0.9
		C1098.3,251.3,1097.9,251.1,1097.4,250.8z M1100.4,252.8c0.4,0.3,0.8,0.6,1.3,0.9C1101.2,253.4,1100.8,253.1,1100.4,252.8z
		 M1103.3,255c0.4,0.3,0.8,0.6,1.1,0.9C1104,255.6,1103.7,255.3,1103.3,255z M1055.6,239.9c-0.3,0-0.6,0-1,0
		C1054.9,239.9,1055.2,239.9,1055.6,239.9z M1011,256.9c0.2-0.2,0.4-0.4,0.7-0.6C1011.4,256.5,1011.2,256.7,1011,256.9z
		 M1012.5,255.6c0.2-0.2,0.5-0.4,0.7-0.6C1012.9,255.2,1012.7,255.4,1012.5,255.6z M1014,254.3c0.2-0.2,0.5-0.4,0.7-0.5
		C1014.5,254,1014.2,254.1,1014,254.3z M1015.6,253.1c0.2-0.2,0.5-0.3,0.7-0.5C1016.1,252.8,1015.8,252.9,1015.6,253.1z M1017.2,252
		c0.2-0.2,0.5-0.3,0.7-0.5C1017.7,251.6,1017.5,251.8,1017.2,252z M1018.9,250.9c0.2-0.2,0.5-0.3,0.8-0.5
		C1019.4,250.5,1019.1,250.7,1018.9,250.9z M1020.5,249.8c0.3-0.2,0.5-0.3,0.8-0.5C1021.1,249.5,1020.8,249.6,1020.5,249.8z
		 M1022.3,248.8c0.3-0.1,0.5-0.3,0.8-0.4C1022.8,248.5,1022.5,248.6,1022.3,248.8z M1024,247.8c0.3-0.1,0.5-0.3,0.8-0.4
		C1024.5,247.6,1024.3,247.7,1024,247.8z M1025.8,246.9c0.3-0.1,0.5-0.3,0.8-0.4C1026.3,246.7,1026,246.8,1025.8,246.9z
		 M1027.5,246.1c0.3-0.1,0.5-0.2,0.8-0.4C1028.1,245.8,1027.8,245.9,1027.5,246.1z M1029.4,245.3c0.3-0.1,0.6-0.2,0.8-0.3
		C1029.9,245,1029.6,245.1,1029.4,245.3z M1031.2,244.5c0.3-0.1,0.6-0.2,0.8-0.3C1031.8,244.3,1031.5,244.4,1031.2,244.5z
		 M1033.1,243.8c0.3-0.1,0.6-0.2,0.9-0.3C1033.6,243.6,1033.3,243.7,1033.1,243.8z M1034.9,243.2c0.3-0.1,0.6-0.2,0.9-0.3
		C1035.5,243,1035.2,243.1,1034.9,243.2z M1036.8,242.6c0.3-0.1,0.6-0.2,0.9-0.3C1037.4,242.4,1037.1,242.5,1036.8,242.6z
		 M1038.7,242.1c0.3-0.1,0.6-0.2,0.9-0.2C1039.3,241.9,1039,242,1038.7,242.1z M1040.7,241.6c0.3-0.1,0.6-0.1,0.9-0.2
		C1041.3,241.4,1041,241.5,1040.7,241.6z M1042.6,241.2c0.3-0.1,0.6-0.1,0.9-0.2C1043.2,241,1042.9,241.1,1042.6,241.2z
		 M1044.6,240.8c0.3-0.1,0.6-0.1,0.9-0.2C1045.2,240.7,1044.9,240.8,1044.6,240.8z M1046.6,240.5c0.3,0,0.6-0.1,0.9-0.1
		C1047.2,240.4,1046.9,240.5,1046.6,240.5z M1048.6,240.3c0.3,0,0.6-0.1,0.9-0.1C1049.2,240.2,1048.9,240.2,1048.6,240.3z
		 M1050.6,240.1c0.3,0,0.6,0,1-0.1C1051.2,240,1050.9,240,1050.6,240.1z M1052.6,239.9c0.3,0,0.6,0,1,0
		C1053.2,239.9,1052.9,239.9,1052.6,239.9z M1008.6,259c-0.2,0.2-0.4,0.4-0.6,0.6C1008.2,259.4,1008.4,259.2,1008.6,259z
		 M1005.3,262.5c0.2-0.2,0.4-0.4,0.5-0.6C1005.6,262.1,1005.4,262.3,1005.3,262.5z M1006.6,261.1c0.2-0.2,0.4-0.4,0.6-0.6
		C1007,260.7,1006.8,260.9,1006.6,261.1z M1009.5,258.2c0.2-0.2,0.4-0.4,0.6-0.6C1009.9,257.8,1009.7,258,1009.5,258.2z
		 M1002.7,265.6c0.1-0.2,0.2-0.3,0.4-0.4C1002.9,265.3,1002.8,265.5,1002.7,265.6z M1003.9,264.1c0.2-0.2,0.3-0.4,0.5-0.6
		C1004.3,263.7,1004.1,263.9,1003.9,264.1z M992.1,450.4c-0.6-0.3-1.2-0.6-1.8-0.9C990.9,449.8,991.5,450.1,992.1,450.4z
		 M988.8,448.7c-0.6-0.3-1.2-0.7-1.7-1C987.7,448,988.2,448.3,988.8,448.7z M985.6,446.8c-0.6-0.3-1.1-0.7-1.7-1
		C984.5,446.1,985,446.5,985.6,446.8z M995.5,365.8c3.1,5.7,7,10.8,11.5,15.4c0.1,0.1,0.1,0.1,0.2,0.2c-0.1-0.1-0.1-0.1-0.2-0.2
		C1002.5,376.6,998.6,371.5,995.5,365.8z M1008.9,457.8c-0.6-0.2-1.2-0.5-1.8-0.7C1007.7,457.3,1008.3,457.6,1008.9,457.8z
		 M1005.5,456.5c-0.6-0.2-1.2-0.5-1.8-0.7C1004.2,456,1004.8,456.3,1005.5,456.5z M1002,455.1c-0.6-0.3-1.2-0.5-1.8-0.8
		C1000.8,454.6,1001.4,454.9,1002,455.1z M998.7,453.6c-0.6-0.3-1.2-0.6-1.8-0.8C997.5,453.1,998.1,453.4,998.7,453.6z M995.3,452.1
		c-0.6-0.3-1.2-0.6-1.8-0.9C994.2,451.5,994.8,451.8,995.3,452.1z M1010.6,384.5c-0.3-0.3-0.6-0.6-0.9-0.8
		C1009.9,384,1010.3,384.2,1010.6,384.5z M1056,402.4c-0.6,0-1.1,0-1.7,0C1054.9,402.3,1055.5,402.4,1056,402.4z M1052.5,402.2
		c-0.6,0-1.1-0.1-1.7-0.1C1051.3,402.1,1051.9,402.2,1052.5,402.2z M1048.9,401.9c-0.6-0.1-1.1-0.1-1.7-0.2
		C1047.8,401.7,1048.4,401.8,1048.9,401.9z M1045.4,401.4c-0.6-0.1-1.1-0.2-1.7-0.3C1044.3,401.2,1044.9,401.3,1045.4,401.4z
		 M1042,400.7c-0.6-0.1-1.1-0.2-1.7-0.4C1040.9,400.4,1041.4,400.6,1042,400.7z M1038.6,399.8c-0.5-0.2-1.1-0.3-1.6-0.5
		C1037.5,399.5,1038,399.7,1038.6,399.8z M1035.2,398.8c-0.5-0.2-1.1-0.3-1.6-0.5C1034.1,398.5,1034.7,398.6,1035.2,398.8z
		 M1031.9,397.6c-0.5-0.2-1-0.4-1.6-0.6C1030.8,397.2,1031.3,397.4,1031.9,397.6z M1028.6,396.2c-0.5-0.2-1-0.4-1.5-0.7
		C1027.6,395.8,1028.1,396,1028.6,396.2z M1025.4,394.7c-0.5-0.3-1-0.5-1.5-0.8C1024.4,394.2,1024.9,394.5,1025.4,394.7z
		 M1022.3,393c-0.5-0.3-1-0.5-1.4-0.8C1021.4,392.5,1021.9,392.8,1022.3,393z M1019.3,391.2c-0.5-0.3-0.9-0.6-1.4-0.9
		C1018.4,390.6,1018.8,390.9,1019.3,391.2z M1016.3,389.2c-0.4-0.3-0.9-0.6-1.3-0.9C1015.5,388.6,1015.9,388.9,1016.3,389.2z
		 M1013.4,387c-0.4-0.3-0.8-0.6-1.2-0.9C1012.7,386.3,1013.1,386.6,1013.4,387z M1058.5,402.4c0.7,0,1.4,0,2.2,0
		C1060,402.4,1059.2,402.4,1058.5,402.4C1058.5,402.4,1058.5,402.4,1058.5,402.4C1058.5,402.4,1058.5,402.4,1058.5,402.4z
		 M1104.2,386.5c-0.2,0.2-0.5,0.4-0.7,0.6C1103.8,386.9,1104,386.7,1104.2,386.5z M1102.7,387.8c-0.2,0.2-0.5,0.4-0.7,0.6
		C1102.2,388.2,1102.4,388,1102.7,387.8z M1101.1,389c-0.2,0.2-0.5,0.4-0.7,0.5C1100.6,389.4,1100.8,389.2,1101.1,389z
		 M1099.5,390.2c-0.3,0.2-0.5,0.3-0.8,0.5C1098.9,390.5,1099.2,390.4,1099.5,390.2z M1097.8,391.3c-0.3,0.2-0.5,0.3-0.8,0.5
		C1097.3,391.7,1097.5,391.5,1097.8,391.3z M1096.1,392.4c-0.3,0.2-0.5,0.3-0.8,0.5C1095.6,392.7,1095.8,392.6,1096.1,392.4z
		 M1094.4,393.4c-0.3,0.2-0.5,0.3-0.8,0.4C1093.8,393.7,1094.1,393.6,1094.4,393.4z M1092.6,394.4c-0.3,0.1-0.5,0.3-0.8,0.4
		C1092.1,394.7,1092.3,394.6,1092.6,394.4z M1090.8,395.3c-0.3,0.1-0.5,0.3-0.8,0.4C1090.3,395.6,1090.5,395.5,1090.8,395.3z
		 M1089,396.2c-0.3,0.1-0.6,0.3-0.8,0.4C1088.5,396.5,1088.7,396.3,1089,396.2z M1087.2,397c-0.3,0.1-0.6,0.2-0.8,0.4
		C1086.6,397.2,1086.9,397.1,1087.2,397z M1085.3,397.8c-0.3,0.1-0.6,0.2-0.8,0.3C1084.8,398,1085,397.9,1085.3,397.8z
		 M1083.4,398.5c-0.3,0.1-0.6,0.2-0.8,0.3C1082.9,398.7,1083.1,398.6,1083.4,398.5z M1081.5,399.1c-0.3,0.1-0.6,0.2-0.9,0.3
		C1081,399.3,1081.2,399.2,1081.5,399.1z M1079.6,399.7c-0.3,0.1-0.6,0.2-0.9,0.2C1079,399.9,1079.3,399.8,1079.6,399.7z
		 M1077.6,400.3c-0.3,0.1-0.6,0.2-0.9,0.2C1077.1,400.4,1077.4,400.3,1077.6,400.3z M1075.7,400.7c-0.3,0.1-0.6,0.1-0.9,0.2
		C1075.1,400.9,1075.4,400.8,1075.7,400.7z M1073.7,401.2c-0.3,0.1-0.6,0.1-0.9,0.2C1073.1,401.3,1073.4,401.2,1073.7,401.2z
		 M1071.7,401.5c-0.3,0-0.6,0.1-0.8,0.1C1071.1,401.6,1071.4,401.6,1071.7,401.5z M1069.6,401.8c-0.3,0-0.5,0.1-0.8,0.1
		C1069.1,401.9,1069.4,401.9,1069.6,401.8z M1067.6,402.1c-0.3,0-0.5,0.1-0.8,0.1C1067,402.1,1067.3,402.1,1067.6,402.1z
		 M1065.3,402.3c-0.2,0-0.3,0-0.5,0C1064.9,402.3,1065.1,402.3,1065.3,402.3z M1062.7,402.4c-0.2,0-0.4,0-0.6,0
		C1062.3,402.4,1062.5,402.4,1062.7,402.4z M1111.5,379.4c-0.2,0.2-0.4,0.4-0.6,0.6C1111.1,379.8,1111.3,379.6,1111.5,379.4z
		 M1110.1,380.9c-0.2,0.2-0.4,0.4-0.6,0.6C1109.7,381.3,1109.9,381.1,1110.1,380.9z M1108.7,382.4c-0.2,0.2-0.4,0.4-0.6,0.6
		C1108.3,382.8,1108.5,382.6,1108.7,382.4z M1107.3,383.8c-0.2,0.2-0.4,0.4-0.7,0.6C1106.8,384.2,1107,384,1107.3,383.8z
		 M1105.8,385.2c-0.2,0.2-0.5,0.4-0.7,0.6C1105.3,385.6,1105.5,385.4,1105.8,385.2z M1115.3,374.6c1.1-1.6,2.2-3.2,3.2-4.9
		C1117.5,371.4,1116.4,373,1115.3,374.6C1115.3,374.6,1115.3,374.6,1115.3,374.6C1115.3,374.6,1115.3,374.6,1115.3,374.6z
		 M1114.1,376.2c-0.1,0.2-0.3,0.4-0.4,0.5C1113.8,376.6,1114,376.4,1114.1,376.2z M1112.8,377.8c-0.2,0.2-0.4,0.4-0.5,0.6
		C1112.5,378.3,1112.6,378.1,1112.8,377.8z M1109.6,260.8C1109.6,260.8,1109.6,260.7,1109.6,260.8
		C1109.6,260.7,1109.6,260.8,1109.6,260.8c3,3.1,5.7,6.5,8.1,10C1115.3,267.3,1112.6,263.9,1109.6,260.8z M1106.2,257.5
		c0.3,0.3,0.6,0.5,0.9,0.8C1106.8,258,1106.5,257.7,1106.2,257.5z M1057.4,176.4c18.3,0.2,36.1,4.7,52.2,12.9
		c7.3,3.7,14.3,8.2,20.7,13.4v0c-6.5-5.2-13.4-9.7-20.7-13.4C1093.6,181.1,1075.7,176.6,1057.4,176.4c-0.4,0-0.8,0-1.2,0
		C1056.6,176.4,1057,176.4,1057.4,176.4z M1034.5,178.3c-2.4,0.4-4.7,0.8-7,1.3C1029.8,179.1,1032.1,178.6,1034.5,178.3z
		 M1052.3,176.5c-2.3,0.1-4.6,0.2-6.9,0.4C1047.8,176.7,1050,176.6,1052.3,176.5z M1019.8,181.5c-3.2,0.9-6.3,1.8-9.3,2.9
		C1013.5,183.3,1016.6,182.3,1019.8,181.5z M1003,187.3c-1.8,0.8-3.6,1.5-5.4,2.4C999.3,188.8,1001.1,188,1003,187.3z M983.4,197.2
		c1.6-1,3.2-1.9,4.8-2.8C986.6,195.3,985,196.2,983.4,197.2z M982.5,444.9c-0.6-0.4-1.1-0.7-1.7-1.1
		C981.3,444.2,981.9,444.6,982.5,444.9z M958,216.9c-0.8,0.8-1.6,1.6-2.4,2.4C956.4,218.5,957.2,217.7,958,216.9z M979.4,199.7
		c-4,2.6-7.9,5.5-11.6,8.5C971.5,205.2,975.4,202.4,979.4,199.7z M964.4,211c-0.9,0.8-1.8,1.6-2.7,2.4
		C962.6,212.6,963.5,211.8,964.4,211z M946,411.8c1.8,2.2,3.7,4.4,5.6,6.5c0.8,1,1.6,1.9,2.5,2.8c-0.8-0.9-1.7-1.9-2.5-2.8
		C949.6,416.2,947.8,414,946,411.8z M934.4,395.1c2.7,4.6,5.8,9.1,9,13.4C940.2,404.2,937.2,399.8,934.4,395.1z M954.9,422
		c0.6,0.6,1.2,1.3,1.8,1.9C956,423.2,955.5,422.6,954.9,422z M957.6,424.9c0.5,0.5,1.1,1.1,1.6,1.6
		C958.7,426,958.2,425.4,957.6,424.9z M979.4,442.9c-0.6-0.4-1.1-0.8-1.7-1.1C978.3,442.2,978.8,442.5,979.4,442.9z M976.3,440.8
		c-0.6-0.4-1.1-0.8-1.6-1.2C975.2,440,975.8,440.4,976.3,440.8z M973.3,438.6c-0.5-0.4-1.1-0.8-1.6-1.2
		C972.3,437.8,972.8,438.2,973.3,438.6z M970.4,436.4c-0.5-0.4-1.1-0.9-1.6-1.3C969.3,435.5,969.9,436,970.4,436.4z M967.5,434
		c-0.5-0.4-1.1-0.9-1.6-1.4C966.5,433.1,967,433.6,967.5,434z M964.7,431.6c-0.5-0.5-1-0.9-1.6-1.4
		C963.7,430.7,964.2,431.1,964.7,431.6z M961.9,429.1c-0.5-0.5-1.1-1-1.6-1.5C960.9,428.1,961.4,428.6,961.9,429.1z M1010.5,458.4
		c0.6,0.2,1.2,0.4,1.9,0.6C1011.8,458.8,1011.1,458.6,1010.5,458.4z M1014,459.5c0.6,0.2,1.2,0.4,1.9,0.6
		C1015.3,459.9,1014.7,459.7,1014,459.5z M1017.6,460.6c0.6,0.2,1.2,0.4,1.9,0.5C1018.8,460.9,1018.2,460.8,1017.6,460.6z
		 M1021.1,461.5c0.6,0.2,1.3,0.3,1.9,0.5C1022.4,461.9,1021.8,461.7,1021.1,461.5z M1024.7,462.4c0.6,0.1,1.3,0.3,1.9,0.4
		C1026,462.7,1025.4,462.6,1024.7,462.4z M1028.4,463.2c0.6,0.1,1.3,0.2,1.9,0.4C1029.6,463.4,1029,463.3,1028.4,463.2z M1032,463.9
		c0.6,0.1,1.3,0.2,1.9,0.3C1033.3,464.1,1032.6,464,1032,463.9z M1035.7,464.4c0.6,0.1,1.3,0.2,1.9,0.3
		C1036.9,464.6,1036.3,464.5,1035.7,464.4z M1039.4,464.9c0.6,0.1,1.3,0.1,1.9,0.2C1040.6,465.1,1040,465,1039.4,464.9z
		 M1043.1,465.3c0.6,0.1,1.3,0.1,1.9,0.2C1044.3,465.4,1043.7,465.4,1043.1,465.3z M1046.8,465.6c0.6,0,1.3,0.1,1.9,0.1
		C1048.1,465.7,1047.4,465.6,1046.8,465.6z M1050.5,465.8c0.6,0,1.3,0,1.9,0C1051.8,465.8,1051.2,465.8,1050.5,465.8z M1105.1,455.1
		c-14.9,6.8-31.2,10.5-47.8,10.7c-0.8,0-1.5,0-2.3,0c-0.3,0-0.5,0-0.8,0c1,0,2,0,3.1,0C1074,465.6,1090.2,461.9,1105.1,455.1
		c3-1.4,5.9-2.9,8.8-4.5C1111.1,452.2,1108.1,453.7,1105.1,455.1z M1200,456.8L1200,456.8l0.1-271.5h-69.7v0h69.7L1200,456.8z"/>
	<path class="st0" d="M1618.6,45.5l-0.3,0c-0.2,0-0.5,0-0.7,0c-12.8,0-24.9,4.9-34.2,13.7c-9.3,8.7-14.6,21-14.4,33.8
		c-0.3,13,4.9,25.5,14.4,34.4c8.7,8.9,20.9,14,33.4,14c0.3,0,0.6,0,0.9,0c0.3,0,0.5,0,0.8,0c12.8,0,24.8-5,33.9-14
		c9.1-8.9,14.3-21.3,14.1-34.1c0.1-12.6-5-24.9-14.1-33.7C1643.5,50.6,1631.2,45.5,1618.6,45.5z M1618.3,50.5c0.1,0,0.2,0,0.3,0
		c0.3,0,0.6,0,1,0C1619.1,50.5,1618.7,50.5,1618.3,50.5c-0.5,0-1,0-1.5,0c0.3,0,0.5,0,0.8,0C1617.9,50.5,1618.1,50.5,1618.3,50.5z
		 M1648.8,63.1c-0.5-0.5-1-1-1.5-1.5C1647.8,62.1,1648.3,62.5,1648.8,63.1z M1646.7,61.1c-0.3-0.3-0.7-0.6-1-0.9
		C1646,60.5,1646.4,60.8,1646.7,61.1z M1645,59.7c-0.3-0.3-0.7-0.5-1-0.8C1644.3,59.1,1644.7,59.4,1645,59.7z M1643.3,58.4
		c-0.3-0.2-0.7-0.5-1-0.7C1642.6,57.9,1643,58.1,1643.3,58.4z M1641.5,57.2c-0.3-0.2-0.7-0.4-1-0.7
		C1640.8,56.8,1641.2,57,1641.5,57.2z M1639.7,56.1c-0.4-0.2-0.7-0.4-1.1-0.6C1639,55.7,1639.4,55.9,1639.7,56.1z M1637.9,55.1
		c-0.4-0.2-0.7-0.4-1.1-0.5C1637.2,54.7,1637.5,54.9,1637.9,55.1z M1636,54.2c-0.4-0.2-0.7-0.3-1.1-0.5
		C1635.3,53.9,1635.6,54,1636,54.2z M1634,53.4c-0.4-0.1-0.7-0.3-1.1-0.4C1633.3,53.1,1633.7,53.2,1634,53.4z M1632.1,52.7
		c-0.4-0.1-0.7-0.3-1.1-0.4C1631.3,52.4,1631.7,52.6,1632.1,52.7z M1630.1,52.1c-0.4-0.1-0.8-0.2-1.1-0.3
		C1629.3,51.8,1629.7,52,1630.1,52.1z M1628,51.5c-0.4-0.1-0.7-0.2-1.1-0.2C1627.2,51.4,1627.6,51.5,1628,51.5z M1625.9,51.1
		c-0.4-0.1-0.7-0.1-1.1-0.2C1625.2,51,1625.5,51.1,1625.9,51.1z M1623.8,50.8c-0.4,0-0.7-0.1-1.1-0.1
		C1623.1,50.7,1623.4,50.8,1623.8,50.8z M1621.7,50.6c-0.4,0-0.7-0.1-1.1-0.1C1621,50.5,1621.3,50.6,1621.7,50.6z M1586.9,62.8
		c0.5-0.5,1.1-1,1.6-1.5C1587.9,61.8,1587.4,62.3,1586.9,62.8c-7.8,7.3-12.4,17.4-12.8,28.1C1574.4,80.2,1579,70.1,1586.9,62.8z
		 M1615.8,50.5c-0.4,0-0.7,0-1.1,0.1C1615.1,50.6,1615.4,50.5,1615.8,50.5z M1613.7,50.7c-0.4,0-0.7,0.1-1.1,0.1
		C1612.9,50.7,1613.3,50.7,1613.7,50.7z M1611.5,50.9c-0.4,0.1-0.7,0.1-1.1,0.2C1610.8,51,1611.2,50.9,1611.5,50.9z M1609.4,51.2
		c-0.4,0.1-0.7,0.1-1.1,0.2C1608.7,51.4,1609.1,51.3,1609.4,51.2z M1607.3,51.7c-0.4,0.1-0.7,0.2-1.1,0.3
		C1606.6,51.9,1607,51.8,1607.3,51.7z M1605.3,52.2c-0.3,0.1-0.7,0.2-1,0.3C1604.6,52.4,1604.9,52.3,1605.3,52.2z M1603.2,52.9
		c-0.3,0.1-0.7,0.2-1,0.4C1602.5,53.1,1602.9,53,1603.2,52.9z M1601.2,53.6c-0.3,0.1-0.7,0.3-1,0.4
		C1600.6,53.9,1600.9,53.7,1601.2,53.6z M1599.3,54.4c-0.3,0.2-0.7,0.3-1,0.5C1598.6,54.7,1598.9,54.6,1599.3,54.4z M1597.4,55.3
		c-0.3,0.2-0.7,0.4-1,0.5C1596.7,55.7,1597,55.5,1597.4,55.3z M1595.5,56.4c-0.3,0.2-0.7,0.4-1,0.6
		C1594.8,56.8,1595.2,56.6,1595.5,56.4z M1593.7,57.5c-0.3,0.2-0.7,0.4-1,0.7C1593,57.9,1593.3,57.7,1593.7,57.5z M1591.9,58.7
		c-0.3,0.2-0.7,0.5-1,0.8C1591.2,59.2,1591.5,58.9,1591.9,58.7z M1590.2,59.9c-0.4,0.3-0.8,0.6-1.1,0.9
		C1589.4,60.6,1589.8,60.2,1590.2,59.9z M1578.4,112.3c0.5,1.1,1.1,2.1,1.7,3.1C1579.5,114.4,1578.9,113.4,1578.4,112.3z
		 M1581.3,117.2c1.6,2.4,3.5,4.5,5.6,6.5c0.5,0.5,1,1,1.5,1.5c-0.5-0.5-1-1-1.5-1.5C1584.8,121.7,1582.9,119.6,1581.3,117.2z
		 M1617.7,136.3c-0.3,0-0.6,0-0.9,0c-0.2,0-0.4,0-0.6,0C1616.6,136.3,1617.2,136.3,1617.7,136.3c0.5,0,1,0,1.5,0c-0.2,0-0.5,0-0.7,0
		C1618.2,136.3,1617.9,136.3,1617.7,136.3z M1588.9,125.7c0.4,0.3,0.7,0.6,1.1,1C1589.6,126.3,1589.3,126,1588.9,125.7z
		 M1590.7,127.1c0.3,0.3,0.7,0.5,1,0.8C1591.3,127.7,1591,127.4,1590.7,127.1z M1592.4,128.4c0.3,0.2,0.7,0.5,1,0.7
		C1593.1,128.9,1592.7,128.7,1592.4,128.4z M1594.2,129.7c0.3,0.2,0.7,0.4,1,0.6C1594.8,130.1,1594.5,129.9,1594.2,129.7z
		 M1596,130.8c0.3,0.2,0.7,0.4,1,0.6C1596.6,131.2,1596.3,131,1596,130.8z M1597.8,131.8c0.3,0.2,0.7,0.4,1,0.5
		C1598.5,132.1,1598.2,131.9,1597.8,131.8z M1599.7,132.7c0.3,0.2,0.7,0.3,1,0.5C1600.4,133,1600.1,132.8,1599.7,132.7z
		 M1601.7,133.5c0.4,0.1,0.7,0.3,1.1,0.4C1602.4,133.8,1602,133.6,1601.7,133.5z M1603.7,134.2c0.4,0.1,0.7,0.2,1.1,0.3
		C1604.4,134.4,1604,134.3,1603.7,134.2z M1605.7,134.8c0.4,0.1,0.7,0.2,1.1,0.3C1606.4,135,1606,134.9,1605.7,134.8z M1607.7,135.3
		c0.4,0.1,0.7,0.2,1.1,0.2C1608.4,135.5,1608.1,135.4,1607.7,135.3z M1609.8,135.7c0.4,0.1,0.7,0.1,1.1,0.2
		C1610.5,135.8,1610.1,135.8,1609.8,135.7z M1611.9,136c0.4,0,0.7,0.1,1.1,0.1C1612.6,136.1,1612.2,136.1,1611.9,136z M1614,136.2
		c0.4,0,0.7,0,1.1,0.1C1614.7,136.3,1614.4,136.2,1614,136.2z M1648.8,123.7c-0.5,0.5-1,1-1.6,1.5
		C1647.8,124.7,1648.3,124.2,1648.8,123.7c0.5-0.5,1-1,1.5-1.5C1649.8,122.7,1649.3,123.2,1648.8,123.7z M1620.2,136.3
		c0.4,0,0.7,0,1.1-0.1C1621,136.2,1620.6,136.3,1620.2,136.3z M1622.4,136.1c0.4,0,0.7-0.1,1.1-0.1
		C1623.1,136.1,1622.7,136.1,1622.4,136.1z M1624.5,135.9c0.4-0.1,0.7-0.1,1.1-0.2C1625.2,135.8,1624.8,135.8,1624.5,135.9z
		 M1626.6,135.5c0.4-0.1,0.7-0.2,1.1-0.2C1627.3,135.4,1626.9,135.5,1626.6,135.5z M1628.7,135.1c0.4-0.1,0.7-0.2,1.1-0.3
		C1629.4,134.9,1629,135,1628.7,135.1z M1630.7,134.5c0.4-0.1,0.7-0.2,1.1-0.3C1631.4,134.3,1631.1,134.4,1630.7,134.5z
		 M1632.7,133.9c0.4-0.1,0.7-0.3,1.1-0.4C1633.4,133.6,1633.1,133.7,1632.7,133.9z M1634.7,133.1c0.4-0.1,0.7-0.3,1-0.5
		C1635.4,132.8,1635,133,1634.7,133.1z M1636.6,132.3c0.3-0.2,0.7-0.3,1-0.5C1637.3,131.9,1637,132.1,1636.6,132.3z M1638.5,131.3
		c0.3-0.2,0.7-0.4,1-0.6C1639.2,130.9,1638.9,131.1,1638.5,131.3z M1640.4,130.3c0.3-0.2,0.7-0.4,1-0.6
		C1641.1,129.9,1640.7,130.1,1640.4,130.3z M1642.2,129.2c0.3-0.2,0.7-0.5,1-0.7C1642.9,128.7,1642.5,128.9,1642.2,129.2z
		 M1643.9,127.9c0.3-0.3,0.7-0.5,1-0.8C1644.6,127.4,1644.3,127.7,1643.9,127.9z M1645.6,126.6c0.4-0.3,0.7-0.6,1.1-0.9
		C1646.4,126,1646,126.3,1645.6,126.6z M1652,120.3c1.3-1.5,2.4-3.1,3.4-4.8C1654.4,117.1,1653.2,118.7,1652,120.3z M1661.4,95.4
		c-0.1,2.1-0.3,4.3-0.7,6.3c-0.3,1.4-0.6,2.8-1,4.1c0.4-1.3,0.7-2.7,1-4.1C1661,99.6,1661.3,97.5,1661.4,95.4c0-0.7,0-1.4,0-2.1l0,0
		C1661.4,94,1661.4,94.7,1661.4,95.4z M1658.9,78.8c-0.5-1.3-1-2.6-1.6-3.9C1657.9,76.2,1658.4,77.5,1658.9,78.8z"/>
	<path class="st0" d="M1651.9,180.3h-69.5c-2.8,0-5,2.2-5,5V468c-0.4,12.7-6.1,54.1-63.6,57.8c-2.6,0.2-4.7,2.4-4.7,5V598
		c0,1.3,0.5,2.6,1.5,3.6c0.9,0.9,2.2,1.4,3.5,1.4c0,0,0.1,0,0.1,0c1.4,0,34.5-0.8,68.8-16.8c20.3-9.5,36.8-22.4,48.9-38.4
		c15.2-20,23.6-44.7,24.9-73.6c0-0.1,0-0.2,0-0.2V185.3C1656.9,182.5,1654.7,180.3,1651.9,180.3z M1582.5,185.3h69.5v0L1582.5,185.3
		L1582.5,185.3z M1578.1,489.8c-0.1,0.2-0.2,0.5-0.3,0.7C1577.9,490.3,1578,490.1,1578.1,489.8z M1577.1,492.3
		c-0.1,0.3-0.2,0.5-0.3,0.8C1576.8,492.9,1577,492.6,1577.1,492.3z M1570.6,503.9c-1.1,1.5-2.2,2.9-3.5,4.3
		C1568.4,506.8,1569.5,505.3,1570.6,503.9z M1558.1,516.5c1.5-1.1,2.9-2.3,4.2-3.4c0.4-0.4,0.9-0.8,1.3-1.2
		c-0.4,0.4-0.9,0.8-1.3,1.2C1561,514.3,1559.6,515.4,1558.1,516.5c-1,0.7-2,1.5-3.1,2.2C1556,518,1557.1,517.2,1558.1,516.5z
		 M1549.8,521.7c1.2-0.6,2.4-1.3,3.5-2C1552.2,520.4,1551,521,1549.8,521.7c-1.2,0.6-2.5,1.2-3.8,1.8
		C1547.3,522.9,1548.6,522.3,1549.8,521.7z"/>
	<path class="st0" d="M679,180.3h-69.7c-2.8,0-5,2.2-5,5v7.4c-19.9-13.6-43.7-21.1-67.9-21.4c0,0,0,0-0.1,0c-0.4,0-0.8,0-1.2,0
		c-39.5,0.4-76.5,16.2-104.2,44.4c-27.6,28.2-42.7,65.5-42.3,105c-0.7,37.4,12.9,73.2,38,100.8c26.9,31.3,66,49.2,107.2,49.2
		c0.8,0,1.6,0,2.5,0c24.2-0.3,47.9-7.8,67.9-21.4v7.4c0,2.8,2.2,5,5,5H679c2.8,0,5-2.2,5-5V185.3C684,182.5,681.8,180.3,679,180.3z
		 M605.2,320.8c0.7,18-4.6,36.1-14.9,50.9c-11.7,16.1-30.6,25.7-50.5,25.7c-0.7,0-1.4,0-2,0c-0.1,0-0.1,0-0.2,0c0,0-0.1,0-0.1,0
		c-0.4,0-0.8,0-1.1,0c-17.4,0-34.4-7.2-46.6-19.7c0,0,0,0-0.1-0.1c-13.5-13.5-20.4-32.6-20.4-56.9c0-20.7,5.1-37.6,15.1-50.4
		c0,0,0.1-0.1,0.1-0.1c11.8-15.9,30.7-25.4,50.5-25.4c0.4,0,0.9,0,1.3,0c0,0,0.1,0,0.1,0c0.1,0,0.1,0,0.2,0c0.9,0,1.8-0.1,2.7-0.1
		c17.2,0,33.9,7.1,45.8,19.5c13.3,13.9,20.1,32.8,20.1,56.3C605.2,320.6,605.2,320.7,605.2,320.8z M480.5,267.3
		c-3.8,4.9-7,10.3-9.4,16.3C473.5,277.6,476.6,272.2,480.5,267.3c0.1-0.1,0.1-0.2,0.2-0.2C480.6,267.1,480.5,267.2,480.5,267.3z
		 M481.7,265.6c0.2-0.2,0.3-0.4,0.5-0.6C482,265.2,481.9,265.4,481.7,265.6z M483,264.1c0.2-0.2,0.4-0.4,0.5-0.6
		C483.3,263.7,483.2,263.9,483,264.1z M484.3,262.5c0.2-0.2,0.4-0.4,0.6-0.6C484.7,262.1,484.5,262.3,484.3,262.5z M485.7,261.1
		c0.2-0.2,0.4-0.4,0.6-0.6C486.1,260.6,485.9,260.8,485.7,261.1z M487.1,259.6c0.2-0.2,0.4-0.4,0.6-0.6
		C487.5,259.2,487.3,259.4,487.1,259.6z M488.5,258.2c0.2-0.2,0.4-0.4,0.7-0.6C489,257.8,488.7,258,488.5,258.2z M490,256.9
		c0.2-0.2,0.5-0.4,0.7-0.6C490.5,256.5,490.2,256.7,490,256.9z M491.5,255.6c0.2-0.2,0.5-0.4,0.7-0.6
		C492,255.2,491.7,255.4,491.5,255.6z M493.1,254.3c0.2-0.2,0.5-0.4,0.7-0.5C493.5,254,493.3,254.1,493.1,254.3z M494.7,253.1
		c0.2-0.2,0.5-0.4,0.7-0.5C495.1,252.8,494.9,252.9,494.7,253.1z M496.3,252c0.2-0.2,0.5-0.3,0.7-0.5
		C496.8,251.6,496.5,251.8,496.3,252z M497.9,250.9c0.3-0.2,0.5-0.3,0.8-0.5C498.4,250.5,498.2,250.7,497.9,250.9z M499.6,249.8
		c0.3-0.2,0.5-0.3,0.8-0.5C500.1,249.5,499.9,249.6,499.6,249.8z M501.3,248.8c0.3-0.1,0.5-0.3,0.8-0.4
		C501.8,248.5,501.6,248.6,501.3,248.8z M503.1,247.8c0.3-0.1,0.5-0.3,0.8-0.4C503.6,247.5,503.3,247.7,503.1,247.8z M504.8,246.9
		c0.3-0.1,0.5-0.3,0.8-0.4C505.4,246.7,505.1,246.8,504.8,246.9z M506.6,246.1c0.3-0.1,0.6-0.2,0.8-0.4
		C507.2,245.8,506.9,245.9,506.6,246.1z M508.4,245.3c0.3-0.1,0.6-0.2,0.8-0.4C509,245,508.7,245.1,508.4,245.3z M510.3,244.5
		c0.3-0.1,0.6-0.2,0.9-0.3C510.8,244.3,510.5,244.4,510.3,244.5z M512.1,243.8c0.3-0.1,0.6-0.2,0.9-0.3
		C512.7,243.6,512.4,243.7,512.1,243.8z M514,243.2c0.3-0.1,0.6-0.2,0.9-0.3C514.6,243,514.3,243.1,514,243.2z M515.9,242.6
		c0.3-0.1,0.6-0.2,0.9-0.3C516.5,242.4,516.2,242.5,515.9,242.6z M517.8,242.1c0.3-0.1,0.6-0.2,0.9-0.2
		C518.4,241.9,518.1,242,517.8,242.1z M519.7,241.6c0.3-0.1,0.6-0.1,0.9-0.2C520.4,241.4,520.1,241.5,519.7,241.6z M521.7,241.2
		c0.3-0.1,0.6-0.1,0.9-0.2C522.3,241,522,241.1,521.7,241.2z M523.7,240.8c0.3-0.1,0.6-0.1,0.9-0.2
		C524.3,240.7,524,240.8,523.7,240.8z M525.6,240.5c0.3,0,0.6-0.1,0.9-0.1C526.3,240.4,526,240.5,525.6,240.5z M527.6,240.3
		c0.3,0,0.6-0.1,1-0.1C528.3,240.2,528,240.2,527.6,240.3z M529.6,240.1c0.3,0,0.6,0,1-0.1C530.3,240,530,240,529.6,240.1z
		 M531.7,239.9c0.3,0,0.6,0,1,0C532.3,239.9,532,239.9,531.7,239.9z M533.7,239.9c0.3,0,0.6,0,1,0
		C534.3,239.9,534,239.9,533.7,239.9z M539.7,239.8c0.5,0,1.1,0,1.6,0C540.7,239.8,540.2,239.8,539.7,239.8z M543.3,239.9
		c0.5,0,1.1,0.1,1.6,0.1C544.3,240,543.8,240,543.3,239.9z M546.8,240.2c0.5,0.1,1.1,0.1,1.6,0.2
		C547.9,240.4,547.3,240.3,546.8,240.2z M550.3,240.7c0.5,0.1,1.1,0.2,1.6,0.3C551.4,240.9,550.8,240.8,550.3,240.7z M553.8,241.4
		c0.5,0.1,1.1,0.2,1.6,0.4C554.9,241.6,554.3,241.5,553.8,241.4z M557.2,242.2c0.5,0.1,1.1,0.3,1.6,0.5
		C558.3,242.5,557.7,242.3,557.2,242.2z M560.6,243.2c0.5,0.2,1.1,0.4,1.6,0.5C561.6,243.5,561.1,243.4,560.6,243.2z M563.9,244.4
		c0.5,0.2,1,0.4,1.6,0.6C564.9,244.8,564.4,244.6,563.9,244.4z M567.1,245.7c0.5,0.2,1,0.5,1.5,0.7
		C568.2,246.2,567.7,245.9,567.1,245.7z M570.3,247.2c0.5,0.2,1,0.5,1.5,0.8C571.3,247.7,570.8,247.5,570.3,247.2z M573.5,248.9
		c0.5,0.3,0.9,0.5,1.4,0.8C574.4,249.5,573.9,249.2,573.5,248.9z M576.5,250.8c0.4,0.3,0.9,0.6,1.3,0.9
		C577.4,251.3,576.9,251.1,576.5,250.8z M579.5,252.8c0.4,0.3,0.8,0.6,1.3,0.9C580.3,253.4,579.9,253.1,579.5,252.8z M582.4,255
		c0.4,0.3,0.8,0.6,1.1,0.9C583.1,255.6,582.7,255.3,582.4,255z M464.6,330.1c-0.2-3-0.3-6.1-0.3-9.3
		C464.3,324,464.4,327.1,464.6,330.1z M464.6,446.8c-0.6-0.3-1.1-0.7-1.7-1C463.4,446.2,464,446.5,464.6,446.8z M467.3,347.2
		c-0.7-2.7-1.2-5.5-1.7-8.3C466.1,341.7,466.7,344.5,467.3,347.2c3.4,13.5,9.6,24.8,18.8,34c0,0,0.1,0.1,0.1,0.1
		c0,0-0.1-0.1-0.1-0.1C477,372,470.7,360.7,467.3,347.2z M487.9,457.8c-0.6-0.2-1.2-0.4-1.8-0.7
		C486.7,457.3,487.3,457.6,487.9,457.8z M484.4,456.5c-0.6-0.2-1.2-0.5-1.8-0.7C483.2,456,483.8,456.3,484.4,456.5z M481,455.1
		c-0.6-0.3-1.2-0.5-1.8-0.8C479.8,454.6,480.4,454.9,481,455.1z M477.7,453.6c-0.6-0.3-1.2-0.6-1.8-0.8
		C476.5,453.1,477.1,453.4,477.7,453.6z M474.3,452.1c-0.6-0.3-1.2-0.6-1.8-0.9C473.1,451.5,473.7,451.8,474.3,452.1z M471,450.4
		c-0.6-0.3-1.2-0.6-1.7-0.9C469.9,449.8,470.4,450.1,471,450.4z M467.8,448.7c-0.6-0.3-1.1-0.6-1.7-1
		C466.6,448,467.2,448.4,467.8,448.7z M464.9,308.5c0.2-2.2,0.5-4.3,0.9-6.4C465.4,304.1,465.2,306.3,464.9,308.5z M489.6,384.5
		c-0.3-0.3-0.6-0.5-0.9-0.8C489,384,489.3,384.2,489.6,384.5z M535.1,402.4c-0.6,0-1.1,0-1.7,0C534,402.3,534.5,402.4,535.1,402.4z
		 M531.5,402.2c-0.6,0-1.1-0.1-1.7-0.1C530.4,402.1,531,402.2,531.5,402.2z M528,401.9c-0.6-0.1-1.1-0.1-1.7-0.2
		C526.9,401.7,527.4,401.8,528,401.9z M524.5,401.4c-0.6-0.1-1.1-0.2-1.7-0.3C523.4,401.2,523.9,401.3,524.5,401.4z M521,400.7
		c-0.6-0.1-1.1-0.2-1.7-0.4C519.9,400.4,520.5,400.6,521,400.7z M517.6,399.8c-0.5-0.2-1.1-0.3-1.6-0.5
		C516.5,399.5,517.1,399.7,517.6,399.8z M514.3,398.8c-0.5-0.2-1.1-0.3-1.6-0.5C513.2,398.4,513.7,398.6,514.3,398.8z M510.9,397.6
		c-0.5-0.2-1-0.4-1.6-0.6C509.9,397.2,510.4,397.4,510.9,397.6z M507.7,396.2c-0.5-0.2-1-0.5-1.5-0.7
		C506.7,395.8,507.2,396,507.7,396.2z M504.5,394.7c-0.5-0.3-1-0.5-1.5-0.8C503.5,394.2,504,394.5,504.5,394.7z M501.4,393
		c-0.5-0.3-1-0.5-1.4-0.8C500.5,392.5,500.9,392.8,501.4,393z M498.4,391.2c-0.5-0.3-0.9-0.6-1.3-0.9
		C497.5,390.6,497.9,390.9,498.4,391.2z M495.4,389.1c-0.4-0.3-0.8-0.6-1.3-0.9C494.6,388.6,495,388.8,495.4,389.1z M492.5,386.9
		c-0.4-0.3-0.8-0.6-1.1-0.9C491.8,386.3,492.1,386.6,492.5,386.9z M537.6,402.4c0.7,0,1.4,0,2.2,0
		C539,402.4,538.3,402.4,537.6,402.4C537.6,402.4,537.6,402.4,537.6,402.4C537.6,402.4,537.6,402.4,537.6,402.4z M583.3,386.5
		c-0.2,0.2-0.5,0.4-0.7,0.6C582.8,386.9,583.1,386.7,583.3,386.5z M581.7,387.8c-0.2,0.2-0.5,0.4-0.7,0.6
		C581.2,388.2,581.5,388,581.7,387.8z M580.1,389c-0.2,0.2-0.5,0.4-0.7,0.5C579.6,389.4,579.9,389.2,580.1,389z M578.5,390.2
		c-0.2,0.2-0.5,0.3-0.8,0.5C578,390.5,578.2,390.4,578.5,390.2z M576.8,391.3c-0.3,0.2-0.5,0.3-0.8,0.5
		C576.3,391.7,576.6,391.5,576.8,391.3z M575.1,392.4c-0.3,0.2-0.5,0.3-0.8,0.5C574.6,392.7,574.9,392.6,575.1,392.4z M573.4,393.4
		c-0.3,0.2-0.5,0.3-0.8,0.4C572.9,393.7,573.1,393.6,573.4,393.4z M571.6,394.4c-0.3,0.1-0.5,0.3-0.8,0.4
		C571.1,394.7,571.4,394.6,571.6,394.4z M569.9,395.3c-0.3,0.1-0.5,0.3-0.8,0.4C569.3,395.6,569.6,395.5,569.9,395.3z M568.1,396.2
		c-0.3,0.1-0.5,0.3-0.8,0.4C567.5,396.5,567.8,396.3,568.1,396.2z M566.2,397c-0.3,0.1-0.6,0.2-0.8,0.3
		C565.7,397.2,565.9,397.1,566.2,397z M564.4,397.8c-0.3,0.1-0.6,0.2-0.8,0.3C563.8,398,564.1,397.9,564.4,397.8z M562.5,398.5
		c-0.3,0.1-0.6,0.2-0.8,0.3C561.9,398.7,562.2,398.6,562.5,398.5z M560.6,399.1c-0.3,0.1-0.6,0.2-0.9,0.3
		C560,399.3,560.3,399.2,560.6,399.1z M558.6,399.7c-0.3,0.1-0.6,0.2-0.9,0.2C558.1,399.9,558.4,399.8,558.6,399.7z M556.7,400.3
		c-0.3,0.1-0.6,0.2-0.9,0.2C556.1,400.4,556.4,400.3,556.7,400.3z M554.7,400.7c-0.3,0.1-0.6,0.1-0.9,0.2
		C554.1,400.9,554.4,400.8,554.7,400.7z M552.7,401.2c-0.3,0.1-0.6,0.1-0.8,0.2C552.2,401.3,552.4,401.2,552.7,401.2z M550.7,401.5
		c-0.3,0-0.6,0.1-0.8,0.1C550.2,401.6,550.4,401.6,550.7,401.5z M548.7,401.8c-0.3,0-0.5,0.1-0.8,0.1
		C548.1,401.9,548.4,401.9,548.7,401.8z M546.6,402.1c-0.3,0-0.5,0.1-0.8,0.1C546.1,402.1,546.3,402.1,546.6,402.1z M544.3,402.3
		c-0.2,0-0.3,0-0.5,0C544,402.3,544.1,402.3,544.3,402.3z M541.8,402.4c-0.2,0-0.4,0-0.6,0C541.4,402.4,541.6,402.4,541.8,402.4z
		 M590.5,379.4c-0.2,0.2-0.4,0.4-0.6,0.6C590.1,379.8,590.3,379.6,590.5,379.4z M589.2,380.9c-0.2,0.2-0.4,0.4-0.6,0.6
		C588.8,381.3,589,381.1,589.2,380.9z M587.7,382.4c-0.2,0.2-0.4,0.4-0.6,0.6C587.3,382.8,587.5,382.6,587.7,382.4z M586.3,383.8
		c-0.2,0.2-0.4,0.4-0.7,0.6C585.9,384.2,586.1,384,586.3,383.8z M584.8,385.2c-0.2,0.2-0.5,0.4-0.7,0.6
		C584.4,385.6,584.6,385.4,584.8,385.2z M593.1,376.2c-0.1,0.2-0.3,0.3-0.4,0.5C592.9,376.6,593,376.4,593.1,376.2z M591.9,377.8
		c-0.2,0.2-0.3,0.4-0.5,0.6C591.5,378.2,591.7,378.1,591.9,377.8z M606.7,348.9c-0.7,2.3-1.4,4.5-2.3,6.8s-1.8,4.4-2.8,6.6
		c1-2.1,2-4.3,2.8-6.6C605.3,353.4,606.1,351.2,606.7,348.9c1.7-5.8,2.8-11.9,3.3-18C609.6,337,608.5,343,606.7,348.9z M588.7,260.8
		L588.7,260.8c2,2.1,3.9,4.3,5.6,6.7C592.6,265.1,590.8,262.9,588.7,260.8z M585.3,257.5c0.3,0.3,0.6,0.5,0.9,0.8
		C585.9,258,585.6,257.7,585.3,257.5z M589.2,189.6c4.6,2.4,9.1,5.1,13.3,8.1C598.3,194.6,593.8,191.9,589.2,189.6z M536.4,176.4
		c18.3,0.2,36.1,4.7,52.2,12.9C572.5,181,554.7,176.6,536.4,176.4c-0.3,0-0.5,0-0.8,0C535.9,176.4,536.1,176.4,536.4,176.4z
		 M461.4,444.9c-0.6-0.4-1.1-0.7-1.7-1.1C460.3,444.2,460.9,444.6,461.4,444.9z M458.3,442.9c-0.6-0.4-1.1-0.8-1.7-1.1
		C457.2,442.2,457.8,442.5,458.3,442.9z M455.3,440.8c-0.6-0.4-1.1-0.8-1.6-1.2C454.2,440,454.7,440.4,455.3,440.8z M452.3,438.6
		c-0.5-0.4-1.1-0.8-1.6-1.2C451.2,437.8,451.8,438.2,452.3,438.6z M449.4,436.4c-0.5-0.4-1.1-0.9-1.6-1.3
		C448.3,435.5,448.8,436,449.4,436.4z M446.5,434c-0.5-0.4-1.1-0.9-1.6-1.4C445.4,433.1,445.9,433.6,446.5,434z M441.8,212.4
		c-2.5,2.2-4.9,4.5-7.2,6.9C436.9,216.9,439.3,214.6,441.8,212.4z M434.6,219.3c0,0-0.1,0.1-0.1,0.1
		C434.5,219.4,434.5,219.3,434.6,219.3z M404,376.2c-7-17.4-10.6-36.2-10.3-55.3c-0.4-35.8,12.4-68.6,33.9-93.9
		c1.1-1.3,2.3-2.6,3.5-3.9c-1.2,1.3-2.3,2.6-3.5,3.9c-21.5,25.3-34.3,58.1-33.9,93.9C393.4,339.9,397,358.8,404,376.2
		c2.1,5.1,4.4,10.1,7.1,15C408.5,386.3,406.1,381.3,404,376.2z M412.8,394c1.1,1.9,2.3,3.8,3.5,5.7C415,397.9,413.9,396,412.8,394z
		 M433.8,422c0.6,0.6,1.1,1.2,1.7,1.9C435,423.2,434.4,422.6,433.8,422z M430.5,418.3c0.8,1,1.7,1.9,2.5,2.8
		C432.2,420.2,431.3,419.2,430.5,418.3z M436.6,424.9c0.5,0.5,1.1,1.1,1.6,1.6C437.7,426,437.1,425.4,436.6,424.9z M443.7,431.6
		c-0.5-0.5-1-0.9-1.6-1.4C442.6,430.7,443.1,431.2,443.7,431.6z M440.9,429.1c-0.5-0.5-1-1-1.6-1.5
		C439.9,428.1,440.4,428.6,440.9,429.1z M489.5,458.4c0.6,0.2,1.2,0.4,1.8,0.6C490.7,458.8,490.1,458.6,489.5,458.4z M493,459.5
		c0.6,0.2,1.2,0.4,1.9,0.6C494.3,459.9,493.6,459.7,493,459.5z M496.6,460.6c0.6,0.2,1.2,0.4,1.9,0.5
		C497.8,460.9,497.2,460.8,496.6,460.6z M500.1,461.6c0.6,0.2,1.3,0.3,1.9,0.5C501.4,461.9,500.8,461.7,500.1,461.6z M503.7,462.4
		c0.6,0.1,1.3,0.3,1.9,0.4C505,462.7,504.4,462.6,503.7,462.4z M507.3,463.2c0.6,0.1,1.3,0.2,1.9,0.4
		C508.6,463.4,508,463.3,507.3,463.2z M511,463.9c0.6,0.1,1.3,0.2,1.9,0.3C512.3,464.1,511.6,464,511,463.9z M514.7,464.5
		c0.6,0.1,1.3,0.2,1.9,0.3C515.9,464.6,515.3,464.5,514.7,464.5z M518.4,464.9c0.6,0.1,1.3,0.1,1.9,0.2
		C519.6,465.1,519,465,518.4,464.9z M522.1,465.3c0.6,0.1,1.3,0.1,1.9,0.2C523.3,465.4,522.7,465.4,522.1,465.3z M525.8,465.6
		c0.6,0,1.3,0.1,1.9,0.1C527.1,465.7,526.4,465.6,525.8,465.6z M529.5,465.8c0.6,0,1.3,0,1.9,0C530.8,465.8,530.2,465.8,529.5,465.8
		z M536.4,465.8c-0.8,0-1.6,0-2.4,0c-0.2,0-0.5,0-0.7,0C534.3,465.8,535.4,465.8,536.4,465.8c11.6-0.1,23.1-2,34-5.4
		c7.1-2.2,14-5.1,20.5-8.7c-6.6,3.5-13.4,6.4-20.5,8.7C559.5,463.8,548,465.7,536.4,465.8z M609.4,439.5L609.4,439.5l0,17.3h0V439.5
		z M679,456.8L679,456.8l0-271.5h-69.7v17.4l0,0v-17.4H679V456.8z"/>
</g>
<path class="st1" d="M2315.4,217.1L2179.6,6c-2.5-3.8-6.7-6-11.2-5.9h-90.5c-2.5,0.1-4.5,2.1-4.5,4.7c0,0.8,0.3,1.6,0.7,2.3
	l141.6,219.9c1,1.5,1,3.4,0,4.9l-141.6,219.3c-1.4,2.1-0.7,4.9,1.4,6.3c0.7,0.5,1.6,0.7,2.4,0.7h90.5c4.5,0,8.7-2.3,11.2-6.1
	l135.8-210.3C2320.3,234.3,2320.3,224.6,2315.4,217.1L2315.4,217.1z"/>
<path class="st2" d="M2343.3,260.1c-1.4-2.1-4.2-2.7-6.3-1.3c-0.5,0.3-0.9,0.8-1.3,1.3l-37.3,57.7c-7.3,11.3-7.3,25.8,0,37
	l63.5,98.2c2.1,3.2,5.7,5.2,9.5,5.2h93.8c1.9,0,3.4-1.5,3.4-3.4c0-0.6-0.2-1.3-0.5-1.8L2343.3,260.1z"/>
<path class="st2" d="M2335.7,198.1c1.4,2.1,4.2,2.7,6.3,1.3c0.5-0.3,0.9-0.8,1.3-1.3L2468.1,5.3c1-1.6,0.5-3.7-1-4.7
	c-0.5-0.3-1.2-0.5-1.8-0.5h-93.8c-3.9,0-7.4,2-9.5,5.2l-63.5,98.2c-7.3,11.3-7.3,25.8,0,37L2335.7,198.1z"/>
</svg>
