<?xml version="1.0" encoding="UTF-8"?><svg id="a" xmlns="http://www.w3.org/2000/svg" viewBox="0 0 64 64"><defs><style>.b{fill:#d00a10;}</style></defs><path class="b" d="M20.39,57.24c-.27-3.54,.09-3.93,3.59-3.93,.71,0,1.42,0,2.17,0,.28-2.38,1.38-4.08,3.48-5.12,.24-.12,.42-.58,.42-.89,.02-7.14,.03-14.27,0-21.41,0-.38-.31-.77-.51-1.13-.45-.82-.93-1.63-1.51-2.64h7.89c-.52,.97-.97,1.76-1.38,2.56-.24,.46-.59,.95-.6,1.43-.04,6.99-.03,13.97,0,20.96,0,.38,.16,.98,.42,1.11,2.1,1.05,3.2,2.75,3.49,5.13,1.09,0,2.13,0,3.18,0,2.07,.01,2.63,.55,2.62,2.58,0,.45-.03,.9-.05,1.35H20.39Z"/><path class="b" d="M6.64,37.63q2.26,.08,3.06-2.03c1.85-4.9,3.67-9.81,5.56-14.7,.19-.49,.65-1.09,1.1-1.2,.79-.19,.98,.6,1.2,1.2,1.93,5.11,3.89,10.21,5.76,15.34,.39,1.06,.85,1.67,2.05,1.41,.18-.04,.37,0,.71,0-.67,2.12-1.93,3.69-3.6,4.93-5.21,3.84-12.54,1.99-15.37-3.85-.14-.3-.31-.59-.46-.88v-.23Zm15.17-.01l-5.42-14.36-5.4,14.36h10.83Z"/><path class="b" d="M57.36,37.85c-1.26,2.75-3.14,4.9-6.03,6.03-5.12,2-10.95-.43-13.15-5.47-.09-.2-.15-.4-.22-.6,.12-.07,.18-.13,.24-.14q1.97-.08,2.67-1.97c1.87-4.97,3.74-9.94,5.65-14.9,.18-.45,.68-.78,1.04-1.16,.39,.38,.97,.69,1.15,1.16,1.9,4.92,3.74,9.86,5.6,14.8q.79,2.11,3.06,2.03v.23Zm-9.76-14.59l-5.41,14.34h10.82l-5.41-14.34Z"/><path class="b" d="M29.32,13.79l1.38-.92c-1.5-1.91-1.14-3.56,1.29-6.12,2.43,2.52,2.8,4.23,1.29,6.12l1.35,.9c2.92-2.21,5.94-1.6,8.96-.15,.54,.26,1.09,.51,1.61,.8,.55,.3,1,.39,1.63,.04,.93-.52,2.01-.07,2.48,.85,.46,.9,.14,2.06-.72,2.57-.88,.53-1.92,.27-2.59-.57-.27-.33-.6-.67-.98-.83-1.75-.76-3.47-1.63-5.3-2.1-.95-.24-2.11,.17-3.13,.46-.74,.21-1.12,.77-1.14,1.7-.04,1.8-1.63,3.16-3.45,3.18-1.85,.02-3.44-1.4-3.49-3.26-.02-.82-.39-1.21-1-1.58-1.57-.94-3.19-.76-4.77-.15-1.43,.55-2.8,1.26-4.18,1.94-.24,.12-.42,.4-.59,.63-.66,.88-1.69,1.12-2.58,.6-.82-.49-1.18-1.58-.8-2.46,.39-.91,1.54-1.49,2.43-.99,.86,.48,1.45,.15,2.15-.2,1.87-.95,3.75-1.89,5.94-1.89,1.57,0,2.95,.46,4.2,1.46Z"/></svg>