<?xml version="1.0" encoding="UTF-8"?><svg id="a" xmlns="http://www.w3.org/2000/svg" viewBox="0 0 64 64"><defs><style>.b{fill:#d00a10;}</style></defs><path class="b" d="M23.1,31.17h2.76c1.47,0,2.66,1.19,2.66,2.66v18.5c0,1.47-1.19,2.66-2.66,2.66h-2.76c-1.47,0-2.66-1.19-2.66-2.66v-18.51c0-1.47,1.19-2.66,2.66-2.66Z"/><path class="b" d="M11.39,37.42h2.36c1.58,0,2.86,1.28,2.86,2.86v11.84c0,1.58-1.28,2.86-2.86,2.86h-2.36c-1.58,0-2.86-1.28-2.86-2.86v-11.85c0-1.58,1.28-2.86,2.86-2.86Z"/><rect class="b" x="32.15" y="24.1" width="8.07" height="30.88" rx="2.66" ry="2.66"/><path class="b" d="M46.37,9.92l-5.18,6.64c-.44,.57-.55,1.19-.3,1.72,.28,.57,.94,.91,1.78,.91h1.4V52.4c0,1.46,1.19,2.58,2.66,2.58h2.78c1.46,0,2.64-1.12,2.64-2.58V19.16l1.41,.02c.84,0,1.51-.34,1.79-.91,.26-.52,.15-1.15-.29-1.72l-5.18-6.64c-.45-.57-1.08-.9-1.74-.9s-1.3,.33-1.74,.9Z"/></svg>