<?xml version="1.0" encoding="UTF-8"?><svg id="a" xmlns="http://www.w3.org/2000/svg" viewBox="0 0 64 64"><defs><style>.d{fill:#d00a10;}</style></defs><g id="b"><g id="c"><path class="d" d="M26.86,39.49c-.88-3.07-3.29-5.46-6.36-6.32-1.51-.48-4-.9-5.52,0-5.55,1.04-9.21,6.37-8.17,11.93,1.04,5.55,6.37,9.21,11.92,8.17,6.39-1.08,9.59-7.95,8.13-13.78Zm-8.39,10.41c-4.1,1.51-7.59-1.75-8.47-5.56-.41-2.15,.22-4.38,1.69-6,1.84-2.13,4.56-2.17,7.12-2.18l.28,.07c2.06,.61,3.67,2.21,4.31,4.26,1.35,3.88-1.23,8.05-4.93,9.41Z"/><path class="d" d="M57.83,28.93c.19-.73-.24-1.48-.98-1.67h-.02c-3.03-.56-6.09-.94-9.16-1.17,.05-.39,0-.78-.16-1.14,.16,.38,.06-.61,0-.63v-1.2c0-.88-.21-1.75-.24-2.63s.85-1.23,1.39-1.62c.74-.46,1.1-1.34,.89-2.18-.13-.49-.45-.9-.89-1.15-.61-.38-1.39-.38-2,0-2.33,1.55-3.62,3.13-3.41,6,.03,1.43,.18,2.86,.45,4.26-3.13-.18-6.25-.31-9.34-.53-1-.08-2.11-.14-3.17-.2-.35-2.29-1-4.56-1.37-6.84-.32-1.93-.58-5.78-2-7.29-1.42-1.51-3.29-1.03-5.16-1.14-4-.17-8,.44-12,.23-.3,0-.56,.19-.64,.48-.8,6.03-.93,12.13-.38,18.19-1.36,.68-2.54,1.67-3.44,2.89-.29,.39,.29,1,.68,.68,6.76-5.15,15.13-3.47,20.24,3.32,1.71,2.28,1.57,6,3.49,7.9,1.55,1.55,6.41,1.22,9.1,1.15-.94,3.42,.57,7.93,4.07,9.18,4.37,1.56,8.29-1.6,8.53-6,.07-1.54-.5-3.04-1.56-4.15,.26-.23,.43-.55,.47-.9,.58-5.12,4.99-9.13,6.61-13.84Zm-46.84-3.07c.18-2.46,.23-4.93,.13-7.4,0-1.75-.15-3.49-.14-5.24,0-2.62,5.59-1.64,7.22-1.64,2,0,4,0,5.93,.09,2.82,.14,2.9,2.2,3.49,4.43,.76,2.93,1.13,6,1.76,8.91-6.14-.32-12.3-.04-18.39,.85Zm33.63,24.74c-1.79-.85-2.24-3.45-1.83-5.18,.21-.81,.8-1.47,1.58-1.76h.09c2,.51,4,1.36,4.55,3.5,.36,1.67-.7,3.32-2.38,3.68-.68,.15-1.39,.06-2.01-.24Z"/></g></g></svg>