<?xml version="1.0" encoding="UTF-8"?><svg id="a" xmlns="http://www.w3.org/2000/svg" viewBox="0 0 64 64"><defs><style>.b{fill:#d00a10;fill-rule:evenodd;}</style></defs><path class="b" d="M39.13,16.39c-.86,.84-.98,1.59-.31,2.3,3.74,3.69,7.47,7.38,11.21,11.08,.68,.48,1.36,.65,2.03,.16,1.39-1.46,2.78-2.93,4.17-4.39,.54-.73,.52-1.46-.05-2.2-3.51-3.59-7.02-7.17-10.53-10.76-.87-.94-1.74-.98-2.61-.11-1.3,1.31-2.61,2.61-3.91,3.92h0Zm-14.23,23.53c1.34-.48,3.05,.85,2.56,2.51,1.27-.46,2.97,1.01,2.61,2.61,1.64-.52,2.96,1.24,2.29,2.51-.15,.16-.28,.31-.41,.46l2.39,2.22c.37,.34,.91,.41,1.39,.29h0c.24-.07,.47-.17,.65-.31,.16-.13,.29-.29,.36-.46,.13-.31,.08-.73-.26-1.23-.04-.06-.08-.13-.1-.2l-3.09-3.09c-.35-.35-.35-.91,0-1.26,.35-.35,.91-.35,1.26,0l3.55,3.55c.25,.11,.48,.12,.68,.08,.13-.03,.25-.09,.33-.18,.09-.09,.15-.2,.18-.33,.07-.31-.02-.73-.35-1.22l-3.24-3.24c-.35-.35-.35-.91,0-1.26,.35-.35,.91-.35,1.26,0l3.27,3.27c.33,.23,.72,.27,1.05,.17,.18-.05,.35-.15,.48-.27,.12-.11,.21-.25,.26-.4,.06-.18,.05-.4-.05-.64l-3.47-3.47c-.35-.35-.35-.91,0-1.25,.35-.35,.91-.35,1.26,0l3.04,3.03s.08,.03,.12,.05h0c.33,.17,.71,.18,1.06,.06,.28-.09,.55-.26,.76-.49,.2-.22,.35-.49,.41-.79,.08-.41,0-.89-.34-1.42-.18-.23-.4-.46-.62-.7-.19-.2-.38-.4-.56-.62-2.72-2.52-5.15-4.8-7.89-7.33-1.51-1.23-3.82-.46-5,.25-1.9,1.27-3.54,2.42-5.43,3.69-1.74,.98-3.71-1.19-2.29-2.81,2.7-2.78,5.4-5.57,8.1-8.35l.19-.12c-.71-.57-1.46-1.05-2.2-1.41h0c-.89-.44-1.75-.7-2.48-.75-.49-.03-.86-.44-.84-.93,.03-.49,.45-.86,.94-.84,.97,.05,2.06,.38,3.17,.93h0c1.01,.5,2.05,1.19,2.99,2.01,1.73-1,3.18-1.49,5.45-1.55,3.21,3.37,6.54,6.75,9.74,10.13-.66,2.22-1.74,4.19-3.13,5.89,.16,.19,.35,.39,.53,.58,.26,.27,.51,.54,.75,.86h0l.04,.06c.62,.96,.78,1.91,.62,2.74-.12,.65-.43,1.22-.85,1.67-.41,.45-.94,.78-1.51,.97-.22,.07-.45,.12-.69,.15,.02,.32-.02,.63-.11,.91-.14,.46-.4,.86-.75,1.18-.33,.31-.74,.54-1.19,.68-.22,.07-.46,.11-.7,.12,.03,.31,0,.6-.06,.87-.11,.47-.35,.87-.66,1.18-.32,.31-.72,.53-1.17,.64-.2,.05-.4,.07-.61,.07,0,.36-.07,.69-.19,1.01-.19,.48-.51,.88-.91,1.19-.38,.3-.83,.52-1.31,.64h0c-1.03,.26-2.19,.08-3.04-.71l-2.35-2.19c-.44,.47-.94,.93-1.65,1.44-1.53,.56-2.99-.84-2.45-2.3-1.69,.58-3.09-1.01-2.61-2.4-1.78,.48-3-1.11-2.66-2.4-1.79,.15-2.76-1.1-2.35-2.56,.39-.52,.76-1.01,1.2-1.5-.62-.62-1.18-1.28-1.74-1.94-.61-.72-1.23-1.43-1.89-2.07-.05-.04-.1-.1-.14-.15-.53-.76-.89-1.53-1.11-2.3-.22-.77-.29-1.54-.25-2.32,.02-.49,.44-.86,.93-.84,.49,.02,.87,.44,.84,.93-.03,.58,.02,1.16,.19,1.74,.16,.56,.43,1.13,.82,1.71,.7,.68,1.33,1.42,1.95,2.15,.55,.64,1.1,1.29,1.69,1.88,.32-.26,.69-.52,1.1-.79,1.38-.54,2.87,.89,2.24,2.3h0Zm-.03-23.71c-1.3-1.31-2.61-2.61-3.91-3.92-.87-.87-1.73-.84-2.61,.1-3.51,3.59-7.02,7.18-10.54,10.76-.57,.73-.59,1.46-.05,2.19,1.39,1.46,2.78,2.92,4.17,4.39,.68,.5,1.36,.32,2.04-.16,3.74-3.69,7.48-7.38,11.21-11.08,.67-.71,.55-1.46-.31-2.3Z"/></svg>