<?xml version="1.0" encoding="UTF-8"?><svg id="a" xmlns="http://www.w3.org/2000/svg" viewBox="0 0 64 64"><defs><style>.b{fill:#d00a10;}</style></defs><path class="b" d="M32.07,12.62c-5.89,.05-11.31,1.91-11.31,4.45v4.72h-4.13c-1.27,0-2.97-.17-2.97,.8v25.45c0,.39,.36,1.29,.73,1.72l2.24,1.61H49.11c1.27,0,1.22-2.36,1.22-3.33V22.6c0-.97,.04-.8-1.22-.8h-5.87v-4.72c0-.5-.14-.97-.51-1.4l-3.69-2.06c-1.95-.61-4.42-.97-6.98-1Zm11.71,12.73h4.2v7.1H17.21v-7.1h26.57Zm-4.09-7.5v3.95h-15.38v-4.09c0-.07,1.22,.54,1.26,.54h14.6l-.48-.4v-.14c0-.07,0,.14,0,.14Z"/></svg>