<?xml version="1.0" encoding="UTF-8"?><svg id="a" xmlns="http://www.w3.org/2000/svg" viewBox="0 0 64 64"><defs><style>.b{fill:#d00a10;}</style></defs><path class="b" d="M43.96,5c-7.98,0-15.96,0-23.94,0-3.87,0-6.43,2.55-6.44,6.44-.01,13.89-.01,27.49,0,41.38,0,3.93,2.58,6.18,6.52,6.18h23.76c4.05,0,6.57-2.23,6.57-6.3,0-6.88,0-13.62,0-20.5s0-13.82,0-20.76c0-3.95-2.54-6.43-6.46-6.43ZM21.86,54.1c-1.77,.02-3.18-1.36-3.2-3.13-.02-1.74,1.4-3.2,3.13-3.23,1.72-.02,3.18,1.42,3.2,3.16,.02,1.77-1.36,3.19-3.13,3.2Zm-3.18-13.64c.18-1.57,1.56-2.79,3.16-2.78,1.6,0,2.97,1.23,3.13,2.81,.17,1.71-.84,3.1-2.5,3.42-.44,.2-.88,.2-1.32,0-1.64-.33-2.66-1.76-2.47-3.44Zm3.16-6.37c-1.75,0-3.18-1.41-3.18-3.16,0-1.74,1.42-3.2,3.15-3.21,1.73-.01,3.17,1.43,3.18,3.18,0,1.75-1.41,3.19-3.15,3.2Zm10.02,20.01c-1.73-.06-3.08-1.56-3-3.33,.08-1.69,1.57-3.1,3.23-3.03,1.74,.07,3.1,1.54,3.05,3.3-.05,1.77-1.5,3.12-3.27,3.06Zm-3-13.1c-.06-1.51,.81-2.71,2.28-3.14,.57-.26,1.14-.26,1.7,0,1.48,.44,2.34,1.63,2.29,3.15-.05,1.44-1.04,2.6-2.48,2.9-.44,.2-.88,.2-1.32,0-1.42-.29-2.42-1.46-2.47-2.9Zm3.16-6.91c-1.74,0-3.16-1.42-3.16-3.18,0-1.71,1.38-3.15,3.07-3.19,1.7-.05,3.19,1.41,3.21,3.15,.02,1.77-1.38,3.22-3.11,3.23Zm10.15,20.01c-1.76,.01-3.17-1.39-3.17-3.16,0-1.76,1.42-3.2,3.15-3.2,1.67,0,3.1,1.44,3.13,3.14,.02,1.76-1.37,3.21-3.11,3.22Zm-3.17-13.15c-.04-1.51,.85-2.71,2.31-3.11,.57-.25,1.14-.24,1.71,.01,1.44,.44,2.32,1.67,2.26,3.14-.06,1.43-1.05,2.59-2.45,2.89-.44,.2-.88,.22-1.32,.01-1.48-.29-2.47-1.45-2.51-2.95Zm3.08-6.87c-1.73-.02-3.12-1.49-3.08-3.26,.04-1.72,1.46-3.13,3.14-3.12,1.72,0,3.16,1.48,3.14,3.22-.02,1.75-1.46,3.18-3.2,3.16Zm3.18-15.4c-.01,.81-.43,1.36-1.31,1.44-1,.01-2,.04-3,.05-6.64,0-13.28,0-19.92,0-.34,0-.69-.03-1.03-.04-.92-.06-1.35-.63-1.36-1.48-.03-1.98-.02-3.96,0-5.94,0-.75,.3-1.35,1.15-1.47,.28-.19,.61-.12,.92-.12,7.51,0,15.02,0,22.53,0,.31,0,.63-.07,.91,.13,.78,.15,1.1,.7,1.11,1.41,.02,2.01,.03,4.02,0,6.03Z"/></svg>