<?xml version="1.0" encoding="UTF-8"?><svg id="a" xmlns="http://www.w3.org/2000/svg" viewBox="0 0 64 64"><defs><style>.b{fill:#d00a10;}</style></defs><path class="b" d="M40.72,17.07c1.03,1.03,.73,3.01-.67,4.41h0c-1.4,1.4-3.38,1.71-4.41,.68l-7.85-7.85c-1.03-1.03-.73-3.01,.67-4.42h0c1.41-1.4,3.38-1.71,4.41-.67l7.85,7.85Z"/><path class="b" d="M25.22,32.79c1.03,1.03,.73,3.01-.67,4.41h0c-1.4,1.4-3.38,1.71-4.41,.68l-7.85-7.85c-1.04-1.03-.73-3.01,.67-4.41h0c1.4-1.4,3.38-1.71,4.41-.67l7.86,7.85Z"/><path class="b" d="M17.89,23.81s5.16-1.53,9.04-8.8l8.42,8.42s-4.73,.85-9.04,8.8l-8.41-8.41Z"/><path class="b" d="M29.74,28.97s.54-1.69,2.23-2.23l7.2,7.19-2.23,2.23-7.19-7.19Z"/><path class="b" d="M56.87,49.41l-14.58-14.58c-.8-.8-2.07-.85-2.81-.1l-1.81,1.81c-.75,.75-.64,1.95,.16,2.75l14.57,14.58,.42,1.53,1.85-1.85,1.81-1.81,1.92-1.92-1.53-.41Z"/><rect class="b" x="9.95" y="40.27" width="21.73" height="5.8"/><rect class="b" x="5.6" y="46.06" width="30.42" height="8.69"/></svg>