<?xml version="1.0" encoding="UTF-8"?><svg id="a" xmlns="http://www.w3.org/2000/svg" viewBox="0 0 64 64"><defs><style>.b{fill:#d00a10;}</style></defs><circle class="b" cx="12.06" cy="48.72" r="5.12"/><rect class="b" x="24.81" y="12.47" width="33.07" height="8.21" rx="4.11" ry="4.11"/><rect class="b" x="24.81" y="28.77" width="33.07" height="8.21" rx="4.11" ry="4.11"/><rect class="b" x="24.81" y="44.62" width="33.07" height="8.21" rx="4.11" ry="4.11"/><path class="b" d="M20.93,10.72c-.99-.85-2.51-.69-3.44,.24l-5.5,5.5-1.26-1.26c-.99-1-2.6-1-3.59,0l-.29,.28c-.99,1-.99,2.61,0,3.6l1.26,1.26,1.5,1.5c1.09,1.09,2.86,1.09,3.95,0l1.91-1.91,5.61-5.61c.48-.48,.72-1.11,.72-1.73,0-.69-.29-1.38-.86-1.87Z"/><path class="b" d="M20.93,26.73c-.99-.85-2.51-.69-3.44,.24l-5.5,5.5-1.26-1.26c-.99-1-2.6-1-3.59,0l-.29,.28c-.99,1-.99,2.61,0,3.6l1.26,1.26,1.5,1.5c1.09,1.09,2.86,1.09,3.95,0l1.91-1.91,5.61-5.61c.48-.48,.72-1.11,.72-1.73,0-.69-.29-1.38-.86-1.87Z"/></svg>