<?xml version="1.0" encoding="UTF-8"?><svg id="a" xmlns="http://www.w3.org/2000/svg" viewBox="0 0 64 64"><defs><style>.b{fill:#d00a10;fill-rule:evenodd;}</style></defs><path class="b" d="M6.02,29.91c.12-.18,.12-.4,.2-.59,.53-1.26,1.47-1.95,2.83-2.07,.13-.01,.26,0,.39,0,4.05,0,8.09,0,12.14,0,1.61,0,2.89,.61,3.88,1.88,1.26,1.61,2.53,3.2,3.8,4.8,.11,.14,.23,.2,.42,.2,1.55,0,3.1,0,4.66,0,.97,0,1.53,.56,1.54,1.52,0,.31,0,.63,0,.94-.02,.8-.57,1.4-1.37,1.4-2.02,.02-4.05,.01-6.07,0-.65,0-1.15-.34-1.55-.84-.79-1.02-1.59-2.04-2.38-3.06-.26-.33-.63-.44-1.01-.3-.24,.09-.36,.27-.44,.5-.04,.11-.02,.22-.02,.33,0,4.54,0,9.07,0,13.61,0,.38,0,.38-.39,.39-.16,0-.31,0-.47,0-3.41,0-6.81,0-10.22,0-.11,0-.22,0-.33,0-.27-.01-.32-.06-.34-.33,0-.12,0-.24,0-.36,0-4.37,0-8.73,0-13.1,0-.15,.02-.3-.04-.44-.04-.15-.1-.28-.21-.38-.33-.3-.79-.19-.95,.23-.08,.21-.08,.43-.08,.66,0,3.44,0,6.87,0,10.31,0,.71-.43,1.27-1.1,1.44-.14,.04-.27,.04-.41,.04h-.89c-.89,0-1.31-.31-1.56-1.14v-15.64Z"/><path class="b" d="M35.77,38.82c.93-.5,1.5-1.2,1.7-2.17,.15-.77,.03-1.49-.38-2.15-.1-.17-.1-.27,.03-.42,1.71-2.08,3.4-4.16,5.1-6.25,.47-.58,.31-1.32-.34-1.58-.42-.17-.85-.03-1.2,.39-1.27,1.55-2.53,3.11-3.8,4.66-.46,.56-.91,1.11-1.36,1.68-.1,.12-.18,.18-.35,.12-.25-.08-.51-.08-.77-.08-1.41,0-2.81,0-4.21,0-.16,0-.27-.04-.37-.17-.32-.43-.66-.85-1-1.26-.09-.11-.12-.21-.12-.35,0-3.74,0-7.48,0-11.23,0-.86,.51-1.4,1.36-1.48,.09,0,.18,0,.28,0,8.67,0,17.33,0,26,0,.62,0,1.15,.16,1.47,.74,.12,.22,.17,.47,.17,.72,0,5.8,0,11.6,0,17.41,0,.87-.58,1.46-1.44,1.46-6.86,0-13.73,0-20.59,0-.03,0-.07,0-.18,0Z"/><path class="b" d="M17.19,15.33c3.11,0,5.68,2.55,5.68,5.67,0,3.12-2.55,5.67-5.68,5.67-3.12,0-5.66-2.52-5.68-5.64-.02-3.14,2.53-5.69,5.68-5.7Z"/><path class="b" d="M22.15,48.54c.19,0,.39-.01,.58,0,.2,.01,.25-.06,.25-.25,0-1.03,0-2.07,0-3.1,0-3.52,0-7.04,0-10.55,0-.11-.04-.24,.05-.35,0,4.64,0,9.27-.02,13.91,0,.3,.08,.38,.36,.35,.13-.02,.26,0,.39,0,.01,.04,0,.06-.03,.08-.49,.08-.98,.03-1.46,.03-.03,0-.06-.02-.09-.04-.03-.02-.04-.05-.02-.08Z"/></svg>