<?xml version="1.0" encoding="UTF-8"?><svg id="a" xmlns="http://www.w3.org/2000/svg" viewBox="0 0 64 64"><defs><style>.b{fill:#d00a10;}</style></defs><path class="b" d="M57.31,29.2c-2.01-2.59-3.34-5.74-4.74-8.75-.8-1.72-1.77-2.84-3.7-3.17-5.01-.86-9.81-2.4-14.38-4.63-1.69-.83-3.26-.79-4.94,.03-4.56,2.24-9.38,3.75-14.38,4.61-1.76,.3-2.85,1.24-3.49,2.9-1.41,3.71-3.39,7.12-5.71,10.33-1.15,1.58-1.34,3.07-.43,4.81,1.08,2.06,1.93,4.26,3.8,5.79,2.47,2.44,4.52,5.84,7.49,7.15,16.2,7.16,31.63,4.09,40.53-10.8,2.18-2.77,2.27-5.28-.05-8.27Zm-29.04-9.43c.24-.48,.49-.54,1.06-.5,1.02,.06,2.06,.07,3.09,.07,1.02,0,2.04,0,3.06-.07,.58-.03,.8,.03,1.03,.5,2.1,4.19,.87,8.06-3.27,10.24-.25,.13-.48,.41-.73,.41h-.26c-.24,0-.48-.29-.72-.41-4.14-2.18-5.37-6.05-3.27-10.24Zm21.9,21.82c-.33,1.12-1.45,1.8-2.1,.5-.28-.56-.61-1.01-.98-1.38-1.8-.88-3.61-1.53-5.44-2.01-.04,0-.08-.02-.12-.03-2.92-.63-5.85-.96-8.76-1.01-3.16,.03-6.35,.44-9.54,1.06-.32,.06-.64,.12-.96,.18-.57,.12-1.14,.24-1.71,.37-1.46,.4-2.8,1.1-3.65,2.82-.65,1.3-1.77,.62-2.1-.5-.27-.91-.14-1.95-.18-2.93,5.96-1.98,11.91-2.99,17.86-3.03,5.96,.04,11.91,1.05,17.86,3.03-.04,.98,.1,2.02-.18,2.93Z"/></svg>