<?xml version="1.0" encoding="UTF-8"?><svg id="a" xmlns="http://www.w3.org/2000/svg" viewBox="0 0 64 64"><defs><style>.b{fill:#d00a10;}</style></defs><path class="b" d="M28.17,53.85c-6.99-.24-12.31-3.31-15.52-9.57-2.23-4.36-4.19-8.85-6.28-13.28-.45-.95-.3-1.71,.45-2.45,2.64-2.55,5.71-4.47,8.96-6.11,4.09-2.06,8.31-3.74,12.88-4.43,2.04-.31,2.44-.14,3.3,1.7,1.92,4.1,3.85,8.19,5.77,12.29,3.28,7,1.59,15.21-4.09,20.38-1.14,1.03-2.43,1.36-3.86,1.47-.54,.04-1.08,0-1.61,0Zm-3.97-7.49c4.26-.03,8.07-2.62,9.32-6.19,.34-.98,0-1.86-.83-2.19-.8-.31-1.58,.07-2.02,1-1.71,3.6-4.55,4.92-8.43,3.91-.91-.24-1.71,.12-1.98,.88-.3,.83,.11,1.67,1.01,2.02,1.01,.39,2.08,.54,2.93,.57Zm8.62-16.89c0-.81-.43-1.29-1.18-1.55-2.46-.86-5.47,.56-6.34,3.01-.3,.84,.02,1.7,.76,2.04,.78,.36,1.58,.06,2.04-.74,.8-1.4,1.21-1.59,2.85-1.32,1.02,.17,1.83-.46,1.86-1.44Zm-14.14,3.59c-2.13,0-4.1,1.31-4.81,3.15-.34,.88-.1,1.7,.62,2.1,.71,.4,1.66,.24,2.01-.52,.66-1.44,1.65-1.85,3.17-1.49,.82,.2,1.43-.29,1.62-1.14,.19-.83-.14-1.44-.92-1.77-.56-.24-1.15-.36-1.69-.33Z"/><path class="b" d="M37.6,24.44c1.5,.02,2.68-.41,3.67-1.31,.73-.66,.85-1.56,.31-2.24-.54-.68-1.47-.82-2.22-.13-1.28,1.18-3.14,.45-3.99-1.11-.59-1.09-1.15-2.21-1.59-3.36-.46-1.21-1.31-1.57-2.51-1.59-.46,0-1.13,.44-1.39-.28-.34-.95,.14-1.98,1.05-2.36,1.68-.69,3.46-1.11,5.25-1.36,6.01-.84,12-.84,17.94,.55,.85,.2,1.67,.49,2.5,.76,.71,.24,1.17,.77,1.16,1.5-.06,5.72,.38,11.45-.2,17.14-.7,6.85-6.29,12.89-13,14.43-.79,.18-1.53,0-2.28-.21-.42-.11-.51-.3-.41-.72,.77-3.02,.77-6.06,.11-9.09-.15-.66,.13-.74,.62-.82,2.12-.34,4.04,.12,5.6,1.6,.87,.83,1.9,.79,2.5,.17,.68-.72,.52-1.68-.47-2.52-2.52-2.15-5.41-2.89-8.65-2.18-.37,.08-.69,.25-.91-.24-1-2.19-2.02-4.37-3.09-6.66Zm13.38,0c.91,.03,2.05-.47,3.03-1.35,.72-.64,.78-1.59,.21-2.24-.55-.64-1.39-.7-2.16-.15-1.31,.92-1.73,.92-3.05,0-.77-.54-1.61-.47-2.16,.17-.56,.65-.51,1.49,.16,2.16,.97,.97,2.17,1.41,3.98,1.43Z"/></svg>