<?xml version="1.0" encoding="UTF-8"?><svg id="a" xmlns="http://www.w3.org/2000/svg" viewBox="0 0 64 64"><defs><style>.b{fill:#d00a10;}</style></defs><path class="b" d="M55.94,46.6H10.9V14.62c0-1.6-1.2-3.03-2.79-3.11-1.7-.09-3.11,1.26-3.11,2.94V49.55c0,1.63,1.32,2.95,2.95,2.95H56.05c1.82,0,3.25-1.65,2.89-3.53-.27-1.4-1.58-2.36-3-2.36Z"/><rect class="b" x="14.79" y="32" width="5.9" height="11.24" rx="2.95" ry="2.95"/><rect class="b" x="25.16" y="18.44" width="5.9" height="24.79" rx="2.95" ry="2.95"/><rect class="b" x="34.92" y="25.12" width="5.9" height="18.11" rx="2.95" ry="2.95"/><rect class="b" x="45.2" y="14.42" width="5.9" height="28.82" rx="2.95" ry="2.95"/></svg>