<?xml version="1.0" encoding="UTF-8"?><svg id="a" xmlns="http://www.w3.org/2000/svg" viewBox="0 0 64 64"><defs><style>.b{fill:#d00a10;fill-rule:evenodd;}</style></defs><path class="b" d="M30.73,55.4c-.8-.12-1.6-.22-2.4-.35-1.88-.32-3.66-.94-5.36-1.8-2.08-1.05-3.91-2.42-5.51-4.11-2-2.12-3.48-4.56-4.42-7.32-.71-2.07-1.07-4.2-1.06-6.39,0-2.15,.32-4.26,1.01-6.32,.95-2.83,2.43-5.33,4.48-7.49,2.1-2.21,4.55-3.9,7.42-4.93,1.17-.42,2.39-.7,3.59-1.01,.29-.08,.38-.19,.37-.48-.02-.72-.02-1.45,0-2.17,0-.33-.07-.46-.43-.45-1,.02-1.99,.01-2.99,.01-.76,0-1.06-.3-1.07-1.07,0-.65,0-1.3,0-1.95,0-.69,.32-1,1.02-1h12.68c.68,0,.99,.29,1,.98,.01,.7,.01,1.39,0,2.09-.02,.64-.31,.93-.95,.94-.85,.01-1.7,.02-2.54,0-.36,0-.44,.12-.43,.45,.02,.72,.02,1.44,0,2.17,0,.29,.07,.42,.37,.47,1.56,.29,3.07,.73,4.53,1.37,1.89,.84,3.61,1.93,5.17,3.3,1.13,.99,2.13,2.09,3.01,3.3,.91,1.25,1.66,2.6,2.26,4.03,1.03,2.44,1.51,5,1.54,7.64,.02,2.05-.29,4.07-.9,6.03-.67,2.15-1.67,4.12-3.02,5.93-1.59,2.14-3.54,3.91-5.82,5.28-1.92,1.15-3.97,1.95-6.16,2.4-.79,.16-1.6,.24-2.4,.36-.15,.02-.29,.05-.44,.08h-2.54Zm1.25-36.17c-9.07,.06-16.17,7.39-16.12,16.19,.04,9.07,7.37,16.13,16.17,16.1,9.02-.03,16.12-7.31,16.11-16.16-.02-9.03-7.33-16.1-16.16-16.13Z"/><path class="b" d="M20.46,16.78c-2.01,1.86-4.03,3.72-6.04,5.58-1.56-1.65-1.44-4.34,.23-5.85,1.67-1.52,4.38-1.39,5.81,.28Z"/><path class="b" d="M46.15,35.35h-14.38v-14.38c7.52-.29,14.58,6.41,14.38,14.38Z"/><path class="b" d="M22.57,33.38v3.17h-4.24v-3.17h4.24Z"/><path class="b" d="M31.77,45.03c.79,0,1.56,0,2.33,0,.07,0,.2,.12,.2,.19,0,1.34,0,2.68,0,4.05h-2.54v-4.24Z"/><path class="b" d="M22.73,29.95c-.96-.56-1.87-1.08-2.8-1.62,.22-.38,.42-.73,.64-1.11,.75,.43,1.48,.85,2.21,1.28,.6,.35,.59,.36,.26,.95-.09,.16-.19,.32-.3,.51Z"/><path class="b" d="M26.55,44.24c.33,.19,.63,.35,.92,.54,.06,.05,.1,.23,.07,.3-.45,.82-.92,1.62-1.39,2.42-.04,.07-.24,.11-.32,.07-.25-.11-.48-.25-.71-.41-.07-.05-.12-.23-.08-.29,.49-.87,1-1.73,1.52-2.62Z"/><path class="b" d="M22.73,39.98c.22,.37,.42,.72,.65,1.11-.95,.54-1.86,1.08-2.81,1.63-.22-.37-.42-.72-.64-1.11,.93-.54,1.84-1.06,2.81-1.62Z"/><path class="b" d="M26.55,25.68c-.55-.95-1.08-1.85-1.63-2.79,.36-.21,.71-.42,1.1-.65,.55,.93,1.08,1.84,1.63,2.79-.36,.22-.71,.42-1.1,.66Z"/><path class="b" d="M38.84,44.24c.51,.88,.99,1.7,1.46,2.53,.04,.07,0,.25-.06,.3-.27,.22-.57,.39-.89,.61-.44-.76-.87-1.49-1.3-2.23-.32-.56-.32-.56,.25-.89,.17-.1,.34-.2,.54-.31Z"/><path class="b" d="M44.94,41.29c-.2,.4-.38,.75-.58,1.15-.8-.46-1.56-.9-2.34-1.35,.21-.37,.41-.71,.63-1.11,.77,.44,1.51,.87,2.28,1.31Z"/></svg>