<?xml version="1.0" encoding="UTF-8"?><svg id="a" xmlns="http://www.w3.org/2000/svg" viewBox="0 0 64 64"><defs><style>.b{fill:#d00a10;}</style></defs><path class="b" d="M32.02,28.48c3.63,0,6.58-1.19,6.58-2.67s-2.95-2.67-6.58-2.67-6.58,1.19-6.58,2.67,2.95,2.67,6.58,2.67Z"/><path class="b" d="M25.42,35.1l-.03,3.01s1.27,2.45,6.81,2.45,6.44-2.43,6.44-2.43v-2.96s-1.93,1.55-6.47,1.55-6.74-1.62-6.74-1.62Z"/><path class="b" d="M32.16,30.75c-4.54,0-6.74-1.62-6.74-1.62l-.03,3.01s1.27,2.45,6.81,2.45,6.44-2.43,6.44-2.43v-2.96s-1.93,1.55-6.47,1.55Z"/><path class="b" d="M58.33,18.94c-.82-1.65-2.16-2.98-3.94-3.95-.22-1.31-1.36-2.32-2.74-2.32-.74,0-1.42,.3-1.92,.77-1.31-.23-2.73-.35-4.26-.35h-.04c-.56,0-1.14,.03-1.71,.07-.23-.53-.45-1.06-.7-1.56-2.84-5.78-6.72-8.97-10.94-8.98h-.03c-4.21,0-8.11,3.16-10.97,8.91-.26,.52-.5,1.08-.74,1.63-.6-.03-1.2-.07-1.79-.07h-.05c-1.87,0-3.59,.18-5.12,.53-.51-.57-1.25-.94-2.07-.94-1.54,0-2.79,1.25-2.79,2.79,0,.06,.01,.13,.02,.19-1.26,.88-2.23,1.98-2.88,3.28-1.79,3.6-.86,8.22,2.6,13.07-3.46,4.85-4.39,9.47-2.6,13.07,.64,1.29,1.6,2.37,2.83,3.25,0,.06-.02,.12-.02,.18,0,1.54,1.25,2.79,2.79,2.79,.81,0,1.54-.35,2.05-.91,1.56,.36,3.3,.54,5.2,.54h.04c.56,0,1.14-.03,1.71-.07,.23,.53,.45,1.06,.7,1.56,2.84,5.78,6.72,8.97,10.94,8.98h.03c4.21,0,8.11-3.16,10.97-8.91,.26-.52,.5-1.08,.74-1.63,.6,.03,1.2,.07,1.79,.07h.05c1.58,0,3.05-.13,4.39-.37,.49,.42,1.11,.68,1.81,.68,1.34,0,2.46-.95,2.73-2.22,1.77-.97,3.1-2.29,3.92-3.94,1.79-3.6,.86-8.22-2.6-13.07,3.46-4.85,4.39-9.47,2.6-13.07Zm-12.89-3.31h.04c1.23,0,2.37,.09,3.43,.25,.2,1.34,1.35,2.37,2.74,2.37,.75,0,1.43-.3,1.94-.79,1.11,.69,1.95,1.56,2.47,2.61,1.32,2.67,.47,6.18-1.97,9.84-2.06-2.42-4.64-4.74-7.6-6.86-.42-2.62-1.02-5.1-1.79-7.39,.25,0,.51-.03,.76-.03Zm-7.83,27.7c-1.86,.92-3.74,1.72-5.61,2.4-1.87-.68-3.75-1.47-5.63-2.4-2.33-1.16-4.51-2.45-6.51-3.83-.34-2.4-.52-4.93-.51-7.53,0-2.59,.2-5.1,.55-7.49,1.99-1.36,4.16-2.65,6.47-3.8,1.86-.92,3.74-1.72,5.61-2.4,1.87,.68,3.75,1.47,5.63,2.4,2.33,1.16,4.51,2.45,6.51,3.83,.34,2.4,.52,4.93,.51,7.53,0,2.59-.2,5.1-.55,7.49-1.99,1.36-4.16,2.65-6.47,3.8Zm5.85-.35c-.4,1.84-.9,3.57-1.48,5.16-1.95-.23-4.01-.62-6.14-1.2,.97-.42,1.94-.86,2.91-1.34h0c1.64-.81,3.21-1.69,4.72-2.62Zm-15.28,3.97c-2.14,.59-4.23,.99-6.24,1.21-.58-1.61-1.08-3.37-1.47-5.22,1.52,.94,3.12,1.83,4.77,2.66,.98,.48,1.96,.93,2.94,1.35Zm-11.12-9.53c-2.18-1.75-4.07-3.58-5.58-5.42,1.52-1.84,3.41-3.68,5.61-5.44-.17,1.76-.27,3.56-.27,5.39,0,1.85,.08,3.68,.24,5.46Zm3.47-16.39c.4-1.84,.9-3.57,1.48-5.16,1.95,.23,4.01,.62,6.14,1.2-.97,.42-1.94,.86-2.91,1.34-1.64,.81-3.21,1.69-4.72,2.62Zm15.28-3.97c2.14-.59,4.23-.99,6.24-1.21,.58,1.61,1.07,3.37,1.47,5.22-1.52-.94-3.12-1.83-4.77-2.66-.98-.48-1.96-.93-2.94-1.35Zm11.12,9.53c2.18,1.75,4.07,3.58,5.58,5.42-1.52,1.84-3.41,3.68-5.61,5.44,.17-1.76,.27-3.56,.27-5.39,0-1.85-.08-3.68-.24-5.46ZM32.07,5.14h.02c3.48,.01,6.68,3.21,8.98,8.25-2.91,.38-5.97,1.13-9.06,2.19-3.06-1.06-6.09-1.8-8.98-2.19,2.33-5.06,5.55-8.26,9.04-8.26ZM7.95,20.05c.44-.88,1.09-1.62,1.92-2.23,.42,.26,.92,.42,1.45,.42,1.33,0,2.44-.93,2.71-2.18,1.33-.29,2.82-.43,4.42-.43,.3,0,.62,.02,.92,.03-.78,2.27-1.39,4.74-1.82,7.34-2.98,2.13-5.57,4.46-7.65,6.89-2.45-3.66-3.29-7.18-1.97-9.84Zm10.61,28.32h-.04c-1.67,0-3.19-.15-4.52-.45-.26-1.27-1.38-2.22-2.73-2.22-.54,0-1.04,.16-1.46,.42-.81-.61-1.44-1.35-1.86-2.2-1.32-2.67-.47-6.18,1.97-9.84,2.06,2.42,4.64,4.74,7.6,6.86,.42,2.62,1.02,5.1,1.8,7.39-.25,0-.51,.03-.76,.03Zm13.38,10.48h-.02c-3.48-.01-6.68-3.21-8.98-8.25,2.91-.38,5.97-1.13,9.06-2.19,3.06,1.06,6.09,1.8,8.98,2.19-2.33,5.06-5.55,8.26-9.04,8.26Zm24.12-14.91c-.51,1.03-1.33,1.88-2.38,2.55-.51-.52-1.21-.84-1.99-.84-1.43,0-2.6,1.08-2.75,2.47-1.05,.16-2.18,.24-3.38,.24-.3,0-.62-.02-.92-.03,.78-2.27,1.39-4.74,1.82-7.34,2.98-2.13,5.57-4.46,7.65-6.89,2.45,3.66,3.29,7.18,1.97,9.84Z"/></svg>