<?xml version="1.0" encoding="UTF-8"?><svg id="a" xmlns="http://www.w3.org/2000/svg" viewBox="0 0 386.53 350.15"><defs><style>.b{fill:#e36c70;}.c{fill:#d20911;}</style></defs><path class="c" d="M127.35,343.07c-2.45-1.5-4.15-3.49-3.14-6.52,1.01-3.02,3.58-3.47,6.44-3.43,6.6,.09,13.21,.03,20.19,.03,3.27-10.69,6.54-21.35,9.98-32.57-1.75,0-3.02,0-4.29,0-31.73,0-63.47,.04-95.2-.02-17.51-.03-31.34-10.66-35.41-27.07-.53-2.12-.96-4.33-.98-6.51-.11-12.12-.11-24.24-.07-36.36,0-3.37,1.98-5.42,4.91-5.44,2.93-.02,4.84,2.03,4.98,5.38,.03,.77,0,1.54,0,2.31,0,10.36-.02,20.72,0,31.07,.04,15.72,10.85,26.68,26.56,26.69,88.59,.04,177.18,.04,265.77,0,15.53,0,26.41-11,26.42-26.49,.03-62.48,.03-124.95,0-187.43,0-15.48-10.89-26.35-26.44-26.49-8.59-.07-17.19,0-25.78-.02-4.04-.01-6.16-1.65-6.27-4.73-.11-3.17,2.22-5.19,6.26-5.17,10.24,.06,20.54-.42,30.71,.46,15.97,1.39,27.93,13.12,30.88,28.97,.1,.52,.38,1.01,.57,1.51v198.4c-.13,.18-.32,.34-.37,.53-4.91,20.63-17.31,30.39-38.62,30.39-30.93,0-61.85,0-92.78,0-1.25,0-2.5,0-4.21,0,3.43,11.2,6.66,21.78,9.96,32.57,6.82,0,13.51,.06,20.21-.03,2.86-.04,5.42,.42,6.43,3.43,1.01,3.02-.69,5.01-3.13,6.51H127.35Zm33.94-10.11h65.71c-3.21-10.45-6.29-20.63-9.52-30.78-.23-.71-1.53-1.53-2.33-1.53-13.98-.09-27.96-.09-41.94,0-.82,0-2.14,.79-2.36,1.49-3.24,10.14-6.33,20.33-9.55,30.82Z"/><path class="b" d="M298.06,123.28h-32.34c-.94,24.41-5.79,47.71-17.29,69.45,3.92,1.58,7.64,3.22,11.48,4.52,.8,.27,2.23-.51,3.03-1.2,7.75-6.66,14.23-14.41,19.66-23.05,.64-1.02,1.23-2.12,2.06-2.98,1.73-1.8,3.85-2.17,6-.85,2.24,1.37,3.02,3.43,2.07,5.97-.31,.81-.78,1.58-1.25,2.31-20.6,32.12-49.76,50.69-87.85,53.86-59.81,4.98-112.51-36.84-121.71-96.14-3.08-19.87-.95-39.32,6.44-58.09,.81-2.05,.73-3.43-.62-5.32-4.11-5.73-4.37-11.95-.72-17.99,3.64-6.03,9.23-8.73,16.25-7.75,2.31,.32,3.57-.41,5.01-2.04C128.49,21.12,153.67,7.72,184.19,5.04c60.43-5.31,113.93,36.82,122.83,96.72,2.59,17.47,1.15,34.72-4.37,51.56-1.28,3.9-3.71,5.5-6.77,4.47-2.82-.95-3.59-3.62-2.69-7.44,1.66-7.06,3.12-14.16,4.53-21.28,.36-1.8,.24-3.7,.35-5.79ZM189.35,52.09c-.62-.17-.93-.3-1.25-.34-11.98-1.65-23.96-3.24-35.93-4.98-1.87-.27-2.64,.45-3.22,1.92-3.45,8.79-6.98,17.55-10.29,26.39-1.37,3.66-3.41,5.43-6.37,4.7-3.04-.75-4.44-3.59-3.12-7.45,3.31-9.64,6.86-19.21,10.4-29.07-3.07-1.24-6.8-2.8-10.59-4.22-.58-.22-1.63-.04-2.07,.37-4.36,4.13-8.64,8.35-12.84,12.46,8.08,11.39,1.07,28.15-15.78,26.93-4.41,10.92-7.2,22.2-7.47,34.14h32.22c.38-4.99,.68-9.81,1.12-14.61,.37-4.08,2.48-6.22,5.62-5.9,3.04,.31,4.52,2.58,4.26,6.61-.3,4.58-.64,9.15-.97,13.87h56.26V52.09Zm-56.42,71.19c.57,6.17,.92,12.18,1.71,18.13,2.13,16.15,6.6,31.6,14.23,46.08,.99,1.88,1.96,2.45,4.11,1.87,3.81-1.02,7.71-1.85,11.62-2.38,8.16-1.09,16.35-1.93,24.88-2.91,0-4.66,.07-9.49-.07-14.31-.02-.72-.85-1.7-1.57-2.06-6.27-3.15-9.88-8.13-9.89-15.16-.02-7.02,3.51-12.06,9.8-15.21,.73-.36,1.63-1.3,1.65-2,.16-3.94,.08-7.89,.08-12.05h-56.55Zm122.76,.02h-56.28c0,4.08-.1,7.93,.08,11.77,.04,.81,.93,1.89,1.71,2.29,6.23,3.23,9.72,8.2,9.67,15.28-.06,6.94-3.54,11.81-9.65,14.95-.74,.38-1.7,1.28-1.72,1.96-.15,4.92-.08,9.85-.08,13.91,12.85,2.09,25.19,4.15,37.56,6.01,.84,.13,2.4-.97,2.78-1.87,3.32-7.76,6.93-15.46,9.54-23.47,4.27-13.13,6.03-26.76,6.4-40.85Zm-56.12-71.26v60.91h56.21c-.26-3.58-.61-6.94-.7-10.31-.06-2.2-.57-3.4-3.01-4.17-7.07-2.24-11.23-8.51-11.14-15.81,.07-5.87,2.96-10.19,7.84-14.01-2.97-6.62-5.99-13.19-8.86-19.82-.89-2.06-2.07-2.31-4.12-1.87-5.8,1.23-11.63,2.42-17.5,3.23-6.19,.85-12.44,1.25-18.73,1.85ZM123.15,123.31h-32.62c.63,4.86,.98,9.46,1.84,13.96,4.52,23.52,15.85,43.19,33.85,58.99,.71,.62,2.04,1.25,2.77,.99,3.82-1.33,7.55-2.95,11.42-4.51-11.49-21.76-16.38-45.03-17.26-69.43ZM248.87,43.42c2.94,7.31,5.76,14.45,8.74,21.52,.32,.77,1.48,1.47,2.36,1.66,7.02,1.5,11.79,5.55,13.43,12.53,1.71,7.27-.85,13.18-6.87,17.62-.72,.53-1.69,1.43-1.66,2.12,.17,4.69,.58,9.38,.91,13.97h32.55c-.6-4.59-.95-8.87-1.73-13.07-4.38-23.68-15.66-43.5-33.68-59.46-.79-.7-2.24-1.5-3.04-1.23-3.83,1.29-7.54,2.93-11.02,4.33Zm-92.95-5.91c11.32,2.65,22.2,4.17,33.38,4.18V14.74c-14.6,2.58-24.6,11.26-33.38,22.77Zm33.42,156.42c-11.2,1.42-22.02,2.8-32.85,4.17l-.11,1.22c8.37,11.06,18.36,19.75,32.96,22.26v-27.66Zm10.24,27.7c14.63-2.67,24.6-11.3,32.93-22.3l-.21-1.26c-10.82-1.36-21.63-2.71-32.72-4.1v27.66ZM233.33,38.08c-9.28-11.98-19.2-20.79-33.68-23.29v27.6c11.16-1.43,21.98-2.81,33.68-4.31Zm17.54,44.83c-.03,3.62,2.79,6.58,6.37,6.68,3.6,.1,6.82-3.09,6.76-6.7-.05-3.55-3.02-6.43-6.62-6.43-3.68,0-6.48,2.78-6.51,6.45Zm-49.93,69.68c.05-3.67-2.7-6.55-6.34-6.64-3.75-.09-6.79,2.89-6.75,6.61,.04,3.55,3.03,6.54,6.55,6.55,3.56,.01,6.49-2.91,6.54-6.52ZM107.63,62.11c-.07-3.61-3-6.46-6.6-6.41-3.57,.05-6.53,3.01-6.54,6.56-.01,3.69,3.08,6.64,6.85,6.52,3.65-.11,6.36-2.98,6.29-6.67Zm30.01-31.14l.2,.94c2.23,.8,4.45,1.67,6.72,2.34,.56,.16,1.57-.11,1.93-.54,3.07-3.76,6.04-7.61,9.04-11.43l-.35-.54-17.54,9.24Zm113.93,.2c-6.16-3.23-11.91-6.23-17.66-9.24,1.44,2.94,3.37,5.13,5.19,7.42q4.52,5.7,11.26,2.82c.18-.08,.32-.26,1.21-1Zm-.36,174.21l-.22-.99c-2.06-.74-4.1-1.55-6.2-2.16-.7-.2-1.91-.18-2.27,.26-3.07,3.73-6,7.58-8.97,11.39l.4,.61c5.75-3.03,11.5-6.07,17.26-9.1Zm-96.24,9.09l.32-.65c-2.83-3.61-5.62-7.25-8.54-10.79-.47-.57-1.65-1.05-2.31-.88-2.27,.59-4.45,1.49-7.75,2.65,6.68,3.53,12.48,6.59,18.28,9.66Z"/><path class="c" d="M193.99,261.15c-43.86,0-87.72,0-131.58,0-11.64,0-17.76-6.09-17.76-17.67,0-55.54,0-111.08,0-166.62,0-11.45,6.11-17.58,17.49-17.59,2.42,0,4.85-.06,7.27,.02,3.04,.1,4.93,1.83,5.09,4.52,.18,2.84-1.64,5.05-4.72,5.28-2.85,.22-5.73,.05-8.59,.1-4.56,.07-6.61,2.09-6.61,6.73-.02,56.2-.02,112.4,0,168.6,0,4.79,2.13,6.7,7.32,6.7,49.81,0,99.62,0,149.43,0,38.13,0,76.26,0,114.38,0,6.32,0,7.99-1.68,7.99-8.02,0-15.32-.03-30.63,.05-45.95,0-1.57,.2-3.62,1.16-4.59,1.12-1.13,3.36-2.03,4.82-1.69,1.46,.33,2.72,2.18,3.72,3.61,.48,.68,.17,1.93,.17,2.92,0,15.54,.02,31.08,0,46.61-.01,10.7-6.35,17.03-17.07,17.04-44.19,.01-88.38,0-132.57,0Z"/><path class="c" d="M24.84,140.06c0-20.93-.02-41.86,0-62.79,.02-21.6,15.15-36.82,36.72-36.97,3.97-.03,7.93-.05,11.9,.01,3.76,.06,6.1,2.1,6.02,5.12-.08,2.96-2.24,4.74-5.92,4.78-4.3,.04-8.59-.06-12.89,.03-15.12,.29-25.89,11.2-25.9,26.34-.03,42.52-.01,85.04-.01,127.55,0,1.1,.09,2.22-.06,3.3-.4,2.78-2.14,4.45-4.88,4.46-2.74,0-4.49-1.64-4.91-4.42-.15-.97-.06-1.98-.06-2.97,0-21.48,0-42.96,0-64.44Z"/><path class="c" d="M343.63,122.65c0,15.64,0,31.28,0,46.92,0,.99,.08,2-.05,2.97-.37,2.77-2,4.44-4.81,4.5-2.83,.06-4.48-1.61-4.97-4.33-.19-1.07-.09-2.2-.09-3.3,0-30.73,0-61.46,0-92.19,0-6.38-1.63-8.02-7.97-8.03-4.74,0-9.47,.04-14.21-.02-3.83-.04-6.15-1.97-6.18-4.98-.03-3.02,2.28-4.9,6.12-4.92,5.4-.03,10.79-.04,16.19,0,9.35,.08,15.92,6.67,15.96,16.12,.06,15.75,.02,31.5,.02,47.25Z"/><path class="c" d="M93.02,225.19c5.4,0,10.79-.04,16.19,.01,3.72,.03,5.83,1.8,5.91,4.77,.08,3.06-2.19,5.1-5.98,5.12-10.79,.05-21.59,.05-32.38,0-3.65-.02-5.82-1.9-5.9-4.85-.08-3.12,2.08-5,5.96-5.04,5.4-.05,10.79-.01,16.19-.01Z"/><path class="c" d="M86.38,211.96c-3.31,0-6.61,.07-9.91-.02-3.56-.1-5.68-2.13-5.58-5.15,.09-2.91,2.09-4.69,5.6-4.73,6.61-.06,13.22-.06,19.83,0,3.46,.03,5.53,1.87,5.62,4.73,.1,2.94-2.12,5.04-5.64,5.14-3.3,.09-6.61,.02-9.91,.02Z"/><path class="c" d="M77.33,280.9c-3.2,0-6.39,.06-9.59-.02-3.36-.09-5.42-2.04-5.42-4.96,0-2.93,2.05-4.89,5.42-4.92,6.39-.06,12.78-.06,19.18,0,3.35,.03,5.42,2.01,5.42,4.93,0,2.9-2.09,4.87-5.43,4.95-3.19,.08-6.39,.02-9.59,.02Z"/><path class="c" d="M116.88,280.9c-3.2,0-6.39,.08-9.59-.02-3.31-.1-5.34-2.15-5.27-5.09,.07-2.82,2.05-4.74,5.22-4.77,6.5-.07,13.01-.07,19.51,0,3.17,.03,5.18,1.95,5.27,4.73,.1,2.93-1.94,5.03-5.23,5.13-3.3,.1-6.61,.02-9.92,.02Z"/></svg>