<?xml version="1.0" encoding="UTF-8"?><svg id="a" xmlns="http://www.w3.org/2000/svg" viewBox="0 0 64 64"><defs><style>.b{fill:#d00a10;}</style></defs><path class="b" d="M49.65,18.69c-4.09-14.68-24.76-10.69-22.17,6.71h.05c-3.02,18.25,20.61,21.54,22.35,4.6,0-.63-.31-1.02-.83-1.04s-.84,.35-.89,.99c-.28,11.89-17.91,12.51-18.92,.71-.14-3.47-.18-6.95,0-10.41,.79-12.08,19.12-11.2,18.93,.85,.02,1.51,0,3.03,0,4.55-.07,.67,.07,1.62,.87,1.58,.5,0,.85-.36,.86-.95-.07-2.52,.19-5.08-.23-7.58Z"/><path class="b" d="M46.39,20.45c-.68-9.83-15.38-9.45-15.47,.52-.08,1.04,1.58,1.16,1.68,.08,.02-7.67,11.48-8.25,12.04-.59,.11,3.27,.12,6.56,0,9.84-.46,7.65-12.19,7.13-12.02-.67-.02-1.71,0-3.41-.01-5.12,0-.6-.35-.95-.85-.96s-.86,.35-.86,.95c0,1.99-.06,3.99,.05,5.98,.58,9.31,14.87,9.29,15.43-.02,.09-1.68,.02-3.37,.02-5.06h.01c0-1.65,.07-3.3-.02-4.94Z"/><path class="b" d="M42.93,20.55c-.4-5.22-8.31-5.15-8.56,.12-.07,1.61-.03,3.22-.04,4.83-.05,.67-.03,1.72,.85,1.72,.7,.04,.95-.73,.88-1.34,0-1.53,0-3.07,0-4.6-.13-1.62,1.19-3.11,2.85-2.9,2.67,.31,2.35,3.1,2.31,5.11,0,2.05,.01,4.11,0,6.16,0,1.33-.69,2.29-1.81,2.64-1.71,.54-3.33-.78-3.37-2.39-.02-.64-.42-.98-.93-.94-2.16,.51,.31,5.38,3.4,5.17,4.94-.03,4.55-5.05,4.44-8.69h-.03c0-1.63,.05-3.26-.01-4.89Z"/><path class="b" d="M39.5,20.9c-.03-1.08-1.65-1.05-1.69,0,0,2.97-.07,5.95,.02,8.91,.06,.62,.82,1.11,1.36,.64,.67-.8,.21-3.8,.34-5-.01-1.51,.03-3.03-.02-4.54Z"/><path class="b" d="M53.8,10.15c-8.4-8.42-22.04-8.42-30.46-.02-7.27,7.26-8.4,18.66-2.69,27.21-4.92,4.92-9.84,9.83-14.76,14.75-1.22,1.13-2.21,2.55-1.97,4.29,.6,3.35,4.79,4.78,7.22,2.12,5.02-5.17,10.37-10.07,15.22-15.38,9.8,6.74,23.21,4.27,29.95-5.53,5.89-8.56,4.83-20.1-2.52-27.44ZM7.38,58.14c-2.12-.52-2.4-3.59-.53-4.58l3.42,3.42c-.83,1.07-1.8,1.46-2.9,1.16Zm17.6-15.94l-2.13,2.13-3.35-3.42,2.11-2.11,.86,.87c.28,.31,.57,.62,.87,.92,.26,.26,.52,.51,.79,.75l.84,.85Zm13.59,2.14c-10.46,0-18.97-8.51-18.97-18.97S28.11,6.4,38.57,6.4s18.97,8.51,18.97,18.97-8.51,18.97-18.97,18.97h0Z"/></svg>