<?xml version="1.0" encoding="UTF-8"?><svg id="a" xmlns="http://www.w3.org/2000/svg" viewBox="0 0 64 64"><defs><style>.b{fill:#d00a10;}</style></defs><path class="b" d="M58.67,21.26H6.43l-.06-.17c2.35-1.46,4.72-2.91,7.06-4.39,5.1-3.2,10.18-6.42,15.27-9.62,1.11-.7,2.21-1.4,3.34-2.06,.23-.13,.67-.16,.88-.02,5.88,3.66,11.74,7.34,17.6,11.02,2.63,1.65,5.26,3.32,7.89,4.98,.06,.04,.11,.11,.25,.26Z"/><path class="b" d="M32.63,57.87c-8.32,0-16.64-.01-24.97,.02-.85,0-1.11-.23-1.09-1.08,.06-2.12,1.2-3.35,3.31-3.35,15.21-.01,30.42-.01,45.63,0,2.23,0,3.52,1.55,3.27,3.8-.06,.58-.38,.62-.84,.62-2.52-.01-5.04,0-7.56,0-5.92,0-11.84,0-17.76,0Z"/><path class="b" d="M32.6,51.54c-6.74,0-13.47,0-20.21,0-1.05,0-1.23-.25-.94-1.25,.42-1.45,1.52-2.25,3.14-2.25,7.62,0,15.23,0,22.85,0,4.45,0,8.9-.02,13.36,0,1.74,0,2.84,.86,3.15,2.42,.19,.93,.07,1.08-.88,1.08-6.82,0-13.65,0-20.47,0Z"/><path class="b" d="M32.74,23.33c7.15,0,14.3,0,21.45,0,1.08,0,1.26,.24,.87,1.23-.4,1.03-1.1,1.7-2.25,1.79-.38,.03-.76,.07-1.14,.07-12.66,0-25.32,0-37.98,.01-1.44,0-2.68-.27-3.3-1.75-.45-1.06-.26-1.35,.9-1.35,7.15,0,14.3,0,21.45,0Z"/><path class="b" d="M45.42,28.43h4.28v17.59h-4.28V28.43Z"/><path class="b" d="M20.07,28.44v17.56h-4.22V28.44h4.22Z"/><path class="b" d="M35.6,28.45h4.28v17.59h-4.28V28.45Z"/><path class="b" d="M25.71,28.45h4.28v17.59h-4.28V28.45Z"/></svg>