<?xml version="1.0" encoding="UTF-8"?><svg id="a" xmlns="http://www.w3.org/2000/svg" viewBox="0 0 64 64"><defs><style>.b{fill:#d00a10;}</style></defs><path class="b" d="M53.31,38.25c.19-1.03,.19-2.09,0-3.12l1.89-1.09c.22-.12,.32-.38,.24-.62-.49-1.58-1.33-3.02-2.43-4.21-.17-.18-.44-.23-.66-.1l-1.89,1.09c-.8-.68-1.72-1.21-2.71-1.56v-2.19c0-.25-.18-.47-.42-.52-1.64-.37-3.3-.35-4.85,0-.24,.05-.42,.27-.42,.52v2.19c-.99,.35-1.91,.88-2.71,1.56l-1.89-1.09c-.21-.12-.49-.08-.66,.1-1.1,1.19-1.94,2.63-2.43,4.21-.07,.24,.03,.5,.24,.62l1.89,1.09c-.19,1.03-.19,2.09,0,3.12l-1.89,1.09c-.22,.12-.32,.38-.24,.62,.49,1.58,1.33,3.01,2.43,4.21,.17,.18,.44,.23,.66,.1l1.89-1.09c.8,.68,1.72,1.21,2.71,1.56v2.19c0,.25,.18,.47,.42,.52,1.64,.37,3.3,.35,4.85,0,.24-.05,.42-.27,.42-.52v-2.19c.99-.35,1.91-.88,2.71-1.56l1.89,1.09c.21,.12,.49,.08,.66-.1,1.1-1.19,1.94-2.63,2.43-4.21,.07-.24-.03-.5-.24-.62l-1.89-1.09Zm-8.4,1.99c-1.97,0-3.56-1.6-3.56-3.56s1.6-3.56,3.56-3.56,3.56,1.6,3.56,3.56-1.59,3.56-3.56,3.56ZM15.58,29.65c2.59,0,4.69-2.1,4.69-4.69s-2.1-4.69-4.69-4.69-4.69,2.1-4.69,4.69,2.1,4.69,4.69,4.69Zm16.43,2.35c.14,0,.27-.04,.41-.04,.61-1.59,1.5-3.09,2.66-4.34,.54-.59,1.31-.92,2.12-.92,.51,0,1,.13,1.44,.39l.58,.34c.06-.04,.12-.07,.18-.1,.51-1.07,.82-2.26,.82-3.52,0-4.54-3.67-8.21-8.21-8.21s-8.21,3.67-8.21,8.21,3.67,8.21,8.21,8.21Zm7.71,14.26c-.17-.09-.34-.19-.5-.29-.6,.35-1.12,.72-2.02,.72-.8,0-1.57-.34-2.12-.92-1.34-1.45-2.37-3.22-2.95-5.1-.78-2.53,1.83-3.64,1.89-3.69,0-.19,0-.38,0-.57l-.58-.34c-.28-.16-.51-.37-.72-.59-.24,.01-.48,.04-.72,.04-1.8,0-3.49-.44-5.02-1.17h-.61c-4.67,0-8.46,3.78-8.46,8.45v2.11c0,1.94,1.58,3.52,3.52,3.52h18.73c-.27-.44-.45-.94-.45-1.49v-.67h0Zm-18.49-12.9c-.85-.84-2.02-1.36-3.31-1.36h-4.69c-2.59,0-4.69,2.1-4.69,4.69v2.35c0,1.3,1.05,2.35,2.35,2.35h4.83c.46-3.48,2.56-6.4,5.51-8.02Z"/></svg>