<?xml version="1.0" encoding="UTF-8"?><svg id="a" xmlns="http://www.w3.org/2000/svg" viewBox="0 0 64 64"><defs><style>.b{fill:#d00a10;}</style></defs><path class="b" d="M47.25,35.48c-2.16-.9-4.98-1.58-8.19-1.99,.18-1.79,.27-3.65,.27-5.5s-.09-3.71-.27-5.51c3.21-.4,6.03-1.09,8.19-1.99,1.11,2.26,1.74,4.81,1.74,7.5s-.62,5.23-1.74,7.49h0ZM31.39,11.02c.2,0,.41-.01,.61-.01s.41,0,.61,.01c1.21,.82,2.78,3.93,3.61,9.2-2.83,.21-5.76,.19-8.44-.04,.83-5.25,2.4-8.35,3.61-9.16h0Zm-4.18,16.98c0-1.92,.09-3.69,.25-5.29,1.54,.14,3.14,.2,4.79,.2,1.43,0,2.87-.06,4.28-.16,.16,1.6,.25,3.35,.25,5.25s-.09,3.65-.25,5.25c-1.38-.12-2.81-.16-4.28-.16-1.64,0-3.25,.06-4.79,.2-.16-1.6-.25-3.37-.25-5.28h0Zm18.72-9.71c-1.9,.74-4.37,1.32-7.19,1.68-.51-3.34-1.35-6.31-2.5-8.42,3.98,1.02,7.4,3.46,9.69,6.75h0Zm-18.17-6.75c-1.15,2.1-1.99,5.05-2.5,8.36-2.78-.38-5.25-1-7.08-1.77,2.29-3.2,5.66-5.58,9.58-6.59h0Zm17.07,31.88c4.5-3.71,7.34-9.15,7.34-15.42,0-11.13-9.05-20.18-20.17-20.18-9.91,0-18.17,7.18-19.86,16.61-.21,1.16-.32,2.35-.32,3.57,0,11.13,5.92,19.86,17.33,23.15v5.04l16.82-9.71-16.82-9.71v4.77c-9.21,0-14.12-7.47-14.12-14.55,.05-.87,.16-1.72,.34-2.54,.31-1.44,.8-2.82,1.46-4.1,2.1,.94,4.9,1.66,8.1,2.1-.19,1.81-.28,3.69-.28,5.57s.09,3.75,.28,5.56c-1.95,.26-3.75,.64-5.33,1.1,.1,.11,.18,.23,.27,.34,.28,.35,.54,.7,.81,.96l.06,.06,.06,.07c.21,.23,.45,.45,.73,.68,1.14-.27,2.39-.51,3.71-.69,.18,1.13,.39,2.22,.64,3.25h0c.41,.13,.77,.23,1.02,.25h.08s.18,.02,.24,.02v-6.16l3.8,2.19c.4,0,.8-.01,1.2-.01,1.36,0,2.7,.05,3.97,.15-.15,.92-.31,1.78-.5,2.57l2.29,1.32c.29-1.14,.54-2.37,.73-3.64,2.83,.35,5.3,.93,7.19,1.67-1.13,1.61-2.52,3.02-4.13,4.16l3.02,1.56Zm0,0"/></svg>