<?xml version="1.0" encoding="UTF-8"?><svg id="a" xmlns="http://www.w3.org/2000/svg" viewBox="0 0 64 64"><defs><style>.b{fill:#d00a10;fill-rule:evenodd;}</style></defs><path class="b" d="M23.45,11.9h20.24l9.1,9.1v29.38c0,.95-.77,1.72-1.72,1.72H23.45c-.94,0-1.72-.77-1.72-1.72v-2.38l2.51-2.51v2.73c-.01,.79,.64,1.43,1.42,1.43h23.1c.79,0,1.43-.65,1.43-1.43l.07-26.27h-5.38c-1.18,0-2.15-.97-2.15-2.15v-5.45H25.76c-.79,0-1.43,.64-1.44,1.43l-.05,16.3-2.54,2.54V13.62c0-.95,.77-1.72,1.72-1.72h0ZM12.92,45.54l4.59,4.59,13.53-13.53-4.59-4.59-13.53,13.52h0Zm15.85-15.88l4.63,4.63,1.7-6.32-6.32,1.69h0Zm-12.01,21.26c-.59,.59-1.41,.96-2.31,.96-1.79,0-3.25-1.46-3.25-3.25,0-.87,.34-1.65,.9-2.24l.07-.06,4.59,4.59h0Zm9.4-26.82v2.09h22.22v-2.09H26.16Zm0-6.64v2.09h14.42v-2.09h-14.42Z"/></svg>