<?xml version="1.0" encoding="UTF-8"?><svg id="a" xmlns="http://www.w3.org/2000/svg" viewBox="0 0 64 64"><defs><style>.b{fill:#d00a10;}</style></defs><path class="b" d="M57.82,21.61v2.38c0,.06-.03,.11-.03,.17,0,1.49-.07,2.98-.21,4.46-.11,1.14-.22,2.28-.38,3.41-.24,1.84-.6,3.65-1.06,5.45-.73,2.85-1.72,5.6-3.07,8.22-1.51,2.94-3.41,5.59-5.78,7.9-2.73,2.66-5.87,4.66-9.43,6-1.68,.63-3.4,1.09-5.18,1.31-.15,.02-.3,.04-.45,.07h-.44s-.09-.03-.13-.03c-.57-.09-1.14-.15-1.71-.26-2.69-.54-5.23-1.52-7.62-2.87-3.94-2.23-7.09-5.29-9.59-9.05-1.67-2.52-2.95-5.23-3.92-8.09-.83-2.44-1.43-4.94-1.83-7.49-.16-.99-.29-1.99-.4-2.99-.11-1.03-.2-2.07-.26-3.11-.06-1-.08-2.01-.12-3.02,0-.16-.03-.33-.04-.49,0-.53,0-1.06,0-1.59,.01-.04,.03-.09,.03-.13,.01-.32,.02-.63,.03-.95,.05-1.14,.07-2.29,.15-3.43,.09-1.41,.22-2.81,.35-4.21,.07-.82,.5-1.37,1.28-1.66,7-2.54,13.99-5.08,20.99-7.61,.93-.34,1.87-.66,2.8-.99h.44c.16,.05,.31,.09,.47,.15,.93,.33,1.85,.67,2.78,1.01,6.85,2.49,13.71,4.97,20.56,7.46,.76,.28,1.18,.82,1.26,1.63,.06,.62,.12,1.24,.17,1.86,.08,1.02,.17,2.05,.22,3.07,.05,1.08,.07,2.17,.1,3.26,0,.06,.02,.11,.03,.17Zm-4.03-6.93c-.1-.04-.18-.07-.26-.1-7.1-2.58-14.2-5.15-21.3-7.73-.15-.06-.28-.05-.44,0-5.12,1.86-10.25,3.72-15.37,5.58-2,.73-4,1.45-6.01,2.18-.11,.04-.19,.07-.2,.22-.07,.98-.16,1.97-.22,2.95-.1,1.62-.16,3.24-.16,4.86,0,1.53,.03,3.06,.14,4.58,.07,.98,.15,1.97,.26,2.95,.13,1.2,.31,2.4,.54,3.59,.39,2.1,.93,4.17,1.64,6.19,.89,2.52,2.05,4.91,3.56,7.12,1.87,2.74,4.16,5.06,6.95,6.86,2.61,1.68,5.43,2.84,8.51,3.34,.26,.04,.52,.1,.79,.05,.33-.05,.67-.1,1-.17,1.94-.39,3.8-1.04,5.57-1.92,3.39-1.68,6.2-4.06,8.48-7.07,1.8-2.38,3.16-4.99,4.19-7.79,1.31-3.54,2.04-7.21,2.41-10.96,.1-.95,.16-1.9,.22-2.85,.1-1.54,.12-3.08,.1-4.63-.03-2.12-.14-4.23-.32-6.35-.03-.3-.06-.61-.09-.92Z"/><path class="b" d="M39.45,27.48c.27,0,.5,0,.73,0,1.13-.02,2.27,.75,2.6,1.97,.06,.23,.1,.47,.1,.7,0,3.64,0,7.27,0,10.91,0,1.51-1.21,2.71-2.72,2.71-2.19,0-4.37,0-6.56,0-3.23,0-6.46,0-9.69,0-1.01,0-1.8-.44-2.35-1.28-.28-.43-.41-.9-.41-1.41,0-3.64,0-7.27,0-10.91,0-1.48,1.21-2.69,2.69-2.69,.24,0,.48,0,.74,0,0-.09,.01-.17,.01-.24,0-1.73,0-3.47,0-5.2,0-1.32,.42-2.5,1.27-3.51,.94-1.11,2.15-1.74,3.6-1.89,.21-.02,.42-.03,.63-.03,1.31,0,2.62,0,3.93,0,2.57,0,4.77,1.78,5.3,4.3,.09,.41,.11,.83,.11,1.24,0,1.68,0,3.36,0,5.05v.29Zm-3.64-.01c0-.06,0-.1,0-.14,0-1.79,0-3.59,0-5.38,0-.85-.68-1.59-1.52-1.69-.21-.02-.42-.02-.63-.02-1.2,0-2.41,0-3.61,0-1.05,0-1.82,.76-1.82,1.8,0,1.75,0,3.51,0,5.26,0,.06,0,.11,.01,.18h7.57Zm-4.92,10.04c0,.66,0,1.32,0,1.99,0,.44,.22,.66,.66,.66,.32,0,.64,0,.95,0,.07,0,.13,0,.2-.02,.25-.05,.42-.24,.45-.49,0-.07,0-.15,0-.22,0-1.3,0-2.61,0-3.91,0-.13,.03-.21,.15-.29,.61-.43,.94-1.02,.98-1.77,.07-1.49-1.35-2.66-2.8-2.28-.93,.25-1.51,.86-1.68,1.81-.16,.92,.18,1.68,.94,2.23,.12,.08,.16,.17,.16,.31,0,.66,0,1.32,0,1.99Z"/></svg>