<?xml version="1.0" encoding="UTF-8"?><svg id="a" xmlns="http://www.w3.org/2000/svg" viewBox="0 0 64 64"><defs><style>.b{fill:#d00a10;}</style></defs><path class="b" d="M32,37.49c0-.95,.27-1.83,.69-2.61-.41-.04-.81-.13-1.24-.13h-1.43c-1.9,.87-4.02,1.37-6.25,1.37s-4.34-.5-6.25-1.37h-1.43c-6.36,0-11.52,5.16-11.52,11.52v3.57c0,2.27,1.84,4.11,4.11,4.11h24.08c-.47-.81-.76-1.74-.76-2.74v-13.72Zm-8.23-5.49c6.06,0,10.97-4.91,10.97-10.97s-4.91-10.97-10.97-10.97-10.97,4.91-10.97,10.97,4.91,10.97,10.97,10.97Zm32.92,2.74h-2.74v-4.11c0-3.79-3.07-6.86-6.86-6.86s-6.86,3.07-6.86,6.86v4.11h-2.74c-1.52,0-2.74,1.23-2.74,2.74v13.72c0,1.52,1.23,2.74,2.74,2.74h19.2c1.52,0,2.74-1.23,2.74-2.74v-13.72c0-1.52-1.23-2.74-2.74-2.74Zm-6.86,0h-5.49v-4.11c0-1.51,1.23-2.74,2.74-2.74s2.74,1.23,2.74,2.74v4.11Z"/></svg>