<?xml version="1.0" encoding="UTF-8"?><svg id="a" xmlns="http://www.w3.org/2000/svg" viewBox="0 0 64 64"><defs><style>.b{fill:#d00a10;}</style></defs><path class="b" d="M54.27,36.87c-.73-.24-1.46-.48-2.2-.68-.01,0-.02,.01-.03,.02l-1.21-1.53c-.2-2.92-.82-5.77-2.05-8.49-2.08-4.59-5.71-7.08-10.79-7.92,1.4,3.61,.92,7.7-.54,11-.12-2.15-.35-5.07-.55-7.23-.16-1.73-.33-3.47-.94-5.12-.21-.58-.44-1.17-1.24-1.26-1.46-.17-2.91-.2-4.38-.12-1.24,.07-1.85,.73-2.21,1.79-.6,1.73-.85,3.53-.99,5.35-.16,2.11-.3,4.22-.45,6.34-.1,0-2.84-4.29-.92-10.63-3.13,.69-5.72,2.09-7.7,4.52-2.94,3.6-3.99,7.84-4.23,12.35,.39,.29,.8,.56,1.24,.83,4.5,2.79,10.51,4.33,16.94,4.33,1.37,0,2.72-.08,4.05-.21l3.63,1.94c-2,.29-4.07,.45-6.17,.45-7.13,0-16.36-1.32-20.46-5.66-.23-.24-.56-.36-.83-.54-.74-.07-1.47,.13-2.26,.41-.95,.34-1.42,.84-.94,1.86,.16,.36,.26,.75,.43,1.1,1.31,2.63,3.6,4.16,6.13,5.37,4.31,2.06,8.92,2.94,13.65,3.24,6.39,.41,12.67-.1,18.6-2.75,3.26-1.46,5.98-3.53,7.21-7.12,.31-.9,.05-1.36-.77-1.63Z"/></svg>