<?xml version="1.0" encoding="utf-8"?>
<!-- Generator: Adobe Illustrator 26.0.3, SVG Export Plug-In . SVG Version: 6.00 Build 0)  -->
<svg version="1.1" id="Capa_1" xmlns="http://www.w3.org/2000/svg" xmlns:xlink="http://www.w3.org/1999/xlink" x="0px" y="0px"
	 viewBox="0 0 1080 1080" style="enable-background:new 0 0 1080 1080;" xml:space="preserve">
<style type="text/css">
	.st0{fill:#D00A10;}
	.st1{fill:none;stroke:#000000;stroke-width:165;stroke-miterlimit:10;}
	.st2{fill:none;stroke:#000000;stroke-width:210;stroke-miterlimit:10;}
	.st3{fill:#FFFFFF;}
	.st4{fill-rule:evenodd;clip-rule:evenodd;fill:#003D7C;}
	.st5{fill-rule:evenodd;clip-rule:evenodd;fill:#D00A10;}
</style>
<path class="st0" d="M1000,416.9c-4.4,12.8-12.5,22.5-22.2,32.1c-76.1,75.3-151.7,151.3-227.4,227c-1.5,1.5-2.8,3.1-5.2,5.7
	c3.9,1.9,7.3,3.4,10.5,5.1c26.8,14.6,41.9,37.2,42.1,67.7c0.6,73.2,0,146.3,0.4,219.5c0.1,10.4-5.3,15.9-12.7,21c-3.5,0-7,0-10.5,0
	c-9.8-6.4-12-15.6-12-26.9c0.4-69.4,0.1-138.7,0.3-208.1c0-16.2-5.2-29.4-18.6-38.9c-1.6-1.1-3.6-1.6-7.3-3.2c0,5.1,0,8.8,0,12.4
	c0,41,0.1,82,0,123c0,12.2-4.8,18.6-14.2,19.9c-12.1,1.6-19.8-5.6-19.8-19.5c-0.1-38.5,0-77.1-0.1-115.6c0-3.7-0.3-7.4-0.6-13.7
	c-4.7,4.4-7.6,7.1-10.5,9.9c-77.6,77.5-155.4,154.7-232.4,232.9c-17.3,17.6-36.2,21-58.3,15c-44.9-12.2-91.9-65.7-93.7-106.3
	c-0.7-15.7,3.6-28.5,14.8-39.7c86.1-85.8,172-171.9,258-257.8c87.9-87.9,176.1-175.7,263.7-264c17.9-18.1,38.6-23.1,61.2-15.4
	c46.7,15.9,77.9,47.9,92.3,95.6c0.6,1.9,1.5,3.8,2.3,5.7C1000,405.7,1000,411.3,1000,416.9z M593.2,616c-2.2,1.8-3.6,2.8-4.8,4
	c-80.3,80.2-160.5,160.5-240.8,240.7c-5.4,5.4-6.7,11-4.3,18.1c11.3,34.2,34.6,56.8,67.6,69.9c8.9,3.5,16.2,1.5,23.5-5.9
	c78-78.5,156.4-156.7,234.6-235c2.6-2.6,4.9-5.3,7.8-8.4C637.7,682.1,610.4,654.8,593.2,616z M847.4,361.4c-3.6,3.4-6.4,5.9-9.1,8.6
	c-24.8,24.7-49.5,49.5-74.3,74.3c-43.3,43.3-86.7,86.7-130,130c-12.4,12.4-13.4,16.4-6.3,32.3c11.7,26.3,30.9,45.6,57,57.7
	c17.1,7.9,20.7,7,34-6.3c67.9-67.9,135.7-135.7,203.6-203.6c2.4-2.4,4.5-5,7.5-8.3C891.5,428.4,864.2,401.1,847.4,361.4z M966.1,410
	c-0.5-0.9-1-1.8-1.5-2.8c-0.2-1.7-0.1-3.6-0.7-5.2c-12.1-35.4-35.9-59.1-71.3-71.1c-1-0.3-2.1-0.3-3.1-0.4
	c-8.1-0.9-12.2,2.5-10.7,10.8c0.9,4.8,2.1,9.6,4.2,14c12,25.6,30.9,44.6,56.5,56.5c4.7,2.2,10,4.3,15,4.1
	C958.5,415.8,962.3,412.1,966.1,410z"/>
<path class="st0" d="M195,190.1c0,202.9,0,404.9,0,608.1c24.6,0,48.7-0.1,72.7,0c4.5,0,9.1,0.2,13.5,1.1c9,1.9,14.8,9.9,13.9,18.2
	c-1,8.9-7.6,15.2-17,15.3c-33.6,0.2-67.3,0.2-100.9,0c-10.1,0-16.3-5.8-17.6-15.8c-0.4-2.8-0.2-5.6-0.2-8.4c0-209.5,0-419,0-628.4
	c0-20.8,5.1-25.8,26.3-25.8c175.5,0,351,0,526.5,0c20.5,0,25.2,4.7,25.2,25.3c0,62,0,124,0,186c0,3.2,0.1,6.3-0.2,9.4
	c-1,9.2-7.9,15.5-16.8,15.5c-8.9,0-16.2-6.3-16.9-15.4c-0.6-8.7-0.3-17.5-0.3-26.3c0-48.7,0-97.4,0-146.1c0-4.1,0-8.2,0-12.9
	C533.3,190.1,364.6,190.1,195,190.1z"/>
<path class="st0" d="M437.6,370.5c-52.2,0-104.3,0.2-156.5-0.3c-5.7-0.1-12.8-2.5-16.7-6.4c-8.6-8.5-3.9-23.3,7.9-26.8
	c4.3-1.2,9-1.2,13.5-1.2c101.9-0.1,203.7,0,305.6,0c2.1,0,4.2-0.1,6.3,0c11.9,0.5,19.3,7.4,19.2,17.7c-0.1,10.4-7.5,16.9-19.7,17
	C544.1,370.5,490.9,370.5,437.6,370.5z"/>
<path class="st0" d="M437.6,450.8c-52.5,0-105,0-157.5,0c-7.5,0-14.9-1.4-17.2-9c-1.6-5.4-1.9-13.2,1-17.4
	c2.9-4.2,10.2-7.2,15.8-7.5c21.3-0.8,42.7-0.4,64-0.4c81.6,0,163.1,0,244.7,0c2.8,0,5.6,0,8.4,0c13,0.2,20.4,6.5,20.2,17.4
	c-0.2,10.4-7.3,16.7-19.8,16.8c-15.7,0.2-31.5,0-47.3,0C512.5,450.8,475.1,450.8,437.6,450.8z"/>
<path class="st0" d="M338.6,732.5c-32.5,0.2-57.5-24.3-57.8-56.6c-0.3-32.5,25.2-58.5,57.4-58.4c31.7,0.1,57.4,25.7,57.6,57.5
	C396,706.7,370.5,732.3,338.6,732.5z M361,675.3c0.1-11.9-10.7-22.8-22.6-23c-12.2-0.2-23.6,11.2-23.4,23.4
	c0.3,11.9,11.2,22.6,23.1,22.6C350,698.1,361,687.1,361,675.3z"/>
<path class="st0" d="M389.1,496.9c35.4,0,70.8,0,106.2,0c13.5,0,20.7,5.8,21,16.6c0.3,11.3-7.2,18.1-20.8,18.1
	c-71.5,0.1-142.9,0.1-214.4,0c-12.9,0-20.6-6.7-20.6-17.3c0-10.8,7.4-17.3,20.4-17.3C316.9,496.9,353,496.9,389.1,496.9z"/>
<path class="st0" d="M368.7,255.4c28.7,0,57.4,0,86.1,0c13.5,0,21.5,6.6,21.3,17.5c-0.2,10.9-8,17.4-21.7,17.4
	c-57.4,0.1-114.8,0.1-172.2,0c-13.8,0-21.6-6.4-21.8-17.3c-0.2-11.4,7.6-17.7,22.2-17.7C311.3,255.4,340,255.4,368.7,255.4z"/>
</svg>
