<?xml version="1.0" encoding="utf-8"?>
<!-- Generator: Adobe Illustrator 26.0.3, SVG Export Plug-In . SVG Version: 6.00 Build 0)  -->
<svg version="1.1" id="Capa_1" xmlns="http://www.w3.org/2000/svg" xmlns:xlink="http://www.w3.org/1999/xlink" x="0px" y="0px"
	 viewBox="0 0 1080 1080" style="enable-background:new 0 0 1080 1080;" xml:space="preserve">
<style type="text/css">
	.st0{fill:#D00A10;}
	.st1{fill:none;stroke:#000000;stroke-width:165;stroke-miterlimit:10;}
	.st2{fill:none;stroke:#000000;stroke-width:210;stroke-miterlimit:10;}
	.st3{fill:#FFFFFF;}
	.st4{fill-rule:evenodd;clip-rule:evenodd;fill:#003D7C;}
	.st5{fill-rule:evenodd;clip-rule:evenodd;fill:#D00A10;}
</style>
<path class="st0" d="M761,159c51,34.6,94.6,76.7,128.9,128c11,16.5,20.9,33.9,30.5,51.4c8.1,14.7,6.1,24.7-4.7,29.8
	c-10.8,5.2-19.3,0.8-27-14.1c-30.4-59.2-72.3-108.8-125.1-149.3c-4-3.1-8.1-6-12.3-8.9c-17.9-12.6-18.3-23.3-1.1-36.8
	C753.8,159,757.4,159,761,159z"/>
<path class="st0" d="M171,348.5c21.8-43.3,48.3-83.3,81.7-118.6c25.4-26.9,53.1-51.2,84.6-70.9c3,0,6,0,8.9,0
	c0.9,0.7,1.7,1.5,2.7,2.1c13.1,8,14.1,22.6,1.5,31.3C288,235.7,240,291.3,205.7,359c-7.9,15.5-23.1,14.7-34.7-1.6
	C171,354.4,171,351.5,171,348.5z"/>
<path class="st0" d="M763,777.2c9.8,9.7,19.1,18.8,28.4,28.1c12.2,12.2,24.5,24.4,36.6,36.7c8.1,8.2,8.7,19.1,1.8,26.3
	c-7.5,7.8-18,7.4-26.9-1.4c-21-20.8-41.9-41.6-62.5-62.6c-4.4-4.5-7.4-5.6-13.3-1.9c-57.2,36.1-120,52.8-187.5,51.2
	c-59.5-1.4-114.9-17.7-165.9-48.6c-3.3-2-6.6-4-10-5.9c-0.2-0.1-0.6,0-2,0c-20.2,20.3-41,41.1-61.9,61.9c-2.5,2.5-4.9,5.2-7.6,7.5
	c-8,7-17.8,6.9-24.8-0.2c-6.8-6.8-7.1-17.3,0-24.9c7.7-8.3,15.9-16.1,23.9-24.1c14.1-14,28.1-28.1,42.3-42.2
	c-158.5-132.5-156.7-361.5-29-493.6c126.2-130.5,333.1-139.7,466.6-20c76.8,68.9,115.7,155.6,114.1,258.6
	C883.8,624.8,841.3,709.4,763,777.2z M246.6,515.6c-0.2,160.3,125.6,297.6,293.6,302.5c165.1,4.8,305-124,310-293.1
	c4.9-165.2-123.8-305-292.9-310.1C388.6,209.8,248.1,343.8,246.6,515.6z"/>
<path class="st0" d="M805.5,517.2c0,141.7-114.8,256.4-256.8,256.5C406.3,773.8,291,658.5,291.1,515.8
	c0.1-141.4,115.5-256.4,257.2-256.5C691,259.2,805.5,374,805.5,517.2z M770.2,516.5c0-122.7-99.6-222.2-222.2-221.9
	c-122,0.3-221.7,100.1-221.6,221.9c0,121.9,99.7,221.7,221.7,221.9C670.7,738.6,770.2,639.2,770.2,516.5z"/>
<path class="st0" d="M530.7,438.9c0-17.3,0-34.5,0-51.8c0-15.5,0-31,0-46.4c0-13.5,6.3-21,17.6-21.1c11.5-0.2,17.7,6.9,17.7,20.6
	c0,31.8,0.1,63.7-0.1,95.5c0,6,1.5,9.5,6.9,12.8c28.6,17,40.4,50.4,29.3,81.1c-11.2,30.9-42.1,49.1-75.4,43.3
	c-6.3-1.1-9.1,0.9-12.4,5.3c-16.6,22.5-33.5,44.8-50.2,67.2c-4.9,6.6-11.3,9.9-19.4,8.1c-7.3-1.6-12.8-6.6-13-14
	c-0.2-5.4,1.8-11.9,4.9-16.3c15.6-21.8,31.9-43,48-64.4c2.8-3.6,4-6.1,0.8-10.7c-30.6-43.1-10.3-96.2,41.2-108.2
	C527.7,439.7,528.8,439.4,530.7,438.9z M570.4,506.9c0.1-18.1-13.2-31.9-31.1-32.2c-18.3-0.3-32.7,13.5-32.9,31.5
	c-0.2,17.8,14.4,32.5,32.2,32.5C556.3,538.6,570.3,524.7,570.4,506.9z"/>
</svg>
