<?xml version="1.0" encoding="utf-8"?>
<!-- Generator: Adobe Illustrator 26.0.3, SVG Export Plug-In . SVG Version: 6.00 Build 0)  -->
<svg version="1.1" id="Capa_1" xmlns="http://www.w3.org/2000/svg" xmlns:xlink="http://www.w3.org/1999/xlink" x="0px" y="0px"
	 viewBox="0 0 1080 1080" style="enable-background:new 0 0 1080 1080;" xml:space="preserve">
<style type="text/css">
	.st0{fill:#D00A10;}
	.st1{fill:none;stroke:#000000;stroke-width:165;stroke-miterlimit:10;}
	.st2{fill:none;stroke:#000000;stroke-width:210;stroke-miterlimit:10;}
	.st3{fill:#FFFFFF;}
	.st4{fill-rule:evenodd;clip-rule:evenodd;fill:#003D7C;}
	.st5{fill-rule:evenodd;clip-rule:evenodd;fill:#D00A10;}
</style>
<path class="st0" d="M942,902c-0.7,0.6-1.5,1-2,1.7c-4.3,7.2-10.4,10.6-18.7,8.3c-8.8-2.4-11.8-9.2-12-17.7
	c-0.7-26.9-10.5-49.9-29.3-69.1c-20.3-20.8-45.4-30.6-74.1-31.1c-20.1-0.3-40.3,0.8-60.4-0.4c-11.1-0.7-22.4-3.9-33-7.7
	c-5.4-1.9-8.4-2.2-12.9,1.6c-39.1,32.8-78.5,65.4-117.7,98.1c-11.6,9.7-17.7,9.8-29.3,0.1c-38.1-31.6-76.2-63.2-114.1-95.1
	c-4.9-4.1-8.6-4.6-14.8-2.5c-9.2,3.1-19.1,5.2-28.8,5.7c-25.3,1.2-50.9-0.6-76,2.1c-47.6,5.3-84.4,46.2-87.2,94.1
	c-1,15.9-6.4,23.1-17.1,22.6c-11.1-0.5-16.5-9.3-15.2-25c5.8-72.1,62.7-124.9,135.1-125.3c18.9-0.1,37.8,0,56.7,0
	c26.5-0.1,42.9-15.2,45.1-41.6c0.1-1.5-0.1-3.1,0.1-4.6c2.8-18.4-3-32.1-17.6-45c-25.4-22.6-41.5-52.1-51.6-84.5
	c-2.2-7.1-5.1-9.7-12.8-9.6c-35.2,0.2-56.7-21.6-56.7-56.6c-0.1-31.9-0.1-63.8,0-95.7c0-24.4,12.9-37.1,37.3-37.1c7,0,14.1,0,21.6,0
	c0-62,0-122.8,0-184.8c-14.2,0-28,0-41.8,0c-11.1,0-22.3-0.2-33.4,0.1c-9.5,0.2-18.4-0.8-22-11.3c-3.4-10.1,2.8-16.2,10.2-21.4
	c200.6,0,401.3,0,601.9,0c6.3,4.7,11.3,9.7,11.1,18.7c-0.4,31.6-0.1,63.1-0.2,94.7c0,10.8-6.6,17.7-16.1,17.6
	c-9.6-0.1-15.5-6.7-15.5-17.9c-0.1-22.9,0-45.8,0-68.7c0-3.6,0-7.2,0-11.2c-23,0-44.5,0-66.1,0c0,61.6,0,122.6,0,184.3
	c7.3,0,13.8,0,20.2,0c26.2,0,38.4,12.4,38.4,38.8c0,31-0.6,61.9,0.2,92.9c0.9,35.8-26,60.6-57.6,57.9c-6.6-0.6-9.7,1.7-11.7,8.4
	c-10.1,32.8-26.1,62.8-51.8,85.4c-15,13.3-20.3,27.3-17.7,45.9c0,0.3,0,0.6,0,0.9c0.9,28.2,17.7,44.6,45.9,44.6
	c19.2,0,38.4-0.2,57.6,0.1c62,0.8,114.2,41.3,129.4,100.3c1.8,6.8,3.1,13.8,4.7,20.6C942,889.6,942,895.8,942,902z M750.8,380.4
	c-120.9,0-240.6,0-360.8,0c-0.2,3.3-0.5,6-0.6,8.7c-0.1,17.3,0.2,34.7-0.1,52c-0.2,11.4-7.3,18.3-17,17.9
	c-9.1-0.4-15.1-7.6-15.2-18.6c-0.1-6.7,0-13.4,0-21.1c-8,0-14.8-0.5-21.4,0.3c-2.1,0.3-5.4,4-5.4,6.1c-0.3,33.1-0.5,66.3,0,99.4
	c0.2,14.6,12.8,22.7,26.8,19c0-6.2,0-12.4,0-18.5c0.1-12.7,5.5-19.4,16-19.4c10.4-0.1,16,6.5,16.4,19.3c1.8,58.8,26.2,106,73,141.5
	c99.1,75.4,245.5,27.5,281-92.2c4.8-16.4,5.8-34,7.9-51.1c1.4-11.2,6.6-17.5,16.4-17.5c9.9,0,15.9,6.4,16.1,17.5c0.1,7,0,14,0,20.9
	c15.9,2.3,26.7-5.4,26.9-20.3c0.4-32.8,0.3-65.6,0-98.4c0-2.2-2.7-6-4.4-6.2c-7.2-0.7-14.5-0.3-22.4-0.3c0,8.9,0.1,16.3,0,23.7
	c-0.2,9.7-6.6,16-16.4,16.3c-5.6,0.1-11.1-0.3-16.7-0.3c-65.9,0-131.9,0.1-197.8,0c-31.6,0-55.3-21.8-57.7-52.5
	c-0.8-9.9,5-17.8,13.8-18.9c9.7-1.2,17.1,4.8,18.4,15.2c2.2,16.9,10,23.9,27,23.9c62.2,0,124.5,0,186.7,0c3.3,0,6.5,0,9.9,0
	C750.8,410.5,750.8,395.8,750.8,380.4z M389.5,203.4c0,4,0,7.1,0,10.1c0,41.1,0.3,82.3-0.2,123.4c-0.1,9,2.5,11.3,11.4,11.3
	c113.2-0.3,226.5-0.2,339.7-0.2c3.3,0,6.6-0.3,10.2-0.5c0-48.6,0-96.3,0-144.2C630.2,203.4,510.5,203.4,389.5,203.4z M471.1,711.3
	c-3.9,15.2-6.5,30-11.8,43.9c-2.7,7.1-1.8,10.1,3.5,14.4c19,15.4,37.7,31.1,56.5,46.7c15.9,13.2,31.8,26.3,47.9,39.6
	c34.5-28.7,68.3-56.8,102-84.9c12.6-10.5,11.9-10.4,7.7-25.6c-3.1-11.1-4-22.7-5.9-34.8C604.2,743.5,537,743.5,471.1,711.3z"/>
<path class="st0" d="M850.8,354.2c0-3.7-0.2-7.4,0.1-11.1c0.6-8.7,6.4-14.4,14.8-14.8c8.4-0.4,15.8,5.5,16.5,14.2
	c0.6,7.7,0.6,15.5,0,23.2c-0.7,8.9-7.5,14.4-16.4,14.2c-8.9-0.2-14.5-6-15-15.4C850.6,361,850.8,357.6,850.8,354.2z"/>
<path class="st0" d="M568.9,639.7c-40.7-1-75.7-15.7-103.6-45.8c-3.9-4.1-7.3-10.9-6.9-16.1c0.3-4.6,5.4-10.5,9.9-12.9
	c6.3-3.4,13.2-1.2,18.3,4.7c12.6,14.5,28,25.4,46.3,31.4c43,14,80.9,4.8,113.7-26.1c8.9-8.4,18.3-9.6,25.2-3
	c7.1,6.8,6.3,17.4-2.6,26.1C641.4,625.2,607.8,638.7,568.9,639.7z"/>
</svg>
