<?xml version="1.0" encoding="utf-8"?>
<!-- Generator: Adobe Illustrator 26.0.3, SVG Export Plug-In . SVG Version: 6.00 Build 0)  -->
<svg version="1.1" id="Capa_1" xmlns="http://www.w3.org/2000/svg" xmlns:xlink="http://www.w3.org/1999/xlink" x="0px" y="0px"
	 viewBox="0 0 1080 1080" style="enable-background:new 0 0 1080 1080;" xml:space="preserve">
<style type="text/css">
	.st0{fill:#D00A10;}
	.st1{fill:none;stroke:#000000;stroke-width:165;stroke-miterlimit:10;}
	.st2{fill:none;stroke:#000000;stroke-width:210;stroke-miterlimit:10;}
	.st3{fill:#FFFFFF;}
	.st4{fill-rule:evenodd;clip-rule:evenodd;fill:#003D7C;}
	.st5{fill-rule:evenodd;clip-rule:evenodd;fill:#D00A10;}
</style>
<path class="st0" d="M673.8,163.1c12.9,9.8,15.6,14.6,8.5,29.5c-14.8,31.1-15.9,61.5,0.1,92.2c1.5,2.8,2.3,6.1,2.7,9.2
	c1.7,12-5.1,20.1-17.3,20.2c-20.4,0.2-40.7,0-64.2,0c4.7,3.9,7.3,6.3,10.2,8.4c58.4,43.9,116.7,87.9,175.5,131.3
	c10.3,7.6,14,16.1,14,28.6c-0.3,136.1-0.2,272.3-0.2,408.4c0,4.1,0,8.3,0,13c40.6,0,80.2,0,120.7,0c0-98.4,0-196.8,0-297
	c-3,0-6.3,0-9.7,0c-22,0-44,0-66,0c-13.1,0-20.4-5.9-20.7-16.5c-0.3-10.9,7.5-17.6,20.9-17.7c24.9-0.1,49.8,0,75.5,0
	c0-14.4,0-28.4,0-43.4c-24.4,0-48.5,0-72.7,0c-3.8,0-7.8-0.1-11.5-1.2c-8.5-2.4-13.4-10.1-12-18.5c1.5-8.7,6.9-14.3,15.7-14.3
	c33.3-0.3,66.6-0.3,99.9,0c8.6,0.1,14.7,7,15.5,15.7c0.2,2.2,0,4.5,0,6.8c0,133.2,0,266.5,0,399.7c0,16.2-5.1,21.3-21.4,21.3
	c-257.1,0-514.3,0-771.4,0c-16.3,0-21.6-5.2-21.6-21.2c0-133.2,0-266.5,0-399.7c0-17.3,5.3-22.7,22.4-22.7c29.8,0,59.5,0,89.3,0
	c12.3,0,19.5,6,19.8,16.3c0.3,10.7-7.1,17.7-19.6,17.8c-22,0.2-44,0.1-66,0.1c-3.5,0-7,0-11,0c0,14.6,0,28.4,0,43.4
	c8.5,0,16.8,0,25.1,0c17.5,0,34.9-0.2,52.4,0.1c12,0.2,19.2,7,19.2,17.3c0,10.5-7.1,16.8-19.2,16.8c-25.5,0.1-51,0-77.2,0
	c0,99.1,0,197.6,0,296.8c40,0,80.1,0,121.6,0c0-4.1,0-7.9,0-11.7c0-102.2,0-204.4,0-306.6c0-35.9,0.2-71.7-0.2-107.6
	c-0.1-9.6,3-16.2,10.9-22c71.6-53.3,142.8-107,214.4-160.3c6.5-4.8,8.7-9.8,8.6-17.7c-0.5-29.4,0.2-58.9-0.4-88.3
	c-0.2-11.1,2-20.2,11.5-26.7C588.4,163.1,631.1,163.1,673.8,163.1z M768.6,588.3c-144.9,0-288.9,0-433.5,0c0,105.5,0,210.4,0,315.7
	c47.3,0,93.9,0,140.3,0c0.4-1.3,0.7-1.9,0.7-2.6c0.1-22.6,0.1-45.3,0.2-67.9c0.1-32.9,25.3-61.5,56.7-64.7
	c35.6-3.6,65.7,17.2,72.9,50.9c1.5,6.9,1.7,14.1,1.7,21.2c0.2,20.9,0.1,41.8,0.1,63.1c54.3,0,107.4,0,160.9,0
	C768.6,798.6,768.6,694,768.6,588.3z M769,553.1c0-21.3-0.3-41.6,0.2-61.9c0.2-7-2.4-11.1-7.8-15.1
	C694,425.8,626.7,375.4,559.7,324.7c-6.6-5-10.5-4.1-16.5,0.4c-62.7,47.3-125.2,95-188.7,141.1c-15.3,11.1-22.5,22.3-20.4,41.2
	c1.7,14.9,0.3,30.1,0.3,45.6C479.7,553.1,623.6,553.1,769,553.1z M573.3,904.2c0-25,0.7-48.9-0.2-72.7
	c-0.7-17.8-15.4-29.7-33.4-28.8c-16.5,0.8-29.1,14.1-29.2,31.2c-0.1,20.3,0,40.6,0,60.9c0,3.1,0,6.1,0,9.3
	C532.1,904.2,552.3,904.2,573.3,904.2z M569.5,198.2c0,27,0,54.1,0,81.5c24.8,0,49.2,0,76.9,0c-16.9-27.5-15.9-54.3-0.2-81.5
	C619.2,198.2,594.8,198.2,569.5,198.2z"/>
<path class="st0" d="M256.3,824.5c0,6.8,0.3,13.6-0.1,20.3c-0.5,9.3-7.3,15.6-16.2,16c-8.6,0.4-16.8-5.9-17.2-14.9
	c-0.7-14.5-0.8-29,0-43.5c0.5-9.2,8.3-14.7,17.5-14.3c9.1,0.4,15.4,6.5,15.9,16.1C256.6,811,256.3,817.7,256.3,824.5z"/>
<path class="st0" d="M846.9,823.8c0-6.5-0.2-12.9,0.1-19.4c0.4-9,6.5-15.6,14.7-16.4c9.6-0.9,18.1,4.4,18.7,14
	c1,14.7,1,29.7,0.1,44.4c-0.6,9-9.3,14.9-17.8,14.3c-8.8-0.7-15.2-7.4-15.6-16.7C846.6,837.4,846.9,830.6,846.9,823.8z"/>
<path class="st0" d="M846.9,706.6c0-6.4-0.3-12.9,0.1-19.3c0.5-9.3,6.2-15.2,14.9-16.1c9.3-0.9,17.7,3.9,18.4,13.1
	c1.1,15,1.1,30.3,0.1,45.3c-0.6,9.3-8.6,14.4-17.9,13.8c-9-0.5-15.1-6.9-15.5-16.5C846.6,720.1,846.9,713.4,846.9,706.6z"/>
<path class="st0" d="M256.3,707.5c0,6.8,0.3,13.6-0.1,20.3c-0.5,9-6.7,15-15.3,15.6c-9.3,0.6-17.2-4.5-17.8-13.8
	c-1-14.7-0.9-29.6-0.2-44.4c0.5-9.1,8.4-14.6,17.6-14.2c9.1,0.4,15.4,6.6,15.8,16.1C256.6,694,256.3,700.7,256.3,707.5
	C256.3,707.5,256.3,707.5,256.3,707.5z"/>
<path class="st0" d="M476.2,668.4c0-6.5-0.2-12.9,0-19.4c0.3-9.9,6.8-16.9,15.9-17.4c8.4-0.5,17.1,5.6,17.6,14.6
	c0.9,14.8,0.9,29.7-0.2,44.4c-0.7,9.7-9,14.7-18.9,13.6c-8.5-0.9-14.1-7.1-14.4-16.5C476,681.4,476.2,674.9,476.2,668.4z"/>
<path class="st0" d="M607.6,668.5c0,6.4,0.3,12.9,0,19.3c-0.5,10.1-6.8,16.3-16.5,16.5c-9.7,0.2-16.8-5.7-17.2-15.6
	c-0.5-13.5-0.5-27.1,0-40.6c0.4-9.9,7.7-16.4,16.9-16.4c8.9,0,16.3,7,16.8,16.6C607.8,655,607.6,661.8,607.6,668.5z"/>
<path class="st0" d="M413.4,669c-0.5,7.4-0.4,14.9-1.6,22.1c-1.7,9.6-8.4,14-18.2,13.2c-8.7-0.7-14.4-6.7-14.6-16.1
	c-0.2-13.5-0.2-27.1,0-40.6c0.2-8.7,6.7-15.2,15.1-16c8-0.8,15.7,5,17.7,13.2c0.4,1.6,0.8,3.2,0.9,4.7c0.1,6.4,0,12.9,0,19.3
	C412.9,669,413.2,669,413.4,669z"/>
<path class="st0" d="M671.6,668.2c0-6.8-0.2-13.5,0.1-20.3c0.4-9.4,6.9-15.8,15.8-16.2c8.5-0.4,16.8,6.1,17.1,14.9
	c0.6,14.5,0.6,29,0,43.4c-0.4,9.3-7.7,14.6-17.2,14.3c-9-0.3-14.9-5.9-15.8-14.9c-0.1-0.6-0.1-1.3-0.1-1.9
	C671.6,681,671.6,674.6,671.6,668.2C671.6,668.2,671.6,668.2,671.6,668.2z"/>
<path class="st0" d="M627,453.8c0,41.5-33.7,75.4-75.1,75.7c-41.8,0.2-75.8-33.8-75.8-75.9c0-41.8,33.2-75.1,75.1-75.3
	C593.5,378.1,627.1,411.5,627,453.8z M593,453.6c0-22.5-18.6-41.4-41.2-41.7c-22.4-0.3-41.3,18.5-41.4,41.2
	c-0.1,23.4,18.5,42.2,41.5,42C574.5,495,593,476.3,593,453.6z"/>
</svg>
