<?xml version="1.0" encoding="utf-8"?>
<!-- Generator: Adobe Illustrator 26.0.3, SVG Export Plug-In . SVG Version: 6.00 Build 0)  -->
<svg version="1.1" id="Capa_1" xmlns="http://www.w3.org/2000/svg" xmlns:xlink="http://www.w3.org/1999/xlink" x="0px" y="0px"
	 viewBox="0 0 1080 1080" style="enable-background:new 0 0 1080 1080;" xml:space="preserve">
<style type="text/css">
	.st0{fill:#D00A10;}
	.st1{fill:none;stroke:#000000;stroke-width:165;stroke-miterlimit:10;}
	.st2{fill:none;stroke:#000000;stroke-width:210;stroke-miterlimit:10;}
	.st3{fill:#FFFFFF;}
	.st4{fill-rule:evenodd;clip-rule:evenodd;fill:#003D7C;}
	.st5{fill-rule:evenodd;clip-rule:evenodd;fill:#D00A10;}
</style>
<path class="st0" d="M184.6,929.9c-8.8-4.5-11.5-11.6-11.5-21.4c0.2-210.1,0.2-420.2,0.2-630.3c0-17,4.7-21.6,22.1-21.7
	c10.7,0,21.4-0.2,32,0.1c11.3,0.3,17.3,5.9,17.2,15.4c0,9.6-5.9,14.6-17.5,14.7c-7.4,0.1-14.8,0-22.8,0c0,52.2,0,103.5,0,155.6
	c224.1,0,448.1,0,673.2,0c0.2-3.1,0.4-6.2,0.4-9.3c0-45.3-0.2-90.6,0.2-136c0.1-7.9-1.9-11.3-10.2-10.4c-5.8,0.6-11.6,0.2-17.5,0.1
	c-8.6-0.2-13.1-5.3-13.9-13.3c-0.8-8.1,3.1-15,11.1-15.6c16-1.1,32.3-1.2,48.3,0.2c4.6,0.4,8.6,7.4,12.9,11.4
	c0,220.2,0,440.4,0,660.6C667.5,929.9,426.1,929.9,184.6,929.9z M204.1,898.3c225.2,0,449.2,0,673.5,0c0.2-3.4,0.4-5.9,0.4-8.5
	c0-135.6-0.1-271.3,0.2-406.9c0-8.5-3.1-10-10.7-10c-217.7,0.2-435.5,0.1-653.2,0.2c-3.4,0-6.8,0.3-10.2,0.5
	C204.1,615.9,204.1,757,204.1,898.3z"/>
<path class="st0" d="M368.9,251.8c0,26.2,0,52.4,0,78.7c0,13.9-4.5,18.3-18.7,18.3c-18.1,0-36.2,0-54.4,0c-14.4,0-19.2-5-19.2-20.3
	c-0.1-42.1,0-84.2,0-126.2c0-10.4-0.2-20.7,0.1-31.1c0.3-12.8,5.9-18.1,18.7-18.2c18.8-0.1,37.5-0.1,56.3,0
	c11.8,0.1,17.2,5.4,17.2,17.2C369,197.4,368.9,224.6,368.9,251.8z M307.4,184c0,45.3,0,89.4,0,133.8c10.7,0,20.7,0,30.8,0
	c0-45,0-89.1,0-133.8C327.8,184,318,184,307.4,184z"/>
<path class="st0" d="M804,250.8c0,26.9,0,53.7,0,80.6c0,12.7-4.8,17.3-17.7,17.4c-18.8,0.1-37.5,0.1-56.3,0
	c-13.1,0-18.2-5.2-18.3-19.3c-0.1-39.5,0-79,0-118.5c0-12.9-0.2-25.9,0.1-38.8c0.3-14,5.7-19.1,19.7-19.2c18.4,0,36.9-0.1,55.3,0
	c11.8,0.1,17.2,5.4,17.2,17.1C804,197.1,804,224,804,250.8z M773.2,318.1c0-45.1,0-89.4,0-134.1c-10.5,0-20.3,0-30.6,0
	c0,44.9,0,89.3,0,134.1C752.8,318.1,762.4,318.1,773.2,318.1z"/>
<path class="st0" d="M550.8,286.6c-36.6,0-73.1,0-109.7,0c-12.2,0-18.8-5-19.2-14.3c-0.4-9.5,6.9-15.8,19.1-15.8
	c73.4-0.1,146.9,0,220.3,0c7.1,0,14.5,1.3,16.7,8.8c1.4,4.7,1.1,11.6-1.5,15.2c-2.7,3.6-9.2,5.8-14.1,5.9
	C625.2,286.8,588,286.6,550.8,286.6z"/>
<path class="st0" d="M343.8,712.6c16.2,0,32.3-0.1,48.5,0c12.7,0.1,18.5,5.5,18.6,18.3c0.3,25.6,0.3,51.1,0,76.7
	c-0.1,12.8-5.8,18.4-18.6,18.4c-32.3,0.2-64.7,0.2-97,0c-12.8-0.1-18.5-5.7-18.6-18.5c-0.2-25.6-0.2-51.1,0-76.7
	c0.1-12.8,5.9-18.2,18.6-18.3C311.5,712.6,327.7,712.6,343.8,712.6z M380.8,743.6c-25.5,0-49.2,0-74,0c0,16-0.2,31.4,0.3,46.8
	c0.1,1.9,3.7,5.2,5.7,5.3c20.6,0.4,41.3,0.4,62,0c2.1,0,5.7-3.3,5.8-5.2C381.1,775.1,380.8,759.7,380.8,743.6z"/>
<path class="st0" d="M550.7,712.6c16.2,0,32.3-0.1,48.5,0c13.2,0.1,18.3,5.1,18.4,18c0.1,25.9,0.1,51.8,0,77.6
	c0,12-4.9,17.6-16.8,17.7c-33,0.3-66,0.3-98.9,0c-12.2-0.1-17.7-6-17.7-18.1c-0.1-25.6-0.1-51.1,0-76.7c0-13.3,5.5-18.5,19.1-18.6
	C519,712.6,534.8,712.6,550.7,712.6z M515.3,743.5c0,18.1,0,35,0,51.8c24.3,0,47.7,0,71.4,0c0-17.6,0-34.5,0-51.8
	C562.5,743.5,539.1,743.5,515.3,743.5z"/>
<path class="st0" d="M736.6,826.1c-15.2,0-30.4,0.1-45.6,0c-15.3-0.1-20.5-5.2-20.6-20.2c0-24.6-0.1-49.2,0-73.8
	c0-14.2,5.2-19.4,19.2-19.5c32-0.1,64-0.1,96,0c13.2,0,18.2,5.1,18.2,18.1c0.1,25.6,0,51.1,0,76.7c0,13.5-5,18.5-18.8,18.6
	C769,826.3,752.8,826.1,736.6,826.1z M701.3,795.3c24.6,0,48,0,71.9,0c0-17.5,0-34.4,0-51.6c-24.3,0-48,0-71.9,0
	C701.3,761.1,701.3,777.8,701.3,795.3z"/>
<path class="st0" d="M344.8,547.3c16.2,0,32.3-0.1,48.5,0c11.5,0.1,17.4,4.8,17.6,15.9c0.5,26.8,0.5,53.7,0,80.5
	c-0.2,11.2-6.1,15.9-17.6,15.9c-33,0.1-65.9,0.1-98.9,0c-11.9,0-17.4-5-17.6-16.9c-0.3-26.2-0.3-52.4,0-78.6
	c0.1-11.9,5.7-16.8,17.6-16.9C311.2,547.2,328,547.3,344.8,547.3z M307.3,628.6c24.9,0,48.9,0,73,0c0-17.2,0-33.6,0-50.5
	c-24.5,0-48.5,0-73,0C307.3,595.2,307.3,611.5,307.3,628.6z"/>
<path class="st0" d="M550.3,659.7c-16.5,0-33,0.1-49.4,0c-11.2-0.1-16.6-5.3-16.7-16.6c-0.2-26.2-0.2-52.4,0-78.6
	c0.1-11.9,5.4-17.1,17.2-17.2c33.3-0.1,66.6-0.1,99.8,0c11.5,0,16.4,5,16.4,16.6c0.1,26.2,0.1,52.4,0,78.6
	c0,12.3-4.8,17.1-16.8,17.2C583.9,659.7,567.1,659.7,550.3,659.7z M586.8,628.9c0-17.6,0-34,0-50.8c-24.3,0-47.9,0-71.7,0
	c0,17.4,0,34,0,50.8C539.3,628.9,562.7,628.9,586.8,628.9z"/>
<path class="st0" d="M737.1,659.7c-16.5,0-33,0.1-49.4,0c-11.3-0.1-17-5.2-17.1-16.2c-0.2-26.5-0.2-53,0-79.5
	c0.1-11.3,5.6-16.5,16.8-16.6c33.3-0.1,66.6-0.1,99.8,0c12,0,16.7,4.9,16.8,17.2c0.1,26.2,0.1,52.4,0,78.6
	c0,11.6-4.9,16.5-16.5,16.5C770.7,659.8,753.9,659.7,737.1,659.7z M773.2,628.9c0-17.6,0-34,0-50.8c-24.3,0-47.9,0-71.7,0
	c0,17.4,0,34,0,50.8C725.7,628.9,749.1,628.9,773.2,628.9z"/>
</svg>
