<?xml version="1.0" encoding="utf-8"?>
<!-- Generator: Adobe Illustrator 26.0.3, SVG Export Plug-In . SVG Version: 6.00 Build 0)  -->
<svg version="1.1" id="Capa_1" xmlns="http://www.w3.org/2000/svg" xmlns:xlink="http://www.w3.org/1999/xlink" x="0px" y="0px"
	 viewBox="0 0 1080 1080" style="enable-background:new 0 0 1080 1080;" xml:space="preserve">
<style type="text/css">
	.st0{fill:#D00A10;}
	.st1{fill:none;stroke:#000000;stroke-width:165;stroke-miterlimit:10;}
	.st2{fill:none;stroke:#000000;stroke-width:210;stroke-miterlimit:10;}
	.st3{fill:#FFFFFF;}
	.st4{fill-rule:evenodd;clip-rule:evenodd;fill:#003D7C;}
	.st5{fill-rule:evenodd;clip-rule:evenodd;fill:#D00A10;}
</style>
<path class="st0" d="M192.3,151c221.2,0,442.5,0,663.7,0c0.6,0.5,1.1,1.2,1.7,1.4c22.6,7.2,31.9,19.9,31.9,43.5
	c0,173.8-0.2,347.7,0.3,521.5c0.1,23.5-17,44.4-44.1,44c-70.6-0.9-141.3-0.3-212-0.3c-3.2,0-6.4,0-9.5,0c0,20.9,0,40.4,0,60.4
	c3.5,0,6.3,0,9.1,0c20,0,39.9-0.1,59.9,0c22.5,0.1,34.7,12.4,34.8,34.7c0,11.8,0,23.6,0,35.3c0,24.9-11.7,36.6-36.7,36.6
	c-111.6,0-223.2,0-334.8,0c-2.3,0-4.6,0.1-6.9-0.1c-17.8-1.3-29.5-13.9-29.6-31.8c0-13.1,0-26.1,0-39.2c0-23.6,11.7-35.4,35.3-35.5
	c20.2-0.1,40.4,0,60.7,0c2.7,0,5.4-0.3,8.1-0.4c0-20.2,0-39.6,0-60c-3.7,0-6.9,0-10.2,0c-71.4,0-142.8,0-214.3,0
	c-20.2,0-35.6-11.5-40-30.3c-1.2-5.1-1.2-10.7-1.2-16c-0.1-172.3,0-344.6,0-516.9c0-2.8,0-5.6,0.2-8.4c1-17.2,11.9-31.1,28.3-36.3
	C188.7,152.6,190.5,151.7,192.3,151z M524.3,576.7c108,0,216.1,0,324.1,0c10.6,0,10.6,0,10.6-10.2c0-122.6,0-245.3,0-367.9
	c0-13.7-2.3-16-16.1-16c-212.5,0-424.9,0-637.4,0c-14.1,0-16.3,2.2-16.3,16.6c0,122.4,0,244.8,0,367.1c0,10.4,0,10.4,10.3,10.4
	C307.7,576.8,416,576.7,524.3,576.7z M523.4,607.5c-108.3,0-216.6,0.1-324.9-0.1c-7.2,0-9.7,1.7-9.6,9.3c0.4,32.5,0.2,65,0.2,97.6
	c0,13.6,2.5,16.2,16,16.2c135.2-0.1,270.4-0.2,405.5-0.2c77.8,0,155.7,0.1,233.5,0.2c12,0,14.8-2.9,14.8-15c0-32.5,0-65,0-97.6
	c0-10.3,0-10.3-10.6-10.3C740,607.5,631.7,607.5,523.4,607.5z M351.9,896.4c115,0,229.5,0,344.4,0c0-14.6,0-28.7,0-42.9
	c-115.1,0-229.7,0-344.4,0C351.9,868,351.9,881.9,351.9,896.4z M456.4,820.8c45.3,0,90.2,0,135.4,0c0-19.7,0-39,0-58.3
	c-45.5,0-90.4,0-135.9,0c0,18,0,35.4,0,52.7C456,817,456.2,818.7,456.4,820.8z"/>
<path class="st0" d="M481.1,672.6c-0.1-24.2,19.1-43.3,43.3-43.2c23.8,0.1,42.7,19.2,42.7,43c0,24.1-19.4,43.5-43.3,43.3
	C500,715.6,481.2,696.5,481.1,672.6z M536.1,672.3c-0.1-6.6-5.8-11.8-12.6-11.5c-6.2,0.3-11.6,5.9-11.5,11.9
	c0.2,6.5,6.1,12,12.7,11.7C530.8,684.1,536.2,678.4,536.1,672.3z"/>
</svg>
