<?xml version="1.0" encoding="utf-8"?>
<!-- Generator: Adobe Illustrator 26.0.3, SVG Export Plug-In . SVG Version: 6.00 Build 0)  -->
<svg version="1.1" id="Capa_1" xmlns="http://www.w3.org/2000/svg" xmlns:xlink="http://www.w3.org/1999/xlink" x="0px" y="0px"
	 viewBox="0 0 1080 1080" style="enable-background:new 0 0 1080 1080;" xml:space="preserve">
<style type="text/css">
	.st0{fill:#D00A10;}
	.st1{fill:none;stroke:#000000;stroke-width:165;stroke-miterlimit:10;}
	.st2{fill:none;stroke:#000000;stroke-width:210;stroke-miterlimit:10;}
	.st3{fill:#FFFFFF;}
	.st4{fill-rule:evenodd;clip-rule:evenodd;fill:#003D7C;}
	.st5{fill-rule:evenodd;clip-rule:evenodd;fill:#D00A10;}
</style>
<path class="st0" d="M855.9,515.9c0,108.5,0,217,0,325.5c0,47.3-36.8,85.4-84.2,87c-7,0.2-14,0-21,0c-170.2,0-340.5,0-510.7,0
	c-54.4,0-96.4-42-96.4-96.4c0-15.5,0-31-0.2-46.5c-0.1-11.8,5.4-17.5,17.1-17.5c42,0,84,0.1,126,0.1c9.7,0,9.7,0,9.7-9.8
	c0-189.7,0-379.5,0-569.2c0-3-0.1-6,0.2-9c0.6-6.6,5.6-11.5,12.2-12.2c2.5-0.3,5-0.2,7.5-0.2c173.2,0,346.4,0,519.7,0
	c16.2,0,20,3.8,20,19.7C855.9,296.9,855.9,406.4,855.9,515.9z M825.8,523.8c0-105.2,0-210.5,0-315.7c0-10.3,0-10.3-10-10.3
	c-159.7,0-319.4,0-479.1,0c-10.3,0-10.3,0-10.3,9.9c0,183.5,0,367,0,550.4c0,10,0,10,10.2,10c118.2,0,236.4,0,354.7,0
	c15,0,20.1,5.1,20.1,20.3c0,17.5-0.1,35,0,52.5c0.2,34.9,30,61.1,64.5,56.7c28.9-3.7,49.9-28,49.9-58.1
	C825.9,734.2,825.8,629,825.8,523.8z M680.7,798.1c-4.5,0-8,0-11.5,0c-161.2,0-322.5,0-483.7,0c-1.5,0-3,0.1-4.5,0
	c-5.4-0.6-7.7,1.5-7.4,7.1c0.4,8.7,0.1,17.5,0.1,26.2c0.2,37.3,29.3,66.8,66.5,66.8c151,0.1,302,0,453,0c2.3,0,4.6-0.3,8.9-0.5
	C675.1,868.1,681.6,832.9,680.7,798.1z"/>
<path class="st0" d="M551.5,620.7c-46.7,0-93.5,0-140.2,0c-8.8,0-14.7-3.5-16.8-9.9c-3.1-9.2,1.9-17.9,11.5-20
	c1.9-0.4,4-0.6,5.9-0.6c93.5,0,187,0,280.5,0c2,0,4,0.2,5.9,0.5c8.2,1.6,13.4,8.1,12.8,15.9c-0.6,7.8-6.6,13.8-14.9,14.1
	c-7.2,0.3-14.5,0.1-21.7,0.1C633.5,620.7,592.5,620.7,551.5,620.7z"/>
<path class="st0" d="M552.1,525.1c-47.2,0-94.5,0-141.7,0c-11.2,0-17.2-6.2-16.4-16.5c0.5-7,5.8-12.5,12.9-13.4
	c1.5-0.2,3-0.1,4.5-0.1c94,0,188,0,281.9,0c11.2,0,18.3,6.2,17.9,15.5c-0.3,8.1-6.5,14.3-15.1,14.4c-16,0.2-32,0.1-48,0.1
	C616.1,525.1,584.1,525.1,552.1,525.1z"/>
<path class="st0" d="M553,304.6c47.2,0,94.5,0,141.7,0c11.5,0,18.6,8.7,15.7,19.1c-1.8,6.5-6.2,10.1-12.8,10.8
	c-1.7,0.2-3.5,0.1-5.2,0.1c-93.5,0-187,0-280.5,0c-11.4,0-17.4-4.6-18-13.6c-0.7-9.9,5.4-16.4,15.9-16.4c20.7-0.1,41.5,0,62.2,0
	C499,304.6,526,304.6,553,304.6z"/>
<path class="st0" d="M505.7,430.1c-31.7,0-63.5,0-95.2,0c-10.7,0-16.9-6.1-16.6-15.8c0.2-7.5,4-12.1,11.2-13.9
	c2.4-0.6,4.9-0.8,7.4-0.8c62.5,0,125,0,187.4,0c10.1,0,15.9,3.2,18.3,10c3.7,10.6-3.7,20.5-15.7,20.5
	C570.2,430.2,538,430.1,505.7,430.1z"/>
</svg>
